<svg viewBox="0 0 24 24" fill="none" xmlns="http://www.w3.org/2000/svg">
<path d="M11.8008 4C9.43543 4 7.5 5.93543 7.5 8.30078C7.5 10.6661 9.43543 12.6016 11.8008 12.6016C14.1661 12.6016 16.1016 10.6661 16.1016 8.30078C16.1016 5.93543 14.1661 4 11.8008 4ZM11.8008 5.60156C13.3014 5.60156 14.5 6.80013 14.5 8.30078C14.5 9.80143 13.3014 11 11.8008 11C10.3001 11 9.10156 9.80143 9.10156 8.30078C9.10156 6.80013 10.3001 5.60156 11.8008 5.60156V5.60156ZM11.8008 0C5.2933 0 0 5.2933 0 11.8008C0 18.3082 5.2933 23.6016 11.8008 23.6016C18.3082 23.6016 23.6016 18.3082 23.6016 11.8008C23.6016 5.2933 18.3082 0 11.8008 0ZM11.8008 1.60156C17.4435 1.60156 22 6.15801 22 11.8008C22 14.3313 21.0784 16.6393 19.5586 18.4199C19.4546 17.4388 19.0694 16.4874 18.3418 15.7598C17.5356 14.9536 16.4409 14.5 15.3008 14.5H8.30078C7.16068 14.5 6.06596 14.9535 5.25977 15.7598C4.55109 16.4685 4.12296 17.409 4.03711 18.4121C2.5211 16.6325 1.60156 14.3278 1.60156 11.8008C1.60156 6.158 6.158 1.60156 11.8008 1.60156ZM8.30078 16.1016H15.3008C16.0173 16.1016 16.7043 16.384 17.2109 16.8906C17.7085 17.3882 17.9769 18.0772 18.002 18.8281L18.0352 19.8652C16.3115 21.1983 14.1539 22 11.8008 22C9.46973 22 7.33087 21.2129 5.61523 19.9023L5.60156 18.791C5.59264 18.0879 5.88262 17.4006 6.39258 16.8906C6.89912 16.3841 7.58436 16.1016 8.30078 16.1016Z" fill="black"/>
</svg>
