<svg viewBox="0 0 24 24" fill="none" xmlns="http://www.w3.org/2000/svg">
<path d="M11.8008 15C11.6956 14.9999 11.5914 15.0205 11.4942 15.0607C11.397 15.101 11.3087 15.1599 11.2343 15.2343C11.1599 15.3087 11.101 15.397 11.0607 15.4942C11.0205 15.5914 10.9999 15.6956 11 15.8008C10.9999 15.906 11.0205 16.0101 11.0607 16.1073C11.101 16.2046 11.1599 16.2929 11.2343 16.3672C11.3087 16.4416 11.397 16.5006 11.4942 16.5408C11.5914 16.581 11.6956 16.6017 11.8008 16.6016H11.8106C11.9158 16.6017 12.0199 16.581 12.1171 16.5408C12.2144 16.5006 12.3027 16.4416 12.377 16.3672C12.4514 16.2929 12.5104 16.2046 12.5506 16.1073C12.5908 16.0101 12.6115 15.906 12.6114 15.8008C12.6115 15.6956 12.5908 15.5914 12.5506 15.4942C12.5104 15.397 12.4514 15.3087 12.377 15.2343C12.3027 15.1599 12.2144 15.101 12.1171 15.0607C12.0199 15.0205 11.9158 14.9999 11.8106 15H11.8008ZM11.8008 7C11.6956 6.9999 11.5914 7.02054 11.4942 7.06075C11.397 7.10095 11.3087 7.15993 11.2343 7.23431C11.1599 7.30869 11.101 7.39701 11.0607 7.49421C11.0205 7.59142 10.9999 7.69559 11 7.80078V11.8008C10.9999 11.906 11.0205 12.0101 11.0607 12.1073C11.101 12.2046 11.1599 12.2929 11.2343 12.3672C11.3087 12.4416 11.397 12.5006 11.4942 12.5408C11.5914 12.581 11.6956 12.6017 11.8008 12.6016C12.0129 12.6013 12.2162 12.5167 12.366 12.3666C12.5158 12.2164 12.5998 12.0129 12.5996 11.8008V7.80078C12.5998 7.58868 12.5158 7.38517 12.366 7.235C12.2162 7.08484 12.0129 7.00031 11.8008 7V7ZM11.8008 1C5.84558 1 1 5.84558 1 11.8008C1 17.7559 5.84557 22.6016 11.8008 22.6016C17.7559 22.6016 22.5996 17.7559 22.5996 11.8008C22.5996 5.84558 17.7559 1 11.8008 1ZM11.8008 2.60156C16.8912 2.60156 21 6.71029 21 11.8008C21 16.8912 16.8912 21 11.8008 21C6.71029 21 2.59961 16.8912 2.59961 11.8008C2.59961 6.71028 6.71028 2.60156 11.8008 2.60156V2.60156Z" fill="black"/>
</svg>
