
<svg viewBox="0 0 38 27" fill="none" xmlns="http://www.w3.org/2000/svg">
<path opacity="0.999" d="M34.2223 26.9854H3.49568C1.56555 26.9854 0.000976562 25.3957 0.000976562 23.4346V3.55072C0.000976562 1.58966 1.56555 0 3.49568 0H34.2223C36.1523 0 37.717 1.58966 37.717 3.55072V23.4346C37.717 25.3957 36.1523 26.9854 34.2223 26.9854Z" fill="#006FCF"/>
<path opacity="0.999" d="M37.6902 21.6659V15.3888H37.3603H14.3096L13.7134 16.2459L13.1238 15.3888H6.40003V22.078H13.0981L13.6818 21.2079L14.2844 22.078H18.477V20.6347H18.4328C18.9542 20.6347 19.428 20.5389 19.8476 20.3807V22.078H22.7715V21.1052L23.5073 22.078H36.1934C36.5584 22.078 36.9006 22.015 37.2076 21.9019C37.3802 21.8382 37.5419 21.7588 37.6902 21.6659ZM33.0727 13.087H35.9018V6.39709H32.8822V7.46692L32.2102 6.39709H29.5778V7.74983L28.9879 6.39709H24.6362C24.4273 6.39709 24.2232 6.41266 24.0256 6.44403C23.8573 6.47088 23.6936 6.50915 23.5357 6.55928C23.4117 6.59861 23.2911 6.64518 23.1749 6.69912C23.0387 6.76281 22.9082 6.83624 22.7845 6.92012V6.6901V6.39709H8.5824L8.19567 7.56364L7.80205 6.39709H4.4976V7.76408L3.9012 6.39709H1.20544L0 9.2586V12.4914V13.087H1.90932L2.26459 12.1267H2.93701L3.29871 13.087H17.9893V12.1139L18.7251 13.087H22.7845V12.8728V12.6004C22.8894 12.6693 22.9982 12.7294 23.1089 12.7821C23.2199 12.8342 23.3333 12.8788 23.448 12.9163C23.5899 12.9634 23.7341 12.9989 23.8776 13.0253C24.1119 13.0684 24.345 13.087 24.5668 13.087H26.9961L27.3513 12.1267H28.0236L28.3851 13.087H32.4575V12.0943L33.0727 13.087Z" fill="#F7F7F7"/>
<path opacity="0.999" d="M10.9862 17.3929V16.4776H7.43408V20.9892H10.9862V20.0801H8.50002V19.1718H10.9293V18.2694H8.50002V17.3929H10.9862ZM14.6843 20.9892H16.0163L14.2338 18.7141L16.0037 16.4776H14.71L13.6186 17.9084L12.5342 16.4776H11.2019L12.9781 18.7332L11.2082 20.9892H12.5023L13.5934 19.5389L14.6843 20.9892ZM16.251 16.4776V20.9892H17.3167V19.4999H18.6551C19.6258 19.4999 20.2279 18.8557 20.2279 17.9856C20.2279 17.0902 19.6385 16.4776 18.6931 16.4776H16.251ZM19.1562 17.992C19.1562 18.2954 18.966 18.5463 18.5917 18.5463H17.3167V17.4382H18.5917C18.966 17.4382 19.1562 17.6829 19.1562 17.992ZM21.8711 19.3648H22.3723L23.6979 20.9892H25.0235L23.5458 19.3262C24.3008 19.1843 24.7509 18.6302 24.7509 17.9084C24.7509 17.0641 24.1611 16.4776 23.2159 16.4776H20.8055V20.9892H21.8711V19.3648ZM23.1208 17.3993C23.5012 17.3993 23.7044 17.6506 23.7044 17.9602C23.7044 18.2694 23.5012 18.514 23.1208 18.514H21.8711V17.3993H23.1208ZM29.0706 17.3929V16.4776H25.5185V20.9892H29.0706V20.0801H26.5841V19.1718H29.0134V18.2694H26.5841V17.3929H29.0706ZM31.9946 20.0868H29.7177V20.9892H31.9628C32.9209 20.9892 33.4919 20.3962 33.4919 19.5518C33.4919 18.746 32.9781 18.2759 32.1151 18.2759H31.0875C30.8337 18.2759 30.6563 18.1082 30.6563 17.844C30.6563 17.5732 30.8337 17.3929 31.0875 17.3929H33.0157L33.4093 16.4776H31.119C30.1613 16.4776 29.5904 17.0707 29.5904 17.8826C29.5904 18.7141 30.1298 19.1909 30.9735 19.1909H31.9946C32.2481 19.1909 32.4321 19.3583 32.4321 19.6295C32.4321 19.9061 32.2481 20.0868 31.9946 20.0868ZM36.2191 20.0868H33.9419V20.9892H36.187C37.1454 20.9892 37.7161 20.3962 37.7161 19.5518C37.7161 18.746 37.2023 18.2759 36.3397 18.2759H35.3121C35.058 18.2759 34.8809 18.1082 34.8809 17.844C34.8809 17.5732 35.058 17.3929 35.3121 17.3929H37.2399L37.6339 16.4776H35.3437C34.3856 16.4776 33.8149 17.0707 33.8149 17.8826C33.8149 18.7141 34.3543 19.1909 35.1981 19.1909H36.2191C36.4726 19.1909 36.6566 19.3583 36.6566 19.6295C36.6566 19.9061 36.4726 20.0868 36.2191 20.0868Z" fill="#006FCF"/>
<path opacity="0.999" d="M4.02163 11.9977H5.22053L3.32384 7.48611H1.92216L0.019043 11.9977H1.15456L1.52901 11.0309H3.6411L4.02163 11.9977ZM2.25825 9.16858L2.58195 8.32425L2.9053 9.16858L3.29858 10.1674H1.87153L2.25825 9.16858ZM6.50198 8.91728L6.47626 7.69916L7.70708 11.9977H8.67126L9.90175 7.72494L9.8764 8.91061V11.9977H10.9101V7.48611H9.03266L8.18902 10.6829L7.33919 7.48611H5.46788V11.9977H6.502L6.50198 8.91728ZM15.3378 8.40148V7.48611H11.7857V11.9977H15.3378V11.0761H12.8513V10.1803H15.2806V9.27819H12.8513V8.40148H15.3378ZM17.1833 10.3738H17.6846L19.0104 11.9977H20.3361L18.8581 10.3349C19.6131 10.1931 20.0635 9.63874 20.0635 8.91728C20.0635 8.07295 19.4734 7.48611 18.5282 7.48611H16.1178V11.9977H17.1833V10.3738ZM18.4331 8.40814C18.8135 8.40814 19.0167 8.65944 19.0167 8.96879C19.0167 9.27819 18.8135 9.52289 18.4331 9.52289H17.1833V8.40814H18.4331ZM20.6722 11.9977H21.7379V10.0121V7.48611H20.6722V9.98637V11.9977ZM24.4591 11.9977H24.5162L24.9536 11.0375H24.6303C23.9007 11.0375 23.4694 10.5735 23.4694 9.77455V9.71012C23.4694 8.99445 23.8562 8.45958 24.6176 8.45958H25.7719V7.48611H24.5289C23.1588 7.48611 22.4102 8.42097 22.4102 9.70344V9.7807C22.4102 11.1213 23.1778 11.9914 24.4591 11.9977ZM29.1084 11.9977H30.3069L28.411 7.48611H27.0085L25.1061 11.9977H26.2413L26.6156 11.0309H28.7278L29.1084 11.9977ZM27.3452 9.16858L27.6687 8.32425L27.9917 9.16858L28.3855 10.1674H26.9582L27.3452 9.16858ZM31.5948 9.29735L31.5822 8.92352L31.8041 9.29735L33.5039 11.9977H34.7475V7.48611H33.7074V10.0964L33.7199 10.4316L33.5234 10.0964L31.861 7.48611H30.5549V11.9977H31.5948V9.29735Z" fill="#006FCF"/>
</svg>
