<svg viewBox="0 0 24 24" fill="none" xmlns="http://www.w3.org/2000/svg">
<path d="M11.7793 4.00023C11.5838 4.00521 11.3969 4.08164 11.2539 4.21507C11.1769 4.28662 11.1148 4.37263 11.0711 4.46819C11.0274 4.56375 11.0029 4.66698 10.9991 4.772C10.9953 4.87702 11.0122 4.98175 11.0489 5.08023C11.0856 5.17871 11.1413 5.26899 11.2129 5.34593L16.9609 11.5178H4.79883C4.58706 11.5181 4.38406 11.6024 4.23431 11.7521C4.08457 11.9019 4.00031 12.1049 4 12.3166C3.99979 12.5287 4.08383 12.7322 4.23362 12.8824C4.38342 13.0326 4.58672 13.1171 4.79883 13.1174H16.959L11.2129 19.2893C11.1413 19.3662 11.0856 19.4565 11.0489 19.555C11.0122 19.6535 10.9953 19.7582 10.9991 19.8632C11.0029 19.9682 11.0274 20.0715 11.0711 20.167C11.1148 20.2626 11.1769 20.3486 11.2539 20.4201C11.3308 20.4917 11.4211 20.5474 11.5196 20.5841C11.6181 20.6208 11.7228 20.6377 11.8278 20.6339C11.9329 20.6301 12.0361 20.6056 12.1317 20.5619C12.2272 20.5182 12.3132 20.4561 12.3848 20.3791L19.3848 12.8635C19.3894 12.8584 19.394 12.8531 19.3984 12.8479C19.3991 12.8466 19.3998 12.8453 19.4004 12.844C19.4162 12.8264 19.4312 12.8082 19.4454 12.7893C19.46 12.7691 19.4737 12.7482 19.4864 12.7268C19.4991 12.7052 19.5109 12.683 19.5215 12.6604C19.5324 12.6381 19.5421 12.6152 19.5508 12.592C19.5573 12.5746 19.5632 12.5571 19.5684 12.5393C19.5705 12.5328 19.5724 12.5263 19.5743 12.5198C19.5788 12.5023 19.5827 12.4847 19.586 12.467C19.5861 12.4644 19.5861 12.4618 19.586 12.4592C19.5902 12.4379 19.5935 12.4164 19.5958 12.3948C19.5958 12.3935 19.5958 12.3922 19.5958 12.3909C19.5966 12.3844 19.5973 12.3779 19.5978 12.3713C19.5991 12.3531 19.5998 12.3349 19.5998 12.3166C19.5995 12.2163 19.5803 12.1169 19.5432 12.0237C19.5247 11.9767 19.5018 11.9316 19.4748 11.8889C19.4486 11.8472 19.4185 11.8079 19.385 11.7717L19.383 11.7698L12.385 4.2561C12.3079 4.17298 12.214 4.10718 12.1096 4.06307C12.0052 4.01895 11.8926 3.99753 11.7793 4.00023V4.00023Z" fill="black"/>
</svg>
