<svg viewBox="0 0 24 24" fill="none" xmlns="http://www.w3.org/2000/svg">
<path d="M11.7988 4C11.6892 4.00034 11.5807 4.02323 11.4803 4.06724C11.3798 4.11126 11.2895 4.17546 11.2149 4.25586L4.21486 11.7715C4.2109 11.776 4.207 11.7806 4.20314 11.7852C4.20183 11.7871 4.20053 11.7891 4.19923 11.7911C4.18346 11.8086 4.16847 11.8269 4.15431 11.8457C4.13967 11.8659 4.12598 11.8868 4.11329 11.9082C4.10054 11.9298 4.08881 11.952 4.07814 11.9747C4.06732 11.997 4.05754 12.0198 4.04884 12.043C4.04158 12.0623 4.03506 12.0818 4.02931 12.1016C4.02493 12.1171 4.02102 12.1327 4.01759 12.1485C4.01613 12.1576 4.01483 12.1667 4.01368 12.1758C4.00955 12.1972 4.00629 12.2187 4.00391 12.2403C4.0039 12.2422 4.0039 12.2442 4.00391 12.2462C4.00158 12.2695 4.00027 12.293 4 12.3165C4 12.3171 4 12.3178 4 12.3185C4.00021 12.3426 4.00152 12.3667 4.00391 12.3907C4.00391 12.3914 4.00391 12.3921 4.00391 12.3927C4.00601 12.4176 4.00927 12.4424 4.01368 12.467C4.01368 12.4676 4.01368 12.4683 4.01368 12.469C4.01847 12.4927 4.02434 12.5161 4.03126 12.5393C4.03372 12.5478 4.03632 12.5562 4.03907 12.5647C4.04383 12.5798 4.04904 12.5948 4.05469 12.6096C4.05534 12.6103 4.05599 12.6109 4.05664 12.6116C4.07461 12.6578 4.09684 12.7023 4.12305 12.7444C4.1237 12.7451 4.12435 12.7457 4.125 12.7464C4.15127 12.7881 4.18135 12.8274 4.21484 12.8636L11.2148 20.3792C11.2864 20.4562 11.3724 20.5183 11.468 20.562C11.5635 20.6057 11.6668 20.6302 11.7718 20.634C11.8768 20.6378 11.9815 20.6209 12.08 20.5842C12.1785 20.5475 12.2688 20.4918 12.3457 20.4202C12.4225 20.3486 12.4845 20.2624 12.528 20.1668C12.5716 20.0712 12.5959 19.9679 12.5995 19.8629C12.6031 19.7579 12.586 19.6532 12.5492 19.5548C12.5123 19.4564 12.4565 19.3662 12.3848 19.2894L6.63869 13.1172H18.8008C19.0129 13.1169 19.2162 13.0323 19.366 12.8822C19.5158 12.732 19.5998 12.5285 19.5996 12.3164C19.5993 12.1046 19.5151 11.9016 19.3653 11.7519C19.2156 11.6022 19.0126 11.5179 18.8008 11.5176H6.63674L12.3848 5.3457C12.4565 5.26889 12.5124 5.17871 12.5492 5.0803C12.586 4.9819 12.6031 4.8772 12.5995 4.77218C12.5959 4.66717 12.5716 4.5639 12.5281 4.46827C12.4845 4.37264 12.4226 4.28653 12.3457 4.21484C12.1973 4.07646 12.0018 3.99966 11.7988 4V4Z" fill="black"/>
</svg>
