<svg viewBox="0 0 24 24" fill="none" xmlns="http://www.w3.org/2000/svg">
<path d="M11.8002 4C11.695 3.9999 11.5908 4.02054 11.4936 4.06075C11.3964 4.10095 11.3081 4.15993 11.2337 4.23431C11.1593 4.30869 11.1003 4.39701 11.0601 4.49421C11.0199 4.59142 10.9993 4.69559 10.9994 4.80078V17.8027L5.38415 11.7715C5.30693 11.6887 5.21304 11.6233 5.10866 11.5796C5.00429 11.5358 4.89182 11.5147 4.77868 11.5176C4.58318 11.5226 4.39628 11.599 4.25329 11.7324C4.09871 11.8771 4.0078 12.0772 4.00048 12.2888C3.99316 12.5004 4.07002 12.7063 4.21423 12.8613L11.1908 20.3555L11.2142 20.3789C11.2891 20.4596 11.3797 20.5239 11.4805 20.5679C11.5813 20.6119 11.6902 20.6347 11.8002 20.6348C11.8067 20.6342 11.8132 20.6335 11.8197 20.6328C11.8703 20.6317 11.9206 20.6258 11.9701 20.6152C11.9945 20.6098 12.0186 20.6033 12.0424 20.5957C12.0662 20.5877 12.0897 20.5785 12.1127 20.5683C12.1292 20.5617 12.1455 20.5545 12.1615 20.5468C12.1681 20.5437 12.1746 20.5404 12.181 20.537C12.1869 20.5332 12.1928 20.5293 12.1986 20.5253C12.2139 20.5167 12.2289 20.5076 12.2435 20.498C12.2644 20.484 12.2846 20.469 12.3041 20.4531C12.3238 20.437 12.3427 20.4201 12.3607 20.4023C12.3647 20.3984 12.3686 20.3945 12.3724 20.3906C12.3811 20.3816 12.3896 20.3725 12.3978 20.3632L19.3842 12.8613C19.5284 12.7062 19.6052 12.5004 19.5979 12.2887C19.5906 12.0771 19.4997 11.8771 19.3451 11.7324C19.2683 11.6607 19.1781 11.6048 19.0797 11.5679C18.9813 11.5311 18.8766 11.514 18.7716 11.5176C18.6666 11.5213 18.5633 11.5455 18.4677 11.5891C18.372 11.6326 18.2859 11.6946 18.2142 11.7714L12.599 17.8007V4.80078C12.5992 4.58867 12.5152 4.38517 12.3654 4.235C12.2156 4.08484 12.0123 4.00031 11.8002 4V4Z" fill="black"/>
</svg>
