<svg viewBox="0 0 24 24" fill="none" xmlns="http://www.w3.org/2000/svg">
<path d="M11.7807 4.00006C11.7624 4.00074 11.7442 4.00204 11.726 4.00397C11.7195 4.00454 11.713 4.00519 11.7065 4.00592C11.7006 4.00651 11.6948 4.00716 11.6889 4.00787C11.6699 4.01045 11.651 4.01371 11.6323 4.01764C11.6264 4.01953 11.6205 4.02148 11.6147 4.0235C11.5989 4.02693 11.5833 4.03084 11.5678 4.03522C11.5567 4.03824 11.5456 4.04149 11.5346 4.04499C11.5221 4.04924 11.5097 4.0538 11.4975 4.05866C11.489 4.06242 11.4805 4.06633 11.4721 4.07038C11.4549 4.07824 11.4379 4.08671 11.4213 4.09577C11.402 4.10542 11.3831 4.11584 11.3647 4.12702C11.3561 4.13336 11.3476 4.13987 11.3393 4.14655C11.3246 4.15649 11.3103 4.16691 11.2963 4.1778C11.2957 4.17845 11.295 4.1791 11.2943 4.17975C11.2768 4.194 11.2598 4.20899 11.2435 4.22467C11.2335 4.23418 11.2238 4.24395 11.2142 4.25397C11.2096 4.25912 11.2051 4.26433 11.2006 4.2696L4.21429 11.7715C4.14271 11.8485 4.08699 11.9388 4.05031 12.0372C4.01364 12.1357 3.99672 12.2405 4.00053 12.3455C4.00433 12.4505 4.0288 12.5537 4.07251 12.6493C4.11623 12.7448 4.17834 12.8309 4.25531 12.9024C4.33225 12.974 4.42253 13.0297 4.52101 13.0664C4.61948 13.1031 4.72422 13.12 4.82924 13.1162C4.93425 13.1124 5.03749 13.0879 5.13305 13.0442C5.22861 13.0005 5.31462 12.9383 5.38617 12.8614L10.9995 6.83404V19.834C10.9998 20.0461 11.0843 20.2494 11.2345 20.3992C11.3846 20.549 11.5881 20.6331 11.8002 20.6329C12.0123 20.6331 12.2158 20.549 12.366 20.3992C12.5162 20.2494 12.6007 20.0462 12.601 19.834V6.83404L18.2143 12.8614C18.2858 12.9384 18.3719 13.0005 18.4674 13.0442C18.563 13.0879 18.6662 13.1124 18.7712 13.1162C18.8762 13.12 18.981 13.1031 19.0795 13.0664C19.1779 13.0297 19.2682 12.974 19.3452 12.9024C19.4221 12.8309 19.4842 12.7448 19.528 12.6493C19.5717 12.5537 19.5961 12.4505 19.5999 12.3455C19.6037 12.2405 19.5868 12.1357 19.5502 12.0372C19.5135 11.9388 19.4578 11.8485 19.3862 11.7715L12.3862 4.25397C12.2656 4.12452 12.1056 4.03866 11.9311 4.00983C11.9304 4.00983 11.9298 4.00983 11.9291 4.00983C11.8865 4.0031 11.8434 3.99983 11.8002 4.00006C11.7937 3.99998 11.7872 3.99998 11.7807 4.00006L11.7807 4.00006Z" fill="black"/>
</svg>
