<svg viewBox="0 0 36 36" fill="none" xmlns="http://www.w3.org/2000/svg">
<path d="M30.3204 0H5.67964C2.54286 0 0 2.54286 0 5.67964V30.3204C0 33.4571 2.54286 36 5.67964 36H30.3204C33.4571 36 36 33.4571 36 30.3204V5.67964C36 2.54286 33.4571 0 30.3204 0Z" fill="#0060AF"/>
<path d="M10.9631 12.1741C12.873 12.1842 13.9523 13.1615 13.9523 14.5731C13.9523 15.8747 12.8141 17.0266 11.5645 17.6223C12.851 18.0682 12.9622 19.1625 12.9622 19.9365C12.9622 21.8071 10.9714 23.5547 8.38345 23.5547H2.73929L4.94088 15.5412L4.03655 15.5366L5.88521 12.1744C5.88521 12.1744 9.41001 12.1643 10.9631 12.1744V12.1741ZM9.08931 16.7883C9.48437 16.7883 10.182 16.694 10.3563 15.9732C10.5475 15.1907 9.89281 15.1697 9.57879 15.1697L8.45673 15.165L8.06542 16.7882L9.08931 16.7883ZM7.50291 18.7994L6.98628 20.6698H8.30761C8.82732 20.6698 9.53573 20.4264 9.70933 19.8178C9.88078 19.2075 9.38555 18.7994 8.86771 18.7994H7.50291ZM32.7425 12.1741L33.2607 23.5547H29.404L29.4016 21.603H26.7717L25.9063 23.5547H21.7235L26.0964 15.428L25.1104 15.422L26.9838 12.1741H32.7425ZM29.3767 15.6557L27.8899 18.9659H29.4216L29.3767 15.6557ZM25.1912 13.331L23.3612 16.4623C22.6704 15.9335 21.8271 15.5444 20.7509 15.5444C18.2041 15.5444 17.1695 17.3339 17.1695 18.5944C17.1695 19.5303 17.8194 20.9107 20.0855 20.9107C21.0368 20.9107 22.3889 20.2871 22.7781 20.0032L20.9682 23.636C20.1054 23.7983 19.8219 23.8989 19.0917 23.9202C15.0357 24.0343 13.3969 21.6855 13.3979 19.2856C13.4008 16.1127 16.393 12.2542 21.3537 12.2542C21.6576 12.2542 22.0294 12.3534 22.3473 12.4632L22.6687 12.0758" fill="white"/>
</svg>
