<svg viewBox="0 0 24 24" fill="none" xmlns="http://www.w3.org/2000/svg">
<path d="M17.8008 9C17.6956 8.9999 17.5914 9.02054 17.4942 9.06075C17.397 9.10095 17.3087 9.15993 17.2343 9.23431C17.1599 9.30869 17.101 9.39701 17.0607 9.49421C17.0205 9.59141 16.9999 9.69559 17 9.80078V19.8008C16.9999 19.906 17.0205 20.0101 17.0607 20.1073C17.101 20.2045 17.1599 20.2929 17.2343 20.3672C17.3087 20.4416 17.397 20.5006 17.4942 20.5408C17.5914 20.581 17.6956 20.6017 17.8008 20.6016C17.906 20.6017 18.0101 20.581 18.1073 20.5408C18.2045 20.5006 18.2929 20.4416 18.3672 20.3672C18.4416 20.2929 18.5006 20.2045 18.5408 20.1073C18.581 20.0101 18.6017 19.906 18.6016 19.8008V9.80078C18.6017 9.69559 18.581 9.59141 18.5408 9.49421C18.5006 9.39701 18.4416 9.30869 18.3672 9.23431C18.2929 9.15993 18.2045 9.10095 18.1073 9.06075C18.0101 9.02054 17.906 8.9999 17.8008 9V9Z" fill="black"/>
<path d="M11.8008 3C11.6956 2.9999 11.5914 3.02054 11.4942 3.06075C11.397 3.10095 11.3087 3.15993 11.2343 3.23431C11.1599 3.30869 11.101 3.39701 11.0607 3.49421C11.0205 3.59142 10.9999 3.69559 11 3.80078V19.8008C10.9999 19.906 11.0205 20.0101 11.0607 20.1073C11.101 20.2045 11.1599 20.2929 11.2343 20.3672C11.3087 20.4416 11.397 20.5006 11.4942 20.5408C11.5914 20.581 11.6956 20.6017 11.8008 20.6016C11.906 20.6017 12.0101 20.581 12.1073 20.5408C12.2045 20.5006 12.2929 20.4416 12.3672 20.3672C12.4416 20.2929 12.5006 20.2045 12.5408 20.1073C12.581 20.0101 12.6017 19.906 12.6016 19.8008V3.80078C12.6017 3.69559 12.581 3.59142 12.5408 3.49421C12.5006 3.39701 12.4416 3.30869 12.3672 3.23431C12.2929 3.15993 12.2045 3.10095 12.1073 3.06075C12.0101 3.02054 11.906 2.9999 11.8008 3V3Z" fill="black"/>
<path d="M5.80078 12.9998C5.69559 12.9997 5.59142 13.0203 5.49421 13.0605C5.39701 13.1007 5.30869 13.1597 5.23431 13.2341C5.15993 13.3085 5.10095 13.3968 5.06075 13.494C5.02054 13.5912 4.9999 13.6954 5 13.8006V19.8006C4.9999 19.9058 5.02054 20.0099 5.06075 20.1071C5.10095 20.2043 5.15993 20.2927 5.23431 20.367C5.30869 20.4414 5.39701 20.5004 5.49421 20.5406C5.59142 20.5808 5.69559 20.6014 5.80078 20.6013C5.90597 20.6014 6.01015 20.5808 6.10735 20.5406C6.20455 20.5004 6.29287 20.4414 6.36725 20.367C6.44163 20.2927 6.50061 20.2043 6.54081 20.1071C6.58102 20.0099 6.60166 19.9058 6.60156 19.8006V13.8006C6.60166 13.6954 6.58102 13.5912 6.54081 13.494C6.50061 13.3968 6.44163 13.3085 6.36725 13.2341C6.29287 13.1597 6.20455 13.1007 6.10735 13.0605C6.01015 13.0203 5.90597 12.9997 5.80078 12.9998V12.9998Z" fill="black"/>
</svg>
