<svg viewBox="0 0 24 24" xmlns="http://www.w3.org/2000/svg">
<path d="M11.8008 1C11.3108 1 10.829 1.13066 10.4043 1.375L3.4043 5.375C3.40299 5.37565 3.40169 5.3763 3.40039 5.37695C2.9752 5.62244 2.62266 5.97532 2.37695 6.40039C2.13124 6.82547 2.0005 7.30786 2 7.79883V15.7988C2.0005 16.2898 2.13131 16.7722 2.37695 17.1973C2.62264 17.6222 2.97504 17.9772 3.40039 18.2227C3.40169 18.2227 3.403 18.2227 3.4043 18.2227L10.4043 22.2227C10.8291 22.4671 11.3108 22.5977 11.8008 22.5977C12.2922 22.5977 12.7755 22.4666 13.2012 22.2207L20.1973 18.2227C20.1986 18.2227 20.1999 18.2227 20.2012 18.2227C20.6264 17.9772 20.9789 17.6223 21.2246 17.1973C21.4705 16.7721 21.601 16.2897 21.6016 15.7988V7.79883C21.601 7.30804 21.4705 6.82562 21.2246 6.40039C20.9789 5.97527 20.6263 5.62244 20.2012 5.37695C20.1999 5.3763 20.1986 5.37565 20.1973 5.375L13.2012 1.37695C12.7756 1.1312 12.2923 1 11.8008 1ZM11.8008 2.60156C12.0115 2.60156 12.218 2.65641 12.4004 2.76172C12.4017 2.76237 12.403 2.76302 12.4043 2.76367L19.1621 6.625L16.3047 8.2793L8.94727 4.04883L11.1973 2.76367C11.1986 2.76303 11.1999 2.76238 11.2012 2.76172C11.3836 2.65641 11.5901 2.60156 11.8008 2.60156V2.60156ZM7.33789 4.96875L14.7051 9.20508L11.8008 10.8848L4.42773 6.63281L7.33789 4.96875ZM20 7.99023V15.7988C19.9998 16.0096 19.9452 16.2143 19.8398 16.3965C19.7345 16.5787 19.5825 16.7308 19.4004 16.8359L12.5957 20.7246V12.2734L20 7.99023ZM3.60156 8.00195L11.0059 12.2734V20.7246L4.20117 16.8359L4.19726 16.8339C4.01676 16.729 3.86637 16.5775 3.76172 16.3965C3.65633 16.2141 3.60178 16.0094 3.60156 15.7988V8.00195Z" fill="#DBDAE2"/>
</svg>
