<svg viewBox="0 0 24 24" fill="none" xmlns="http://www.w3.org/2000/svg">
<path d="M7.79883 1C7.58672 1.00031 7.38342 1.08484 7.23362 1.23501C7.08383 1.38517 6.99979 1.58868 7 1.80078V3H4.79883C3.26191 3 2 4.26386 2 5.80078V19.8008C2 21.3377 3.26192 22.6016 4.79883 22.6016H18.7988C20.3358 22.6016 21.5996 21.3377 21.5996 19.8008V5.80078C21.5996 4.26387 20.3358 3 18.7988 3H16.5996V1.80078C16.5997 1.69559 16.5791 1.59142 16.5389 1.49421C16.4987 1.39701 16.4397 1.30869 16.3653 1.23431C16.2909 1.15993 16.2026 1.10095 16.1054 1.06075C16.0082 1.02054 15.904 0.999898 15.7988 1C15.5867 1.00031 15.3834 1.08484 15.2336 1.23501C15.0838 1.38517 14.9998 1.58868 15 1.80078V3H8.59961V1.80078C8.59971 1.69559 8.57907 1.59142 8.53886 1.49421C8.49866 1.39701 8.43968 1.30869 8.3653 1.23431C8.29092 1.15993 8.2026 1.10095 8.1054 1.06075C8.00819 1.02054 7.90402 0.999898 7.79883 1V1ZM4.79883 4.60156H7V5.80078C6.99979 6.01289 7.08383 6.21639 7.23362 6.36656C7.38342 6.51672 7.58672 6.60125 7.79883 6.60156C7.90402 6.60167 8.00819 6.58102 8.1054 6.54082C8.2026 6.50061 8.29092 6.44163 8.3653 6.36725C8.43968 6.29287 8.49866 6.20455 8.53886 6.10735C8.57907 6.01015 8.59971 5.90597 8.59961 5.80078V4.60156H15V5.80078C14.9998 6.01289 15.0838 6.21639 15.2336 6.36656C15.3834 6.51672 15.5867 6.60125 15.7988 6.60156C15.904 6.60167 16.0082 6.58102 16.1054 6.54082C16.2026 6.50061 16.2909 6.44163 16.3653 6.36725C16.4397 6.29287 16.4987 6.20455 16.5389 6.10735C16.5791 6.01015 16.5997 5.90597 16.5996 5.80078V4.60156H18.7988C19.4711 4.60156 20 5.12855 20 5.80078V9H3.59961V5.80078C3.59961 5.12856 4.12661 4.60156 4.79883 4.60156V4.60156ZM3.59961 10.6016H20V19.8008C20 20.4731 19.4711 21 18.7988 21H4.79883C4.1266 21 3.59961 20.473 3.59961 19.8008V10.6016Z" fill="black"/>
</svg>
