<svg viewBox="0 0 24 24" xmlns="http://www.w3.org/2000/svg">
<path d="M2.80078 3C1.26386 3 0 4.26386 0 5.80078V7.80078V17.8008C0 19.3377 1.26387 20.6016 2.80078 20.6016H20.8008C22.3377 20.6016 23.6016 19.3377 23.6016 17.8008V7.80078V5.80078C23.6016 4.26387 22.3377 3 20.8008 3H2.80078ZM2.80078 4.60156H20.8008C21.473 4.60156 22 5.12855 22 5.80078V7H1.60156V5.80078C1.60156 5.12856 2.12856 4.60156 2.80078 4.60156V4.60156ZM1.60156 8.60156H22V17.8008C22 18.4731 21.4731 19 20.8008 19H2.80078C2.12855 19 1.60156 18.473 1.60156 17.8008V8.60156Z" fill="#DBDAE2"/>
<path d="M4.80078 12C4.69559 11.9999 4.59142 12.0205 4.49421 12.0607C4.39701 12.101 4.30869 12.1599 4.23431 12.2343C4.15993 12.3087 4.10095 12.397 4.06075 12.4942C4.02054 12.5914 3.9999 12.6956 4 12.8008C3.9999 12.906 4.02054 13.0101 4.06075 13.1073C4.10095 13.2046 4.15993 13.2929 4.23431 13.3672C4.30869 13.4416 4.39701 13.5006 4.49421 13.5408C4.59142 13.581 4.69559 13.6017 4.80078 13.6016H7.80078C7.90597 13.6017 8.01015 13.581 8.10735 13.5408C8.20455 13.5006 8.29287 13.4416 8.36725 13.3672C8.44163 13.2929 8.50061 13.2046 8.54082 13.1073C8.58102 13.0101 8.60167 12.906 8.60156 12.8008C8.60167 12.6956 8.58102 12.5914 8.54082 12.4942C8.50061 12.397 8.44163 12.3087 8.36725 12.2343C8.29287 12.1599 8.20455 12.101 8.10735 12.0607C8.01015 12.0205 7.90597 11.9999 7.80078 12H4.80078Z" fill="black"/>
</svg>
