<svg viewBox="0 0 24 24" fill="none" xmlns="http://www.w3.org/2000/svg">
<path d="M19.7526 6.00144C19.5575 6.01308 19.3734 6.09576 19.235 6.23387L8.80144 16.6675L4.3659 12.2339C4.21589 12.084 4.01251 11.9998 3.80047 11.9998C3.58842 11.9998 3.38504 12.084 3.23504 12.2339C3.16053 12.3082 3.10142 12.3965 3.06109 12.4937C3.02076 12.5908 3 12.695 3 12.8003C3 12.9055 3.02076 13.0097 3.06109 13.1069C3.10142 13.2041 3.16053 13.2924 3.23504 13.3667L8.23504 18.3667C8.38505 18.5165 8.58842 18.6007 8.80047 18.6007C9.01251 18.6007 9.21588 18.5165 9.3659 18.3667L20.3659 7.36668C20.4404 7.29237 20.4995 7.20408 20.5398 7.10689C20.5802 7.0097 20.6009 6.9055 20.6009 6.80027C20.6009 6.69504 20.5802 6.59085 20.5398 6.49365C20.4995 6.39646 20.4404 6.30818 20.3659 6.23387C20.2859 6.15399 20.1899 6.09198 20.0842 6.05192C19.9785 6.01186 19.8655 5.99465 19.7526 6.00144Z" fill="black"/>
</svg>
