<svg viewBox="0 0 24 24" fill="none" xmlns="http://www.w3.org/2000/svg">
<path d="M8.82586 5.00041C8.71643 4.9969 8.60744 5.01589 8.50564 5.05621C8.40385 5.09652 8.31141 5.1573 8.23406 5.23479C8.08419 5.38479 8 5.58817 8 5.80022C8 6.01226 8.08419 6.21564 8.23406 6.36565L13.6677 11.8012L8.23406 17.2348C8.08419 17.3848 8 17.5882 8 17.8002C8 18.0123 8.08419 18.2156 8.23406 18.3656C8.38407 18.5155 8.58744 18.5997 8.79949 18.5997C9.01154 18.5997 9.21491 18.5155 9.36492 18.3656L15.3649 12.3656C15.5148 12.2156 15.5989 12.0123 15.5989 11.8002C15.5989 11.5882 15.5148 11.3848 15.3649 11.2348L9.36492 5.23479C9.22148 5.09109 9.02877 5.0073 8.82586 5.00041V5.00041Z" fill="black"/>
</svg>
