<svg viewBox="0 0 24 24" fill="none" xmlns="http://www.w3.org/2000/svg">
<path d="M5.75261 8.00261C5.55749 8.01425 5.37337 8.09693 5.23504 8.23504C5.16053 8.30935 5.10142 8.39763 5.06109 8.49482C5.02076 8.59202 5 8.69621 5 8.80144C5 8.90667 5.02076 9.01087 5.06109 9.10806C5.10142 9.20525 5.16053 9.29354 5.23504 9.36785L11.235 15.3678C11.3094 15.4423 11.3976 15.5014 11.4948 15.5418C11.592 15.5821 11.6962 15.6029 11.8014 15.6029C11.9067 15.6029 12.0109 15.5821 12.1081 15.5418C12.2052 15.5014 12.2935 15.4423 12.3678 15.3678L18.3678 9.36785C18.4424 9.29354 18.5015 9.20525 18.5418 9.10806C18.5821 9.01087 18.6029 8.90667 18.6029 8.80144C18.6029 8.69621 18.5821 8.59202 18.5418 8.49482C18.5015 8.39763 18.4424 8.30935 18.3678 8.23504C18.2935 8.16053 18.2053 8.10142 18.1081 8.06109C18.0109 8.02076 17.9067 8 17.8014 8C17.6962 8 17.592 8.02076 17.4948 8.06109C17.3976 8.10142 17.3093 8.16053 17.235 8.23504L11.8014 13.6686L6.36785 8.23504C6.28763 8.15491 6.19129 8.09275 6.08522 8.05268C5.97915 8.01261 5.86578 7.99554 5.75261 8.00261V8.00261Z" fill="black"/>
</svg>
