<svg viewBox="0 0 24 24" fill="none" xmlns="http://www.w3.org/2000/svg">
<path d="M14.8258 5.00041C14.7164 4.9969 14.6074 5.01589 14.5056 5.05621C14.4038 5.09652 14.3114 5.1573 14.234 5.23479L8.23403 11.2348C8.08417 11.3848 8 11.5882 8 11.8002C8 12.0123 8.08417 12.2156 8.23403 12.3656L14.234 18.3656C14.384 18.5155 14.5874 18.5997 14.7995 18.5997C15.0115 18.5997 15.2149 18.5155 15.3649 18.3656C15.5148 18.2156 15.5989 18.0123 15.5989 17.8002C15.5989 17.5882 15.5148 17.3848 15.3649 17.2348L9.92934 11.8012L15.3649 6.36565C15.5148 6.21564 15.5989 6.01226 15.5989 5.80022C15.5989 5.58817 15.5148 5.38479 15.3649 5.23479C15.2214 5.09109 15.0287 5.0073 14.8258 5.00041V5.00041Z" fill="black"/>
</svg>
