<svg viewBox="0 0 24 24" fill="none" xmlns="http://www.w3.org/2000/svg">
<path d="M20 3C19.7348 3 19.4804 3.10536 19.2929 3.29289C19.1054 3.48043 19 3.73478 19 4V11C19 11.7961 18.684 12.5583 18.1211 13.1211C17.5583 13.684 16.7961 14 16 14H6.41408L9.70705 10.707C9.89454 10.5195 9.99987 10.2652 9.99987 10C9.99987 9.73482 9.89454 9.4805 9.70705 9.29297C9.52678 9.11243 9.28433 9.00763 9.02931 9C8.89309 8.99608 8.75751 9.02005 8.63089 9.07043C8.50427 9.12081 8.38928 9.19654 8.29299 9.29297L3.31252 14.2734L3.29299 14.293C3.28971 14.2962 3.28645 14.2995 3.28322 14.3027C3.26698 14.3198 3.25135 14.3373 3.23635 14.3555C3.2185 14.3769 3.20156 14.399 3.18556 14.4219C3.17182 14.4416 3.15879 14.4618 3.1465 14.4824C3.14049 14.4914 3.13463 14.5006 3.12892 14.5098C3.11856 14.5283 3.10879 14.5472 3.09963 14.5664C3.08827 14.5901 3.07784 14.6142 3.06838 14.6387C3.06705 14.6426 3.06575 14.6465 3.06447 14.6504C3.05592 14.6716 3.04811 14.6931 3.04103 14.7148C3.03822 14.7265 3.03561 14.7382 3.03322 14.75C3.02968 14.7636 3.02642 14.7773 3.02345 14.791C3.02062 14.8033 3.01801 14.8157 3.01564 14.8281C3.01273 14.8424 3.01012 14.8567 3.00783 14.8711C3.005 14.8951 3.00305 14.9192 3.00197 14.9434C3.00098 14.9583 3.00033 14.9733 3.00002 14.9883C2.99999 14.9922 2.99999 14.9961 3.00002 15C3.00052 15.0098 3.00118 15.0195 3.00197 15.0293C3.00239 15.0417 3.00304 15.054 3.00392 15.0664C3.00479 15.0834 3.0061 15.1003 3.00783 15.1172C3.00899 15.127 3.01029 15.1367 3.01174 15.1465C3.01531 15.172 3.01987 15.1975 3.02541 15.2227C3.03002 15.2423 3.03523 15.2619 3.04103 15.2812C3.04527 15.2957 3.04983 15.31 3.0547 15.3242C3.05597 15.3288 3.05728 15.3333 3.05861 15.3379C3.06748 15.3617 3.07725 15.3851 3.08791 15.4082C3.09815 15.4307 3.10923 15.4529 3.12111 15.4746C3.12553 15.4838 3.13009 15.4929 3.13478 15.502C3.14415 15.5172 3.15391 15.5322 3.16408 15.5469C3.16855 15.5541 3.1731 15.5613 3.17775 15.5684C3.18534 15.5796 3.19315 15.5907 3.20119 15.6016C3.20695 15.6088 3.21281 15.616 3.21877 15.623C3.23373 15.6418 3.24937 15.6601 3.26564 15.6777C3.27205 15.685 3.27856 15.6922 3.28517 15.6992C3.28776 15.7018 3.29037 15.7044 3.29299 15.707C3.30629 15.7204 3.31996 15.7335 3.334 15.7461L8.29299 20.707C8.48052 20.8945 8.73484 20.9998 9.00002 20.9998C9.2652 20.9998 9.51952 20.8945 9.70705 20.707C9.89454 20.5195 9.99987 20.2652 9.99987 20C9.99987 19.7348 9.89454 19.4805 9.70705 19.293L6.41408 16H16C17.3257 16 18.5978 15.4727 19.5352 14.5352C20.4727 13.5978 21 12.3257 21 11V4C21 3.73478 20.8947 3.48043 20.7071 3.29289C20.5196 3.10536 20.2652 3 20 3V3Z" fill="black"/>
</svg>
