<svg viewBox="0 0 24 24" fill="none" xmlns="http://www.w3.org/2000/svg">
<path d="M9.82606 8.00003C9.71663 7.99652 9.60764 8.01551 9.50585 8.05582C9.40405 8.09614 9.31162 8.15692 9.23426 8.2344C9.08439 8.38441 9.0002 8.58778 9.0002 8.79983C9.0002 9.01188 9.08439 9.21525 9.23426 9.36526L11.1698 11.2989L9.23426 13.2344C9.08439 13.3844 9.0002 13.5878 9.0002 13.7998C9.0002 14.0119 9.08439 14.2153 9.23426 14.3653C9.38427 14.5151 9.58764 14.5993 9.79969 14.5993C10.0117 14.5993 10.2151 14.5151 10.3651 14.3653L12.2987 12.4317L14.2343 14.3653C14.3843 14.5151 14.5876 14.5993 14.7997 14.5993C15.0117 14.5993 15.2151 14.5151 15.3651 14.3653C15.515 14.2153 15.5992 14.0119 15.5992 13.7998C15.5992 13.5878 15.515 13.3844 15.3651 13.2344L13.4315 11.2989L15.3651 9.36526C15.515 9.21525 15.5992 9.01188 15.5992 8.79983C15.5992 8.58778 15.515 8.38441 15.3651 8.2344C15.2217 8.0907 15.029 8.00691 14.8261 8.00003C14.7166 7.99652 14.6076 8.01551 14.5058 8.05582C14.4041 8.09614 14.3116 8.15692 14.2343 8.2344L12.2987 10.1699L10.3651 8.2344C10.2217 8.0907 10.029 8.00692 9.82606 8.00003V8.00003ZM12.2987 2.00003C10.8535 1.99657 9.42854 2.33478 8.13856 2.98635C6.59506 3.75834 5.29629 4.94433 4.38856 6.41214C3.48035 7.88073 3.00055 9.57215 2.99989 11.2989C2.99645 12.617 3.30992 13.906 3.8534 15.1035L2.0409 20.5469C1.99403 20.6878 1.9873 20.839 2.02146 20.9835C2.05562 21.128 2.12933 21.2602 2.23434 21.3652C2.33934 21.4702 2.4715 21.5439 2.61602 21.5781C2.76054 21.6122 2.91171 21.6055 3.05262 21.5586L8.49598 19.7442C9.69359 20.2877 10.9825 20.6031 12.3007 20.5996C14.0267 20.5986 15.7194 20.1169 17.1874 19.209C18.6549 18.3016 19.8412 17.0038 20.6132 15.461V15.459C21.2645 14.1688 21.6032 12.744 21.5995 11.2988V10.8008C21.5993 10.7858 21.5986 10.7708 21.5975 10.7559C21.4717 8.47513 20.5096 6.3203 18.8944 4.7051C17.2792 3.0899 15.1244 2.12781 12.8436 2.00198C12.8287 2.00091 12.8137 2.00026 12.7987 2.00003H12.3007L12.2987 2.00003ZM12.2967 3.59964C12.2974 3.59964 12.298 3.59964 12.2987 3.59964H12.7557C14.6436 3.70379 16.4246 4.49897 17.7616 5.83596C19.0986 7.17297 19.8957 8.95589 19.9999 10.8438V11.3008C19.9999 11.3015 19.9999 11.3021 19.9999 11.3028C20.003 12.4967 19.7237 13.6746 19.1854 14.7403C19.1848 14.7409 19.1841 14.7416 19.1834 14.7423C18.5442 16.0213 17.5616 17.0977 16.3455 17.8497C15.1295 18.6017 13.7284 18.9995 12.2987 19.0001C12.298 19.0001 12.2973 19.0001 12.2967 19.0001C11.1028 19.0033 9.92485 18.7239 8.85917 18.1856C8.76497 18.1381 8.6623 18.1096 8.55707 18.1019C8.45183 18.0942 8.3461 18.1073 8.24598 18.1407L4.06434 19.5352L5.45887 15.3535C5.4922 15.2534 5.50539 15.1477 5.49768 15.0424C5.48997 14.9372 5.46151 14.8345 5.41395 14.7403C4.87568 13.6746 4.59638 12.4967 4.5995 11.3028C4.5995 11.3021 4.5995 11.3015 4.5995 11.3008C4.60005 9.87109 4.99788 8.46994 5.74989 7.25393C6.5019 6.03792 7.57838 5.05523 8.85731 4.41604C8.85796 4.41539 8.85861 4.41474 8.85926 4.41409C9.92494 3.87581 11.1028 3.59652 12.2968 3.59964H12.2967Z" fill="black"/>
</svg>
