<svg viewBox="0 0 24 24" fill="none" xmlns="http://www.w3.org/2000/svg">
<path d="M12.2987 2.00032C10.855 1.99686 9.43142 2.33441 8.14246 2.98469C6.59789 3.75664 5.29872 4.94384 4.39051 6.41242C3.48264 7.88046 3.00092 9.57117 2.99989 11.2972C2.99645 12.6162 3.31119 13.9076 3.85536 15.1058L2.0409 20.5472C1.99403 20.6881 1.9873 20.8393 2.02146 20.9838C2.05562 21.1283 2.12933 21.2605 2.23434 21.3655C2.33934 21.4705 2.4715 21.5442 2.61602 21.5784C2.76054 21.6125 2.91171 21.6058 3.05262 21.5589L8.49598 19.7445C9.69356 20.288 10.9825 20.6034 12.3007 20.5999C14.0267 20.5989 15.7194 20.1172 17.1874 19.2093C18.6549 18.3019 19.8412 17.0041 20.6132 15.4613V15.4593C21.2645 14.1691 21.6032 12.7424 21.5995 11.2971V10.7991C21.5992 10.7848 21.5985 10.7705 21.5975 10.7562C21.4717 8.47542 20.5096 6.32059 18.8944 4.70539C17.2792 3.09019 15.1244 2.12614 12.8436 2.00032C12.8287 1.99989 12.8137 1.99989 12.7987 2.00032H12.3007H12.2987ZM12.2967 3.59992C12.2974 3.59993 12.298 3.59993 12.2987 3.59992H12.7636C14.6484 3.70592 16.4285 4.50119 17.7636 5.83625C19.1006 7.17325 19.8957 8.95618 19.9999 10.8441V11.2991C19.9999 11.2998 19.9999 11.3004 19.9999 11.3011C20.003 12.4951 19.7237 13.673 19.1854 14.7386C19.1848 14.7399 19.1841 14.7412 19.1834 14.7425C18.5442 16.0215 17.5616 17.096 16.3455 17.848C15.1295 18.6 13.7284 18.9998 12.2987 19.0003C12.298 19.0003 12.2973 19.0003 12.2967 19.0003C11.1029 19.0035 9.92494 18.7242 8.85926 18.1859C8.76505 18.1383 8.66236 18.1098 8.55711 18.1021C8.45185 18.0944 8.34612 18.1076 8.24598 18.1409L4.06434 19.5355L5.45887 15.3538C5.49247 15.2534 5.5058 15.1473 5.49809 15.0417C5.49038 14.9361 5.46178 14.8331 5.41395 14.7386C4.87568 13.6729 4.59638 12.495 4.5995 11.3011C4.60005 9.87138 4.99788 8.47023 5.74989 7.25422C6.5019 6.03821 7.57838 5.05552 8.85731 4.41633C8.85796 4.41568 8.85861 4.41503 8.85926 4.41438C9.92494 3.8761 11.1028 3.59681 12.2968 3.59992H12.2967Z" fill="black"/>
</svg>
