<svg viewBox="0 0 24 24" fill="none" xmlns="http://www.w3.org/2000/svg">
<path d="M12.3866 14.5762C12.1745 14.576 11.971 14.66 11.8208 14.8098C11.6707 14.9596 11.5861 15.1629 11.5858 15.375C11.5857 15.4802 11.6064 15.5844 11.6466 15.6816C11.6868 15.7788 11.7458 15.8671 11.8201 15.9415C11.8945 16.0159 11.9828 16.0749 12.08 16.1151C12.1772 16.1553 12.2814 16.1759 12.3866 16.1758H12.3944C12.4996 16.1759 12.6038 16.1553 12.701 16.1151C12.7982 16.0749 12.8865 16.0159 12.9609 15.9415C13.0353 15.8671 13.0942 15.7788 13.1344 15.6816C13.1746 15.5844 13.1953 15.4802 13.1952 15.375C13.1949 15.1629 13.1103 14.9596 12.9602 14.8098C12.81 14.66 12.6065 14.576 12.3944 14.5762H12.3866ZM12.8886 6.04299C12.1036 5.90837 11.2959 6.05748 10.6093 6.46096C9.92275 6.86447 9.40085 7.49679 9.1366 8.24807C9.10152 8.3472 9.08631 8.45227 9.09187 8.55728C9.09742 8.66229 9.12362 8.76517 9.16897 8.86004C9.21432 8.95492 9.27793 9.03992 9.35616 9.11019C9.43439 9.18046 9.52571 9.23461 9.62489 9.26956C9.82509 9.33973 10.045 9.3275 10.2362 9.23557C10.4274 9.14363 10.5742 8.97952 10.6444 8.77932C10.7834 8.38424 11.0587 8.0521 11.4198 7.83987C11.781 7.62761 12.2042 7.55031 12.6171 7.62112C13.0298 7.69193 13.404 7.90616 13.6737 8.22659C13.9435 8.54705 14.0923 8.95229 14.0917 9.37112C14.0917 9.82872 13.7009 10.2762 13.16 10.6367C12.6192 10.9973 12.0643 11.1856 12.0643 11.1856C11.8631 11.2527 11.6968 11.397 11.6019 11.5867C11.5071 11.7764 11.4914 11.996 11.5585 12.1973C11.6256 12.3985 11.7699 12.5648 11.9596 12.6597C12.1493 12.7546 12.369 12.7702 12.5702 12.7032C12.5702 12.7032 13.3031 12.4639 14.0487 11.9668C14.7939 11.47 15.6903 10.6295 15.6913 9.37307C15.6925 8.57668 15.4112 7.80456 14.8983 7.19534C14.3855 6.58609 13.6734 6.17764 12.8886 6.04299ZM12.3007 2.00003C10.8555 1.99657 9.43049 2.33478 8.14051 2.98635C6.59702 3.75834 5.29824 4.94433 4.39051 6.41214C3.48264 7.88017 3.00092 9.57088 2.99989 11.2969C2.99645 12.615 3.31187 13.906 3.85536 15.1035L2.0409 20.5469C1.99403 20.6878 1.9873 20.839 2.02146 20.9835C2.05562 21.128 2.12933 21.2602 2.23434 21.3652C2.33934 21.4702 2.4715 21.5439 2.61602 21.5781C2.76054 21.6122 2.91171 21.6055 3.05262 21.5586L8.49793 19.7442C9.69554 20.2877 10.9844 20.6031 12.3026 20.5996C14.0286 20.5986 15.7213 20.1169 17.1893 19.209C18.6568 18.3016 19.8431 17.0038 20.6151 15.461V15.459C21.2665 14.1689 21.6052 12.7421 21.6014 11.2969V10.7989C21.6012 10.7845 21.6005 10.7702 21.5994 10.7559C21.4737 8.47513 20.5096 6.3203 18.8944 4.7051C17.2792 3.0899 15.1263 2.12781 12.8456 2.00198C12.8306 2.00091 12.8157 2.00026 12.8007 2.00003H12.3026L12.3007 2.00003ZM12.2987 3.59964C12.2993 3.59964 12.3 3.59964 12.3007 3.59964H12.7636C14.6484 3.70563 16.4285 4.5009 17.7636 5.83596C19.0986 7.17104 19.8939 8.9511 19.9999 10.836V11.2989C19.9999 11.3002 19.9999 11.3015 19.9999 11.3028C20.003 12.4967 19.7257 13.6727 19.1874 14.7383C19.1867 14.7396 19.186 14.7409 19.1854 14.7422C18.5462 16.0212 17.5636 17.0976 16.3475 17.8496C15.1315 18.6016 13.7303 18.9995 12.3006 19C12.3 19 12.2993 19 12.2986 19C11.1047 19.0032 9.9268 18.7239 8.86112 18.1856C8.76692 18.138 8.66425 18.1096 8.55901 18.1019C8.45378 18.0942 8.34805 18.1073 8.24793 18.1407L4.06629 19.5352L5.45887 15.3535C5.49247 15.2531 5.5058 15.147 5.49809 15.0414C5.49038 14.9358 5.46178 14.8328 5.41395 14.7383C4.87568 13.6727 4.59834 12.4967 4.60145 11.3028C4.60145 11.3021 4.60145 11.3015 4.60145 11.3008C4.602 9.87109 4.99983 8.46994 5.75184 7.25393C6.50385 6.03792 7.57838 5.05523 8.85731 4.41604C8.85861 4.4154 8.85992 4.41475 8.86122 4.41409C9.92689 3.87581 11.1048 3.59652 12.2987 3.59964H12.2987Z" fill="black"/>
</svg>
