<svg viewBox="0 0 24 24" xmlns="http://www.w3.org/2000/svg">
<path d="M3.80078 3.12109C3.05849 3.12109 2.3452 3.41651 1.82031 3.94141C1.29541 4.46629 1 5.17958 1 5.92188V19.9219C1 20.6641 1.29544 21.3774 1.82031 21.9023C2.34521 22.4273 3.0585 22.7227 3.80078 22.7227H17.8008C18.543 22.7227 19.2563 22.4272 19.7812 21.9023C20.3062 21.3774 20.6016 20.6641 20.6016 19.9219V12.9219C20.6017 12.8167 20.581 12.7125 20.5408 12.6153C20.5006 12.5181 20.4416 12.4298 20.3672 12.3554C20.2929 12.281 20.2045 12.222 20.1073 12.1818C20.0101 12.1416 19.906 12.121 19.8008 12.1211C19.6956 12.121 19.5914 12.1416 19.4942 12.1818C19.397 12.222 19.3087 12.281 19.2343 12.3554C19.1599 12.4298 19.101 12.5181 19.0607 12.6153C19.0205 12.7125 18.9999 12.8167 19 12.9219V19.9219C19 20.2404 18.8737 20.5442 18.6484 20.7695C18.4231 20.9948 18.1193 21.1211 17.8008 21.1211H3.80078C3.4822 21.1211 3.17837 20.9948 2.95312 20.7695C2.72783 20.5442 2.60156 20.2404 2.60156 19.9219V5.92188C2.60156 5.60331 2.72787 5.29947 2.95312 5.07422C3.17838 4.84896 3.48221 4.72266 3.80078 4.72266H10.8008C10.906 4.72276 11.0101 4.70212 11.1073 4.66191C11.2046 4.6217 11.2929 4.56272 11.3672 4.48834C11.4416 4.41396 11.5006 4.32564 11.5408 4.22844C11.581 4.13124 11.6017 4.02706 11.6016 3.92188C11.6017 3.81669 11.581 3.71251 11.5408 3.61531C11.5006 3.51811 11.4416 3.42979 11.3672 3.35541C11.2929 3.28103 11.2046 3.22205 11.1073 3.18184C11.0101 3.14163 10.906 3.12099 10.8008 3.12109H3.80078Z" fill="#DBDAE2"/>
<path d="M19.8008 1C19.0263 1 18.282 1.3078 17.7344 1.85547L8.23436 11.3555C8.13215 11.4586 8.05991 11.5875 8.02538 11.7285L7.02538 15.7285C6.9923 15.8623 6.99433 16.0024 7.03129 16.1351C7.06825 16.2679 7.13887 16.3889 7.23632 16.4863C7.33377 16.5838 7.45474 16.6544 7.58751 16.6914C7.72028 16.7283 7.86034 16.7303 7.99413 16.6973L11.9941 15.6973C12.1351 15.6627 12.2641 15.5905 12.3672 15.4883L21.8672 5.98828C22.4148 5.44065 22.7226 4.69635 22.7226 3.92188C22.7226 3.1474 22.4148 2.4031 21.8672 1.85547C21.3195 1.3078 20.5752 1 19.8008 1ZM19.8008 2.59961C20.1515 2.59961 20.4864 2.74031 20.7344 2.98828C20.9824 3.23631 21.123 3.57113 21.123 3.92188C21.123 4.27262 20.9824 4.60746 20.7344 4.85547L11.3926 14.1992L8.90038 14.8223L9.52343 12.3301L18.8672 2.98828C19.1151 2.74031 19.45 2.59961 19.8008 2.59961Z" fill="#DBDAE2"/>
</svg>
