<?xml version="1.0" encoding="UTF-8" standalone="no"?>
<svg
   xmlns:dc="http://purl.org/dc/elements/1.1/"
   xmlns:cc="http://creativecommons.org/ns#"
   xmlns:rdf="http://www.w3.org/1999/02/22-rdf-syntax-ns#"
   xmlns:svg="http://www.w3.org/2000/svg"
   xmlns="http://www.w3.org/2000/svg"
   xmlns:sodipodi="http://sodipodi.sourceforge.net/DTD/sodipodi-0.dtd"
   xmlns:inkscape="http://www.inkscape.org/namespaces/inkscape"
   viewBox="0 0 24 24"
   fill="none"
   version="1.1"
   id="svg6"
   sodipodi:docname="edit.svg"
   inkscape:version="1.0.2 (394de47547, 2021-03-26)">
  <metadata
     id="metadata12">
    <rdf:RDF>
      <cc:Work
         rdf:about="">
        <dc:format>image/svg+xml</dc:format>
        <dc:type
           rdf:resource="http://purl.org/dc/dcmitype/StillImage" />
      </cc:Work>
    </rdf:RDF>
  </metadata>
  <defs
     id="defs10" />
  <sodipodi:namedview
     pagecolor="#ffffff"
     bordercolor="#666666"
     borderopacity="1"
     objecttolerance="10"
     gridtolerance="10"
     guidetolerance="10"
     inkscape:pageopacity="0"
     inkscape:pageshadow="2"
     inkscape:window-width="1920"
     inkscape:window-height="1015"
     id="namedview8"
     showgrid="false"
     inkscape:zoom="30.541667"
     inkscape:cx="12"
     inkscape:cy="12"
     inkscape:window-x="1366"
     inkscape:window-y="0"
     inkscape:window-maximized="1"
     inkscape:current-layer="svg6" />
  <path
     id="path4"
     style="color:#000000;font-style:normal;font-variant:normal;font-weight:normal;font-stretch:normal;font-size:medium;line-height:normal;font-family:sans-serif;font-variant-ligatures:normal;font-variant-position:normal;font-variant-caps:normal;font-variant-numeric:normal;font-variant-alternates:normal;font-variant-east-asian:normal;font-feature-settings:normal;font-variation-settings:normal;text-indent:0;text-align:start;text-decoration:none;text-decoration-line:none;text-decoration-style:solid;text-decoration-color:#000000;letter-spacing:normal;word-spacing:normal;text-transform:none;writing-mode:lr-tb;direction:ltr;text-orientation:mixed;dominant-baseline:auto;baseline-shift:baseline;text-anchor:start;white-space:normal;shape-padding:0;shape-margin:0;inline-size:0;clip-rule:nonzero;display:inline;overflow:visible;visibility:visible;isolation:auto;mix-blend-mode:normal;color-interpolation:sRGB;color-interpolation-filters:linearRGB;solid-color:#000000;solid-opacity:1;vector-effect:none;fill:#000000;fill-opacity:1;fill-rule:nonzero;stroke:none;stroke-linecap:round;stroke-linejoin:round;stroke-miterlimit:4;stroke-dasharray:none;stroke-dashoffset:0;stroke-opacity:1;color-rendering:auto;image-rendering:auto;shape-rendering:auto;text-rendering:auto;enable-background:accumulate;stop-color:#000000;stop-opacity:1;opacity:1"
     d="m 20,1.078125 c -0.774473,0 -1.51877,0.3078046 -2.066406,0.8554688 L 8.4335938,11.433594 a 0.80008001,0.80008001 0 0 0 -0.2089844,0.373047 l -1,4 a 0.80008001,0.80008001 0 0 0 0.96875,0.96875 l 3.9999996,-1 a 0.80008001,0.80008001 0 0 0 0.373047,-0.208985 l 9.5,-9.4999998 C 22.61401,5.5187745 22.921875,4.7744797 22.921875,4 c 0,-0.7744797 -0.307878,-1.5187738 -0.855469,-2.0664062 C 21.51877,1.3859296 20.774473,1.078125 20,1.078125 Z m 0,1.5996094 c 0.350727,0 0.68563,0.140696 0.933594,0.3886718 C 21.181603,3.3144338 21.322266,3.6492597 21.322266,4 c 0,0.3507403 -0.140676,0.6855855 -0.388672,0.9335938 L 11.591797,14.277344 9.0996094,14.900391 9.7226562,12.408203 19.066406,3.0664062 C 19.31437,2.8184304 19.649273,2.6777344 20,2.6777344 Z M 4,3.1992188 c -0.7422933,0 -1.4555821,0.2954118 -1.9804688,0.8203124 C 1.4946306,4.5444179 1.1992188,5.2577067 1.1992188,6 v 14 c 0,0.742275 0.2954433,1.455572 0.8203124,1.980469 C 2.5444246,22.505404 3.2577167,22.800781 4,22.800781 h 14 c 0.742265,0 1.455565,-0.295408 1.980469,-0.820312 C 20.505373,21.455565 20.800781,20.742265 20.800781,20 V 13 A 0.80000001,0.80000001 0 0 0 20,12.199219 0.80000001,0.80000001 0 0 0 19.199219,13 v 7 c 0,0.318535 -0.126267,0.62236 -0.351563,0.847656 C 18.62236,21.072952 18.318535,21.199219 18,21.199219 H 4 c -0.3185767,0 -0.6224096,-0.126298 -0.8476562,-0.351563 C 2.9270529,20.622353 2.8007813,20.318525 2.8007812,20 V 6 c 0,-0.3185667 0.1263032,-0.6224029 0.3515626,-0.8476562 C 3.3775971,4.9270844 3.6814333,4.8007813 4,4.8007812 h 7 A 0.80000001,0.80000001 0 0 0 11.800781,4 0.80000001,0.80000001 0 0 0 11,3.1992188 Z" />
</svg>
