<svg viewBox="0 0 24 24" fill="none" xmlns="http://www.w3.org/2000/svg">
<path d="M0.826182 0.000411027C0.716751 -0.00309809 0.607765 0.0158926 0.50597 0.0562073C0.404176 0.0965219 0.31174 0.157303 0.234385 0.234786C0.0845124 0.384794 0.000326179 0.588168 0.000326179 0.800216C0.000326179 1.01226 0.0845124 1.21564 0.234385 1.36565L4.66603 5.79729C2.80271 7.36509 1.24974 9.27167 0.0957133 11.4223C0.0349312 11.5351 0.00214067 11.6609 0.000101325 11.789C-0.00193802 11.9172 0.0268335 12.0439 0.0839945 12.1586C0.0839945 12.1586 4.19127 20.6 11.8008 20.6C11.8053 20.6001 11.8099 20.6001 11.8145 20.6C13.8995 20.566 15.9203 19.9285 17.6484 18.7797L22.2344 23.3656C22.3844 23.5155 22.5878 23.5997 22.7998 23.5997C23.0119 23.5997 23.2152 23.5155 23.3652 23.3656C23.5151 23.2156 23.5993 23.0123 23.5993 22.8002C23.5993 22.5882 23.5151 22.3848 23.3652 22.2348L18.332 17.2016L18.3145 17.1821C18.3119 17.1794 18.3093 17.1768 18.3067 17.1743L14.5039 13.3735C14.4914 13.36 14.4783 13.347 14.4649 13.3344L10.2656 9.13518C10.2489 9.11679 10.2313 9.09919 10.2129 9.08244L6.42579 5.29533L1.36524 0.234786C1.22181 0.0910861 1.0291 0.00729989 0.826182 0.000411027V0.000411027ZM11.8008 3.00041C11.0325 2.99875 10.2657 3.08702 9.51759 3.26213C9.37898 3.29482 9.25161 3.3639 9.14863 3.46226C9.04565 3.56062 8.97078 3.68468 8.93176 3.82164C8.89275 3.9586 8.89099 4.10349 8.92668 4.24135C8.96237 4.37922 9.03421 4.50506 9.13478 4.60588L20.0742 15.5551C20.1525 15.6336 20.2462 15.6949 20.3494 15.7352C20.4526 15.7756 20.5631 15.7941 20.6738 15.7895C20.7845 15.7849 20.8931 15.7573 20.9926 15.7086C21.0922 15.6598 21.1805 15.5909 21.252 15.5063C22.117 14.4784 22.8726 13.3628 23.5059 12.1781C23.5664 12.0652 23.5988 11.9393 23.6005 11.8112C23.6022 11.683 23.5731 11.5564 23.5157 11.4418C23.5157 11.4418 19.411 3.00191 11.8028 3.00041L11.8008 3.00041ZM11.7988 4.60002C11.7995 4.60002 11.8001 4.60002 11.8008 4.60002C17.8975 4.60002 21.4933 11.1786 21.832 11.811C21.4467 12.4879 20.9962 13.1225 20.5254 13.7426L11.4317 4.64104C11.555 4.63584 11.6753 4.59973 11.7988 4.60002L11.7988 4.60002ZM5.84181 6.97307L8.64649 9.77775C8.51893 9.9649 8.34655 10.1206 8.25392 10.3285C8.04624 10.7946 7.9348 11.2988 7.92579 11.809C7.9168 12.3192 8.01197 12.826 8.20314 13.2992C8.39426 13.7725 8.67828 14.2021 9.03907 14.5629C9.4 14.9239 9.82979 15.2078 10.3027 15.3988C10.7759 15.59 11.2828 15.6832 11.793 15.6742C12.3032 15.6652 12.8054 15.5538 13.2715 15.3461C13.4794 15.2535 13.6351 15.0811 13.8223 14.9535L16.4199 17.5512C15.0159 18.4085 13.4493 18.9703 11.793 18.9985C5.70289 18.9922 2.11004 12.427 1.76954 11.7914C2.82354 9.94697 4.20655 8.32719 5.84181 6.97307ZM9.77149 10.9028L12.6973 13.8285C12.6691 13.8432 12.6503 13.8722 12.6211 13.8852C12.3512 14.0054 12.059 14.0694 11.7637 14.0746C11.4683 14.0798 11.1764 14.0251 10.9024 13.9145C10.6283 13.8038 10.3787 13.6389 10.1699 13.4301C9.96097 13.2211 9.7962 12.9736 9.68556 12.6996C9.57494 12.4258 9.52019 12.1318 9.5254 11.8363C9.53061 11.541 9.59655 11.2488 9.71681 10.9789C9.72967 10.9501 9.75743 10.931 9.7715 10.9028L9.77149 10.9028Z" fill="black"/>
</svg>
