<svg viewBox="0 0 24 24" fill="none" xmlns="http://www.w3.org/2000/svg">
<path d="M7.80078 8C7.58868 7.99979 7.38517 8.08383 7.235 8.23362C7.08484 8.38342 7.00031 8.58672 7 8.79883C6.9999 8.90402 7.02054 9.00819 7.06075 9.1054C7.10095 9.2026 7.15993 9.29092 7.23431 9.3653C7.30869 9.43968 7.39701 9.49866 7.49421 9.53886C7.59142 9.57907 7.69559 9.59971 7.80078 9.59961H8.80078H9.80078C9.90597 9.59971 10.0101 9.57907 10.1073 9.53886C10.2046 9.49866 10.2929 9.43968 10.3672 9.3653C10.4416 9.29092 10.5006 9.2026 10.5408 9.1054C10.581 9.00819 10.6017 8.90402 10.6016 8.79883C10.6013 8.58672 10.5167 8.38342 10.3666 8.23362C10.2164 8.08383 10.0129 7.99979 9.80078 8H8.80078H7.80078ZM7.80078 16C7.58868 15.9998 7.38517 16.0838 7.235 16.2336C7.08484 16.3834 7.00031 16.5867 7 16.7988C6.9999 16.904 7.02054 17.0082 7.06075 17.1054C7.10095 17.2026 7.15993 17.2909 7.23431 17.3653C7.30869 17.4397 7.39701 17.4987 7.49421 17.5389C7.59142 17.5791 7.69559 17.5997 7.80078 17.5996H15.8008C15.906 17.5997 16.0101 17.5791 16.1073 17.5389C16.2046 17.4987 16.2929 17.4397 16.3672 17.3653C16.4416 17.2909 16.5006 17.2026 16.5408 17.1054C16.581 17.0082 16.6017 16.904 16.6016 16.7988C16.6013 16.5867 16.5167 16.3834 16.3666 16.2336C16.2164 16.0838 16.0129 15.9998 15.8008 16H7.80078ZM7.80078 12C7.58868 11.9998 7.38517 12.0838 7.235 12.2336C7.08484 12.3834 7.00031 12.5867 7 12.7988C6.9999 12.904 7.02054 13.0082 7.06075 13.1054C7.10095 13.2026 7.15993 13.2909 7.23431 13.3653C7.30869 13.4397 7.39701 13.4987 7.49421 13.5389C7.59142 13.5791 7.69559 13.5997 7.80078 13.5996H15.8008C15.906 13.5997 16.0101 13.5791 16.1073 13.5389C16.2046 13.4987 16.2929 13.4397 16.3672 13.3653C16.4416 13.2909 16.5006 13.2026 16.5408 13.1054C16.581 13.0082 16.6017 12.904 16.6016 12.7988C16.6013 12.5867 16.5167 12.3834 16.3666 12.2336C16.2164 12.0838 16.0129 11.9998 15.8008 12H7.80078ZM5.80078 1C5.05849 1 4.3452 1.29541 3.82031 1.82031C3.29541 2.3452 3 3.05653 3 3.79883V19.7988C3 20.5411 3.29544 21.2544 3.82031 21.7793C4.34521 22.3042 5.0585 22.5996 5.80078 22.5996H17.8008C18.543 22.5996 19.2563 22.3042 19.7812 21.7793C20.3062 21.2544 20.6016 20.5411 20.6016 19.7988V7.79883C20.6012 7.58707 20.5169 7.38409 20.3672 7.23438L14.3848 1.25195C14.379 1.246 14.3731 1.24014 14.3672 1.23438C14.3552 1.22292 14.3428 1.21185 14.3301 1.20117C14.3144 1.18686 14.2981 1.17317 14.2812 1.16016C14.278 1.15753 14.2747 1.15492 14.2714 1.15234C14.265 1.14769 14.2585 1.14313 14.2519 1.13867C14.2379 1.1291 14.2236 1.11998 14.2089 1.11133C14.2018 1.10731 14.1947 1.10341 14.1875 1.09961C14.1849 1.09829 14.1823 1.09699 14.1797 1.0957C14.1599 1.08509 14.1397 1.07532 14.1191 1.06641C14.0967 1.05691 14.0739 1.04844 14.0507 1.04102C14.0501 1.04036 14.0494 1.03971 14.0487 1.03906C14.0333 1.03403 14.0176 1.02947 14.0019 1.02539C13.9934 1.0233 13.985 1.02135 13.9765 1.01953C13.9603 1.01577 13.944 1.01251 13.9277 1.00977C13.9244 1.00909 13.9211 1.00844 13.9179 1.00781C13.8971 1.00504 13.8763 1.00309 13.8554 1.00195C13.8547 1.00195 13.854 1.00195 13.8534 1.00195C13.8358 1.00072 13.8182 1.00007 13.8006 1L5.80078 1ZM5.80078 2.59961H13V7.79883C12.9999 7.90401 13.0206 8.00819 13.0608 8.10538C13.101 8.20258 13.16 8.29089 13.2343 8.36527C13.3087 8.43965 13.397 8.49863 13.4942 8.53884C13.5914 8.57905 13.6956 8.5997 13.8008 8.59961H19V19.7988C19 20.1174 18.8737 20.4231 18.6484 20.6484C18.4231 20.8737 18.1193 21 17.8008 21H5.80078C5.4822 21 5.17837 20.8737 4.95312 20.6484C4.72783 20.4231 4.60156 20.1174 4.60156 19.7988V3.79883C4.60156 3.48026 4.72787 3.17643 4.95312 2.95117C5.17838 2.72591 5.48221 2.59961 5.80078 2.59961V2.59961ZM14.6016 3.73242L17.8691 7H14.6016V3.73242Z" fill="black"/>
</svg>
