<?xml version="1.0" encoding="UTF-8" standalone="no"?>
<svg
   xmlns:dc="http://purl.org/dc/elements/1.1/"
   xmlns:cc="http://creativecommons.org/ns#"
   xmlns:rdf="http://www.w3.org/1999/02/22-rdf-syntax-ns#"
   xmlns:svg="http://www.w3.org/2000/svg"
   xmlns="http://www.w3.org/2000/svg"
   xmlns:sodipodi="http://sodipodi.sourceforge.net/DTD/sodipodi-0.dtd"
   xmlns:inkscape="http://www.inkscape.org/namespaces/inkscape"
   viewBox="0 0 24 24"
   fill="none"
   version="1.1"
   id="svg6"
   sodipodi:docname="home.svg"
   inkscape:version="1.0.2 (394de47547, 2021-03-26)">
  <metadata
     id="metadata12">
    <rdf:RDF>
      <cc:Work
         rdf:about="">
        <dc:format>image/svg+xml</dc:format>
        <dc:type
           rdf:resource="http://purl.org/dc/dcmitype/StillImage" />
      </cc:Work>
    </rdf:RDF>
  </metadata>
  <defs
     id="defs10" />
  <sodipodi:namedview
     pagecolor="#ffffff"
     bordercolor="#666666"
     borderopacity="1"
     objecttolerance="10"
     gridtolerance="10"
     guidetolerance="10"
     inkscape:pageopacity="0"
     inkscape:pageshadow="2"
     inkscape:window-width="1920"
     inkscape:window-height="1015"
     id="namedview8"
     showgrid="false"
     inkscape:zoom="30.541667"
     inkscape:cx="12"
     inkscape:cy="12"
     inkscape:window-x="1366"
     inkscape:window-y="0"
     inkscape:window-maximized="1"
     inkscape:current-layer="svg6" />
  <path
     id="path2"
     style="color:#000000;font-style:normal;font-variant:normal;font-weight:normal;font-stretch:normal;font-size:medium;line-height:normal;font-family:sans-serif;font-variant-ligatures:normal;font-variant-position:normal;font-variant-caps:normal;font-variant-numeric:normal;font-variant-alternates:normal;font-variant-east-asian:normal;font-feature-settings:normal;font-variation-settings:normal;text-indent:0;text-align:start;text-decoration:none;text-decoration-line:none;text-decoration-style:solid;text-decoration-color:#000000;letter-spacing:normal;word-spacing:normal;text-transform:none;writing-mode:lr-tb;direction:ltr;text-orientation:mixed;dominant-baseline:auto;baseline-shift:baseline;text-anchor:start;white-space:normal;shape-padding:0;shape-margin:0;inline-size:0;clip-rule:nonzero;display:inline;overflow:visible;visibility:visible;isolation:auto;mix-blend-mode:normal;color-interpolation:sRGB;color-interpolation-filters:linearRGB;solid-color:#000000;solid-opacity:1;vector-effect:none;fill:#000000;fill-opacity:1;fill-rule:nonzero;stroke:none;stroke-linecap:round;stroke-linejoin:round;stroke-miterlimit:4;stroke-dasharray:none;stroke-dashoffset:0;stroke-opacity:1;color-rendering:auto;image-rendering:auto;shape-rendering:auto;text-rendering:auto;enable-background:accumulate;stop-color:#000000;stop-opacity:1;opacity:1"
     d="M 12.001953 1.1992188 A 0.80008001 0.80008001 0 0 0 11.509766 1.3691406 L 2.5097656 8.3691406 A 0.80008001 0.80008001 0 0 0 2.1992188 9 L 2.1992188 20 C 2.1992188 20.742275 2.4946621 21.455572 3.0195312 21.980469 C 3.5444247 22.505404 4.2577167 22.800781 5 22.800781 L 9 22.800781 L 15 22.800781 L 19 22.800781 C 19.742265 22.800781 20.455565 22.505373 20.980469 21.980469 C 21.505373 21.455565 21.800781 20.742265 21.800781 20 L 21.800781 9 A 0.80008001 0.80008001 0 0 0 21.490234 8.3691406 L 12.490234 1.3691406 A 0.80008001 0.80008001 0 0 0 12.001953 1.1992188 z M 12 3.0136719 L 20.199219 9.390625 L 20.199219 20 C 20.199219 20.318535 20.072952 20.62236 19.847656 20.847656 C 19.62236 21.072952 19.318535 21.199219 19 21.199219 L 15.800781 21.199219 L 15.800781 12 A 0.80008001 0.80008001 0 0 0 15 11.199219 L 9 11.199219 A 0.80008001 0.80008001 0 0 0 8.1992188 12 L 8.1992188 21.199219 L 5 21.199219 C 4.6814233 21.199219 4.3775904 21.072921 4.1523438 20.847656 C 3.9270529 20.622353 3.8007812 20.318525 3.8007812 20 L 3.8007812 9.3886719 L 12 3.0136719 z M 9.8007812 12.800781 L 14.199219 12.800781 L 14.199219 21.199219 L 9.8007812 21.199219 L 9.8007812 12.800781 z " />
</svg>
