<?xml version="1.0" encoding="UTF-8" standalone="no"?>
<svg
   xmlns:dc="http://purl.org/dc/elements/1.1/"
   xmlns:cc="http://creativecommons.org/ns#"
   xmlns:rdf="http://www.w3.org/1999/02/22-rdf-syntax-ns#"
   xmlns:svg="http://www.w3.org/2000/svg"
   xmlns="http://www.w3.org/2000/svg"
   xmlns:sodipodi="http://sodipodi.sourceforge.net/DTD/sodipodi-0.dtd"
   xmlns:inkscape="http://www.inkscape.org/namespaces/inkscape"
   viewBox="0 0 24 24"
   fill="none"
   version="1.1"
   id="svg8"
   sodipodi:docname="layout.svg"
   inkscape:version="1.0.2 (394de47547, 2021-03-26)">
  <metadata
     id="metadata14">
    <rdf:RDF>
      <cc:Work
         rdf:about="">
        <dc:format>image/svg+xml</dc:format>
        <dc:type
           rdf:resource="http://purl.org/dc/dcmitype/StillImage" />
      </cc:Work>
    </rdf:RDF>
  </metadata>
  <defs
     id="defs12" />
  <sodipodi:namedview
     pagecolor="#ffffff"
     bordercolor="#666666"
     borderopacity="1"
     objecttolerance="10"
     gridtolerance="10"
     guidetolerance="10"
     inkscape:pageopacity="0"
     inkscape:pageshadow="2"
     inkscape:window-width="1920"
     inkscape:window-height="1015"
     id="namedview10"
     showgrid="false"
     inkscape:zoom="30.541667"
     inkscape:cx="12"
     inkscape:cy="12"
     inkscape:window-x="1366"
     inkscape:window-y="0"
     inkscape:window-maximized="1"
     inkscape:current-layer="svg8" />
  <path
     id="path2"
     style="color:#000000;font-style:normal;font-variant:normal;font-weight:normal;font-stretch:normal;font-size:medium;line-height:normal;font-family:sans-serif;font-variant-ligatures:normal;font-variant-position:normal;font-variant-caps:normal;font-variant-numeric:normal;font-variant-alternates:normal;font-variant-east-asian:normal;font-feature-settings:normal;font-variation-settings:normal;text-indent:0;text-align:start;text-decoration:none;text-decoration-line:none;text-decoration-style:solid;text-decoration-color:#000000;letter-spacing:normal;word-spacing:normal;text-transform:none;writing-mode:lr-tb;direction:ltr;text-orientation:mixed;dominant-baseline:auto;baseline-shift:baseline;text-anchor:start;white-space:normal;shape-padding:0;shape-margin:0;inline-size:0;clip-rule:nonzero;display:inline;overflow:visible;visibility:visible;isolation:auto;mix-blend-mode:normal;color-interpolation:sRGB;color-interpolation-filters:linearRGB;solid-color:#000000;solid-opacity:1;vector-effect:none;fill:#000000;fill-opacity:1;fill-rule:nonzero;stroke:none;stroke-linecap:round;stroke-linejoin:round;stroke-miterlimit:4;stroke-dasharray:none;stroke-dashoffset:0;stroke-opacity:1;color-rendering:auto;image-rendering:auto;shape-rendering:auto;text-rendering:auto;enable-background:accumulate;stop-color:#000000;stop-opacity:1;opacity:1"
     d="M 5 2.1992188 C 3.4630783 2.1992188 2.1992187 3.4630783 2.1992188 5 L 2.1992188 19 C 2.1992188 20.53694 3.4630928 21.800781 5 21.800781 L 9 21.800781 L 19 21.800781 C 20.536925 21.800781 21.800781 20.536925 21.800781 19 L 21.800781 5 C 21.800781 3.4630928 20.53694 2.1992187 19 2.1992188 L 5 2.1992188 z M 5 3.8007812 L 19 3.8007812 C 19.67226 3.8007812 20.199219 4.3277672 20.199219 5 L 20.199219 8.1992188 L 9 8.1992188 L 3.8007812 8.1992188 L 3.8007812 5 C 3.8007812 4.3277817 4.3277817 3.8007812 5 3.8007812 z M 3.8007812 9.8007812 L 8.1992188 9.8007812 L 8.1992188 20.199219 L 5 20.199219 C 4.3277672 20.199219 3.8007812 19.67226 3.8007812 19 L 3.8007812 9.8007812 z M 9.8007812 9.8007812 L 20.199219 9.8007812 L 20.199219 19 C 20.199219 19.672275 19.672275 20.199219 19 20.199219 L 9.8007812 20.199219 L 9.8007812 9.8007812 z " />
</svg>
