<svg viewBox="0 0 24 24" xmlns="http://www.w3.org/2000/svg">
<path d="M4.80078 2C3.26386 2 2 3.26386 2 4.80078V18.8008C2 20.3377 3.26387 21.6016 4.80078 21.6016H8.80078H18.8008C20.3377 21.6016 21.6016 20.3377 21.6016 18.8008V4.80078C21.6016 3.26387 20.3377 2 18.8008 2H4.80078ZM4.80078 3.60156H18.8008C19.473 3.60156 20 4.12855 20 4.80078V8H8.80078H3.60156V4.80078C3.60156 4.12856 4.12856 3.60156 4.80078 3.60156ZM3.60156 9.60156H8V20H4.80078C4.12855 20 3.60156 19.473 3.60156 18.8008V9.60156ZM9.60156 9.60156H20V18.8008C20 19.4731 19.4731 20 18.8008 20H9.60156V9.60156Z" fill="#DBDAE2"/>
</svg>
