<svg viewBox="0 0 24 24" fill="none" xmlns="http://www.w3.org/2000/svg">
<path d="M11.8008 1C10.2628 1 8.78671 1.61172 7.69922 2.69922C6.61171 3.78671 6 5.26284 6 6.80078V10H4.80078C3.26387 10 2 11.2638 2 12.8008V19.8008C2 21.3377 3.26387 22.5996 4.80078 22.5996H18.8008C20.3377 22.5996 21.5996 21.3377 21.5996 19.8008V12.8008C21.5996 11.2639 20.3377 10 18.8008 10H17.5996V6.80078C17.5996 5.26283 16.9899 3.78671 15.9023 2.69922C14.8149 1.61168 13.3387 1 11.8008 1ZM11.8008 2.59961C12.915 2.59961 13.9818 3.04224 14.7695 3.83008C15.5574 4.61795 16 5.68657 16 6.80078V10H7.59961V6.80078C7.59961 5.68657 8.0422 4.61794 8.83008 3.83008C9.61795 3.0422 10.6865 2.59961 11.8008 2.59961ZM4.80078 11.5996H6.80078H16.8008H18.8008C19.4731 11.5996 20 12.1285 20 12.8008V19.8008C20 20.4731 19.4731 21 18.8008 21H4.80078C4.12855 21 3.59961 20.473 3.59961 19.8008V12.8008C3.59961 12.1285 4.12855 11.5996 4.80078 11.5996Z" fill="black"/>
</svg>
