<?xml version="1.0" encoding="UTF-8" standalone="no"?>
<svg
   xmlns:dc="http://purl.org/dc/elements/1.1/"
   xmlns:cc="http://creativecommons.org/ns#"
   xmlns:rdf="http://www.w3.org/1999/02/22-rdf-syntax-ns#"
   xmlns:svg="http://www.w3.org/2000/svg"
   xmlns="http://www.w3.org/2000/svg"
   xmlns:sodipodi="http://sodipodi.sourceforge.net/DTD/sodipodi-0.dtd"
   xmlns:inkscape="http://www.inkscape.org/namespaces/inkscape"
   viewBox="0 0 24 24"
   fill="none"
   version="1.1"
   id="svg6"
   sodipodi:docname="luggage.svg"
   inkscape:version="1.0.2 (394de47547, 2021-03-26)">
  <metadata
     id="metadata12">
    <rdf:RDF>
      <cc:Work
         rdf:about="">
        <dc:format>image/svg+xml</dc:format>
        <dc:type
           rdf:resource="http://purl.org/dc/dcmitype/StillImage" />
      </cc:Work>
    </rdf:RDF>
  </metadata>
  <defs
     id="defs10" />
  <sodipodi:namedview
     pagecolor="#ffffff"
     bordercolor="#666666"
     borderopacity="1"
     objecttolerance="10"
     gridtolerance="10"
     guidetolerance="10"
     inkscape:pageopacity="0"
     inkscape:pageshadow="2"
     inkscape:window-width="1920"
     inkscape:window-height="1015"
     id="namedview8"
     showgrid="false"
     inkscape:zoom="30.541667"
     inkscape:cx="12"
     inkscape:cy="12"
     inkscape:window-x="1366"
     inkscape:window-y="0"
     inkscape:window-maximized="1"
     inkscape:current-layer="svg6" />
  <path
     id="path2"
     style="color:#000000;font-style:normal;font-variant:normal;font-weight:normal;font-stretch:normal;font-size:medium;line-height:normal;font-family:sans-serif;font-variant-ligatures:normal;font-variant-position:normal;font-variant-caps:normal;font-variant-numeric:normal;font-variant-alternates:normal;font-variant-east-asian:normal;font-feature-settings:normal;font-variation-settings:normal;text-indent:0;text-align:start;text-decoration:none;text-decoration-line:none;text-decoration-style:solid;text-decoration-color:#000000;letter-spacing:normal;word-spacing:normal;text-transform:none;writing-mode:lr-tb;direction:ltr;text-orientation:mixed;dominant-baseline:auto;baseline-shift:baseline;text-anchor:start;white-space:normal;shape-padding:0;shape-margin:0;inline-size:0;clip-rule:nonzero;display:inline;overflow:visible;visibility:visible;isolation:auto;mix-blend-mode:normal;color-interpolation:sRGB;color-interpolation-filters:linearRGB;solid-color:#000000;solid-opacity:1;vector-effect:none;fill:#000000;fill-opacity:1;fill-rule:nonzero;stroke:none;stroke-linecap:round;stroke-linejoin:round;stroke-miterlimit:4;stroke-dasharray:none;stroke-dashoffset:0;stroke-opacity:1;color-rendering:auto;image-rendering:auto;shape-rendering:auto;text-rendering:auto;enable-background:accumulate;stop-color:#000000;stop-opacity:1;opacity:1"
     d="M 10 2.1992188 C 9.2577067 2.1992188 8.5444179 2.4946306 8.0195312 3.0195312 C 7.4946307 3.544418 7.1992186 4.2577067 7.1992188 5 L 7.1992188 6.1992188 L 4 6.1992188 C 2.4630783 6.1992188 1.1992187 7.4630783 1.1992188 9 L 1.1992188 19 C 1.1992188 20.53694 2.4630928 21.800781 4 21.800781 L 8 21.800781 L 16 21.800781 L 20 21.800781 C 21.536925 21.800781 22.800781 20.536925 22.800781 19 L 22.800781 9 C 22.800781 7.4630928 21.53694 6.1992188 20 6.1992188 L 16.800781 6.1992188 L 16.800781 5 C 16.800781 4.2577167 16.505404 3.5444246 15.980469 3.0195312 C 15.455572 2.4946622 14.742275 2.1992187 14 2.1992188 L 10 2.1992188 z M 10 3.8007812 L 14 3.8007812 C 14.318525 3.8007812 14.622353 3.9270529 14.847656 4.1523438 C 15.072921 4.3775904 15.199219 4.6814233 15.199219 5 L 15.199219 6.1992188 L 8.8007812 6.1992188 L 8.8007812 5 C 8.8007812 4.6814333 8.9270843 4.3775971 9.1523438 4.1523438 C 9.377597 3.9270844 9.6814333 3.8007812 10 3.8007812 z M 4 7.8007812 L 7.1992188 7.8007812 L 7.1992188 20.199219 L 4 20.199219 C 3.3277672 20.199219 2.8007813 19.67226 2.8007812 19 L 2.8007812 9 C 2.8007812 8.3277817 3.3277817 7.8007812 4 7.8007812 z M 8.8007812 7.8007812 L 15.199219 7.8007812 L 15.199219 20.199219 L 8.8007812 20.199219 L 8.8007812 7.8007812 z M 16.800781 7.8007812 L 20 7.8007812 C 20.67226 7.8007812 21.199219 8.3277672 21.199219 9 L 21.199219 19 C 21.199219 19.672275 20.672275 20.199219 20 20.199219 L 16.800781 20.199219 L 16.800781 7.8007812 z " />
</svg>
