<svg viewBox="0 0 24 24"  xmlns="http://www.w3.org/2000/svg">
<path d="M9.80078 2C9.05849 2 8.3452 2.29541 7.82031 2.82031C7.29541 3.3452 7 4.05849 7 4.80078V6H3.80078C2.26386 6 1 7.26386 1 8.80078V18.8008C1 20.3377 2.26387 21.6016 3.80078 21.6016H7.80078H15.8008H19.8008C21.3377 21.6016 22.6016 20.3377 22.6016 18.8008V8.80078C22.6016 7.26387 21.3377 6 19.8008 6H16.6016V4.80078C16.6016 4.0585 16.3062 3.34521 15.7812 2.82031C15.2564 2.29544 14.5431 2 13.8008 2H9.80078ZM9.80078 3.60156H13.8008C14.1193 3.60156 14.4231 3.72783 14.6484 3.95312C14.8737 4.17837 15 4.4822 15 4.80078V6H8.60156V4.80078C8.60156 4.48221 8.72787 4.17838 8.95312 3.95312C9.17838 3.72787 9.48221 3.60156 9.80078 3.60156ZM3.80078 7.60156H7V20H3.80078C3.12855 20 2.60156 19.473 2.60156 18.8008V8.80078C2.60156 8.12856 3.12856 7.60156 3.80078 7.60156V7.60156ZM8.60156 7.60156H15V20H8.60156V7.60156ZM16.6016 7.60156H19.8008C20.473 7.60156 21 8.12855 21 8.80078V18.8008C21 19.4731 20.4731 20 19.8008 20H16.6016V7.60156Z" fill="#DBDAE2"/>
</svg>
