<svg viewBox="0 0 37 26" fill="none" xmlns="http://www.w3.org/2000/svg">
<path opacity="0.999" d="M33.4956 25.9848H3.42059C1.5314 25.9848 0 24.4541 0 22.5657V3.41907C0 1.53071 1.5314 0 3.42059 0H33.4956C35.3847 0 36.9162 1.53071 36.9162 3.41907V22.5657C36.9162 24.4541 35.3847 25.9848 33.4956 25.9848Z" fill="#DBDAE2"/>
<path opacity="0.999" d="M21.2445 19.2418H14.7549V7.58508H21.2445V19.2418Z" fill="#FE8D53"/>
<path opacity="0.999" d="M15.1671 13.4135C15.1671 11.0488 16.275 8.9427 17.9999 7.58521C16.7381 6.59227 15.1465 6.00003 13.4163 6.00003C9.3203 6.00003 6 9.31927 6 13.4135C6 17.5077 9.3203 20.827 13.4163 20.827C15.1465 20.827 16.7381 20.2348 17.9999 19.2419C16.275 17.8843 15.1671 15.7783 15.1671 13.4135Z" fill="#DF4561"/>
<path opacity="0.999" d="M29.9999 13.4132C29.9999 17.5077 26.6797 20.8266 22.5836 20.8266C20.8534 20.8266 19.2618 20.2343 18.0005 19.2415C19.7254 17.8843 20.8328 15.7779 20.8328 13.4132C20.8328 11.0482 19.7254 8.94227 18.0005 7.58469C19.2618 6.59236 20.8534 6 22.5836 6C26.6797 6 29.9999 9.31893 29.9999 13.4132Z" fill="#FFE37A"/>
</svg>

