<svg viewBox="0 0 24 24" fill="none" xmlns="http://www.w3.org/2000/svg">
<path d="M15 2C14.7348 2 14.4804 2.10536 14.2929 2.29289C14.1054 2.48043 14 2.73478 14 3C14 3.26522 14.1054 3.51957 14.2929 3.70711C14.4804 3.89464 14.7348 4 15 4H18.5859L13.293 9.29297C13.1055 9.4805 13.0002 9.73482 13.0002 10C13.0002 10.2652 13.1055 10.5195 13.293 10.707C13.4805 10.8945 13.7348 10.9998 14 10.9998C14.2652 10.9998 14.5195 10.8945 14.707 10.707L20 5.41406V9C20 9.26522 20.1054 9.51957 20.2929 9.70711C20.4804 9.89464 20.7348 10 21 10C21.2652 10 21.5196 9.89464 21.7071 9.70711C21.8946 9.51957 22 9.26522 22 9V3.0293C22.0001 3.01953 22.0001 3.00977 22 3C21.9998 2.98176 21.9992 2.96352 21.998 2.94531C21.9975 2.93554 21.9968 2.92577 21.996 2.91602C21.9945 2.89774 21.9926 2.8795 21.9901 2.86133C21.9894 2.85872 21.9888 2.85612 21.9881 2.85352C21.9845 2.82796 21.98 2.80255 21.9744 2.77735C21.9698 2.75766 21.9646 2.73812 21.9588 2.71875C21.9569 2.71157 21.9549 2.70441 21.9529 2.69727C21.9498 2.68811 21.9465 2.67899 21.9431 2.66992C21.9424 2.66732 21.9418 2.66472 21.9411 2.66212C21.9322 2.63831 21.9225 2.61486 21.9118 2.5918C21.9045 2.57466 21.8966 2.55773 21.8884 2.54102C21.8839 2.53249 21.8794 2.52403 21.8747 2.51563C21.866 2.49976 21.8569 2.48413 21.8473 2.46876C21.8422 2.46087 21.837 2.45306 21.8317 2.44532C21.8211 2.43004 21.81 2.41506 21.7985 2.4004C21.7928 2.3925 21.7869 2.38469 21.7809 2.37696C21.7696 2.36231 21.7579 2.34799 21.7458 2.33399C21.7394 2.32674 21.7329 2.31957 21.7262 2.31251C21.7167 2.30254 21.7069 2.29277 21.697 2.28321C21.6799 2.26697 21.6623 2.25134 21.6442 2.23634C21.6302 2.22422 21.6159 2.2125 21.6012 2.20118C21.5935 2.19521 21.5857 2.18935 21.5778 2.1836C21.5631 2.17344 21.5481 2.16367 21.5329 2.1543C21.5245 2.14897 21.516 2.14376 21.5075 2.13868C21.5017 2.13536 21.4958 2.13211 21.4899 2.12891C21.4714 2.11854 21.4525 2.10877 21.4333 2.09961C21.4096 2.08825 21.3855 2.07783 21.361 2.06836C21.3597 2.06771 21.3584 2.06706 21.3571 2.06641C21.3545 2.06575 21.3519 2.0651 21.3493 2.06446C21.3281 2.05592 21.3066 2.0481 21.2849 2.04102C21.2823 2.04036 21.2797 2.03971 21.2771 2.03907C21.2545 2.03307 21.2317 2.02786 21.2087 2.02345C21.2042 2.02211 21.1996 2.02081 21.195 2.01954C21.1769 2.01578 21.1587 2.01252 21.1403 2.00977C21.1371 2.00975 21.1338 2.00975 21.1305 2.00977C21.1059 2.00624 21.0811 2.00364 21.0563 2.00196C21.0376 2.00078 21.0188 2.00012 21 2H15ZM10.0293 13C9.89308 12.9961 9.7575 13.0201 9.63087 13.0704C9.50425 13.1208 9.38926 13.1965 9.29297 13.293L4 18.5859V15C4 14.7348 3.89464 14.4804 3.70711 14.2929C3.51957 14.1054 3.26522 14 3 14C2.73478 14 2.48043 14.1054 2.29289 14.2929C2.10536 14.4804 2 14.7348 2 15V20.9707V21C2.00051 21.0098 2.00116 21.0195 2.00195 21.0293C2.00237 21.0417 2.00302 21.0541 2.0039 21.0664C2.00477 21.0834 2.00608 21.1003 2.00781 21.1172C2.00897 21.127 2.01027 21.1367 2.01172 21.1465C2.01529 21.172 2.01985 21.1975 2.02539 21.2227C2.03001 21.2423 2.03522 21.2619 2.04102 21.2812C2.04525 21.2957 2.04981 21.31 2.05469 21.3242C2.05596 21.3288 2.05726 21.3333 2.0586 21.3379C2.06747 21.3617 2.07724 21.3851 2.0879 21.4082C2.09814 21.4307 2.10921 21.4529 2.1211 21.4746C2.12552 21.4838 2.13007 21.4929 2.13477 21.5019C2.14355 21.5158 2.15266 21.5295 2.16212 21.543C2.17331 21.5603 2.18503 21.5772 2.19727 21.5938C2.19921 21.597 2.20116 21.6003 2.20313 21.6035C2.21322 21.6168 2.22364 21.6299 2.23438 21.6426C2.24452 21.6546 2.25494 21.6663 2.26563 21.6778C2.27204 21.685 2.27855 21.6922 2.28516 21.6992C2.28775 21.7019 2.29035 21.7045 2.29297 21.7071C2.29621 21.7103 2.29946 21.7136 2.30274 21.7169C2.31976 21.7331 2.33735 21.7487 2.35548 21.7637C2.37689 21.7816 2.39905 21.7985 2.42188 21.8145C2.44159 21.8282 2.46178 21.8413 2.48243 21.8536C2.49145 21.8596 2.50056 21.8654 2.50977 21.8711C2.52834 21.8815 2.54723 21.8913 2.56641 21.9004C2.59008 21.9118 2.61419 21.9222 2.63868 21.9317C2.64258 21.933 2.64648 21.9343 2.6504 21.9356C2.67161 21.9441 2.69311 21.952 2.71485 21.959C2.72652 21.9618 2.73824 21.9644 2.75001 21.9668C2.76361 21.9704 2.77728 21.9737 2.79102 21.9766C2.80464 21.9795 2.81832 21.9821 2.83204 21.9844C2.84113 21.9865 2.85024 21.9885 2.85938 21.9903C2.86264 21.9903 2.8659 21.9903 2.86915 21.9903C2.89379 21.9939 2.91854 21.9965 2.94337 21.9981C2.96223 21.9993 2.98111 21.9999 3 22H9C9.26522 22 9.51957 21.8946 9.70711 21.7071C9.89464 21.5196 10 21.2652 10 21C10 20.7348 9.89464 20.4804 9.70711 20.2929C9.51957 20.1054 9.26522 20 9 20H5.41406L10.707 14.707C10.8945 14.5195 10.9998 14.2652 10.9998 14C10.9998 13.7348 10.8945 13.4805 10.707 13.293C10.5268 13.1124 10.2843 13.0076 10.0293 13V13Z" fill="black"/>
</svg>
