<svg viewBox="0 0 24 24" fill="none" xmlns="http://www.w3.org/2000/svg">
<path d="M2.80078 17C2.69559 16.9999 2.59142 17.0205 2.49421 17.0607C2.39701 17.101 2.30869 17.1599 2.23431 17.2343C2.15993 17.3087 2.10095 17.397 2.06075 17.4942C2.02054 17.5914 1.9999 17.6956 2 17.8008C1.9999 17.906 2.02054 18.0101 2.06075 18.1073C2.10095 18.2046 2.15993 18.2929 2.23431 18.3672C2.30869 18.4416 2.39701 18.5006 2.49421 18.5408C2.59142 18.581 2.69559 18.6017 2.80078 18.6016H20.8008C21.0129 18.6013 21.2162 18.5167 21.366 18.3666C21.5158 18.2164 21.5998 18.0129 21.5996 17.8008C21.5998 17.5887 21.5158 17.3852 21.366 17.235C21.2162 17.0848 21.0129 17.0003 20.8008 17H2.80078ZM2.80078 5C2.69559 4.9999 2.59142 5.02054 2.49421 5.06075C2.39701 5.10095 2.30869 5.15993 2.23431 5.23431C2.15993 5.30869 2.10095 5.39701 2.06075 5.49421C2.02054 5.59142 1.9999 5.69559 2 5.80078C1.9999 5.90597 2.02054 6.01015 2.06075 6.10735C2.10095 6.20455 2.15993 6.29287 2.23431 6.36725C2.30869 6.44163 2.39701 6.50061 2.49421 6.54082C2.59142 6.58102 2.69559 6.60167 2.80078 6.60156H20.8008C21.0129 6.60125 21.2162 6.51672 21.366 6.36656C21.5158 6.21639 21.5998 6.01289 21.5996 5.80078C21.5998 5.58868 21.5158 5.38517 21.366 5.23501C21.2162 5.08484 21.0129 5.00031 20.8008 5L2.80078 5ZM2.80078 11C2.69559 10.9999 2.59142 11.0205 2.49421 11.0607C2.39701 11.101 2.30869 11.1599 2.23431 11.2343C2.15993 11.3087 2.10095 11.397 2.06075 11.4942C2.02054 11.5914 1.9999 11.6956 2 11.8008C1.9999 11.906 2.02054 12.0101 2.06075 12.1073C2.10095 12.2046 2.15993 12.2929 2.23431 12.3672C2.30869 12.4416 2.39701 12.5006 2.49421 12.5408C2.59142 12.581 2.69559 12.6017 2.80078 12.6016H20.8008C21.0129 12.6013 21.2162 12.5167 21.366 12.3666C21.5158 12.2164 21.5998 12.0129 21.5996 11.8008C21.5998 11.5887 21.5158 11.3852 21.366 11.235C21.2162 11.0848 21.0129 11.0003 20.8008 11H2.80078Z" fill="black"/>
</svg>
