<svg viewBox="0 0 24 24" fill="none" xmlns="http://www.w3.org/2000/svg">
<path d="M21.0294 1.99999C20.8932 1.99607 20.7576 2.02004 20.631 2.07042C20.5043 2.1208 20.3894 2.19653 20.2931 2.29295L15.0001 7.58592V3.99999C15.0001 3.73477 14.8947 3.48042 14.7072 3.29288C14.5197 3.10534 14.2653 2.99999 14.0001 2.99999C13.7349 2.99999 13.4805 3.10534 13.293 3.29288C13.1054 3.48042 13.0001 3.73477 13.0001 3.99999V9.97069V9.99999C13.0006 10.0098 13.0013 10.0195 13.0021 10.0293C13.0025 10.0417 13.0032 10.054 13.0041 10.0664C13.005 10.0834 13.0063 10.1003 13.008 10.1172C13.0091 10.127 13.0104 10.1367 13.0119 10.1465C13.0155 10.172 13.02 10.1974 13.0256 10.2226C13.0302 10.2423 13.0354 10.2619 13.0412 10.2812C13.0454 10.2957 13.05 10.31 13.0549 10.3242C13.0561 10.3288 13.0574 10.3333 13.0588 10.3379C13.0676 10.3617 13.0774 10.3851 13.0881 10.4082C13.0983 10.4307 13.1094 10.4529 13.1213 10.4746C13.1257 10.4838 13.1302 10.4929 13.1349 10.5019C13.1437 10.5158 13.1528 10.5295 13.1623 10.543C13.1735 10.5602 13.1852 10.5772 13.1974 10.5937C13.1994 10.597 13.2013 10.6003 13.2033 10.6035C13.2134 10.6168 13.2238 10.6298 13.2346 10.6426C13.2447 10.6546 13.2551 10.6663 13.2658 10.6778C13.2722 10.685 13.2787 10.6922 13.2854 10.6992C13.2879 10.7019 13.2905 10.7045 13.2932 10.707C13.2964 10.7103 13.2997 10.7136 13.303 10.7168C13.32 10.7331 13.3376 10.7487 13.3557 10.7637C13.3771 10.7816 13.3993 10.7985 13.4221 10.8145C13.4418 10.8282 13.462 10.8413 13.4827 10.8536C13.4917 10.8596 13.5008 10.8654 13.51 10.8711C13.5286 10.8815 13.5475 10.8913 13.5666 10.9004C13.5903 10.9118 13.6144 10.9222 13.6389 10.9317C13.6428 10.933 13.6467 10.9343 13.6506 10.9356C13.6718 10.9441 13.6933 10.952 13.7151 10.959C13.7268 10.9618 13.7385 10.9644 13.7502 10.9668C13.7638 10.9704 13.7775 10.9736 13.7913 10.9766C13.8049 10.9795 13.8185 10.9821 13.8323 10.9844C13.8414 10.9865 13.8505 10.9885 13.8596 10.9903C13.8629 10.9903 13.8661 10.9903 13.8694 10.9903C13.894 10.9938 13.9188 10.9965 13.9436 10.9981C13.9624 10.9993 13.9813 10.9999 14.0001 11H20.0001C20.2653 11 20.5197 10.8946 20.7072 10.7071C20.8947 10.5196 21.0001 10.2652 21.0001 9.99999C21.0001 9.73477 20.8947 9.48042 20.7072 9.29288C20.5197 9.10534 20.2653 8.99999 20.0001 8.99999H16.4142L21.7071 3.70702C21.8946 3.51949 21.9999 3.26517 21.9999 2.99999C21.9999 2.73481 21.8946 2.48048 21.7071 2.29295C21.5269 2.11242 21.2844 2.00761 21.0294 1.99999V1.99999ZM4.00009 13C3.73488 13 3.48052 13.1053 3.29299 13.2929C3.10545 13.4804 3.00009 13.7348 3.00009 14C3.00009 14.2652 3.10545 14.5196 3.29299 14.7071C3.48052 14.8946 3.73488 15 4.00009 15H7.58603L2.29306 20.293C2.10557 20.4805 2.00024 20.7348 2.00024 21C2.00024 21.2652 2.10557 21.5195 2.29306 21.707C2.48059 21.8945 2.73491 21.9998 3.00009 21.9998C3.26527 21.9998 3.51959 21.8945 3.70712 21.707L9.00009 16.414V20C9.00009 20.2652 9.10545 20.5196 9.29299 20.7071C9.48052 20.8946 9.73488 21 10.0001 21C10.2653 21 10.5197 20.8946 10.7072 20.7071C10.8947 20.5196 11.0001 20.2652 11.0001 20V14.0293C11.0002 14.0195 11.0002 14.0098 11.0001 14C10.9999 13.9817 10.9993 13.9635 10.9981 13.9453C10.9976 13.9355 10.9969 13.9258 10.9961 13.916C10.9946 13.8977 10.9927 13.8795 10.9902 13.8613C10.9895 13.8587 10.9889 13.8561 10.9882 13.8535C10.9846 13.8279 10.9801 13.8025 10.9745 13.7773C10.9699 13.7577 10.9647 13.7381 10.9589 13.7187C10.957 13.7116 10.955 13.7044 10.953 13.6973C10.9499 13.6881 10.9466 13.679 10.9432 13.6699C10.9425 13.6673 10.9419 13.6647 10.9412 13.6621C10.9323 13.6383 10.9225 13.6149 10.9119 13.5918C10.9046 13.5747 10.8967 13.5577 10.8885 13.541C10.884 13.5325 10.8795 13.524 10.8748 13.5156C10.8661 13.4998 10.857 13.4841 10.8474 13.4688C10.8423 13.4609 10.8371 13.4531 10.8318 13.4453C10.8212 13.4301 10.8101 13.4151 10.7986 13.4004C10.7929 13.3925 10.787 13.3847 10.781 13.377C10.7697 13.3623 10.758 13.348 10.7459 13.334C10.7395 13.3268 10.733 13.3196 10.7263 13.3125C10.7168 13.3026 10.707 13.2928 10.697 13.2832C10.68 13.267 10.6624 13.2514 10.6443 13.2364C10.6303 13.2242 10.616 13.2125 10.6013 13.2012C10.5936 13.1952 10.5858 13.1894 10.5779 13.1836C10.5632 13.1734 10.5482 13.1637 10.533 13.1543C10.5246 13.149 10.5161 13.1438 10.5076 13.1387C10.5018 13.1354 10.4959 13.1321 10.49 13.1289C10.4714 13.1185 10.4525 13.1087 10.4334 13.0996C10.4097 13.0882 10.3856 13.0778 10.3611 13.0683C10.3598 13.0677 10.3585 13.067 10.3572 13.0663C10.3546 13.0657 10.352 13.065 10.3494 13.0643C10.3282 13.0558 10.3067 13.048 10.2849 13.0409C10.2823 13.0402 10.2797 13.0396 10.2771 13.0389C10.2545 13.0329 10.2317 13.0277 10.2088 13.0233C10.2042 13.0219 10.1997 13.0206 10.1951 13.0194C10.177 13.0156 10.1587 13.0123 10.1404 13.0096C10.1372 13.0096 10.1339 13.0096 10.1306 13.0096C10.106 13.0061 10.0812 13.0035 10.0564 13.0018C10.0377 13.0007 10.0189 13.0001 10.0001 13H4.00009Z" fill="black"/>
</svg>
