<svg viewBox="0 0 24 24" fill="none" xmlns="http://www.w3.org/2000/svg">
<path d="M21.7988 16C21.5867 16.0003 21.3834 16.0848 21.2336 16.235C21.0838 16.3852 20.9998 16.5887 21 16.8008V19.8691L17.8652 16.7344C17.7852 16.6545 17.6892 16.5925 17.5835 16.5524C17.4778 16.5124 17.3648 16.4952 17.252 16.502C17.0568 16.5136 16.8727 16.5963 16.7344 16.7344C16.6599 16.8087 16.6008 16.897 16.5604 16.9942C16.5201 17.0914 16.4993 17.1956 16.4993 17.3008C16.4993 17.406 16.5201 17.5102 16.5604 17.6074C16.6008 17.7046 16.6599 17.7929 16.7344 17.8672L19.8672 21H16.7988C16.5867 21.0003 16.3834 21.0848 16.2336 21.235C16.0838 21.3852 15.9998 21.5887 16 21.8008C15.9998 22.0129 16.0838 22.2164 16.2336 22.3666C16.3834 22.5167 16.5867 22.6013 16.7988 22.6016H21.7988C21.904 22.6017 22.0082 22.581 22.1054 22.5408C22.2026 22.5006 22.2909 22.4416 22.3653 22.3672C22.4396 22.2928 22.4986 22.2045 22.5388 22.1073C22.5791 22.0101 22.5997 21.906 22.5996 21.8008V16.8008C22.5997 16.6956 22.5791 16.5914 22.5389 16.4942C22.4987 16.397 22.4397 16.3087 22.3653 16.2343C22.2909 16.1599 22.2026 16.101 22.1054 16.0607C22.0082 16.0205 21.904 15.9999 21.7988 16ZM11.7988 1C5.84363 1 1 5.84558 1 11.8008C1 17.7559 5.84362 22.6016 11.7988 22.6016C11.904 22.6017 12.0082 22.581 12.1054 22.5408C12.2026 22.5006 12.2909 22.4416 12.3653 22.3672C12.4397 22.2929 12.4987 22.2045 12.5389 22.1073C12.5791 22.0101 12.5997 21.906 12.5996 21.8008C12.5997 21.6956 12.5791 21.5914 12.5389 21.4942C12.4987 21.397 12.4397 21.3087 12.3653 21.2343C12.2909 21.1599 12.2026 21.101 12.1054 21.0607C12.0082 21.0205 11.904 20.9999 11.7988 21C6.70833 21 2.59961 16.8912 2.59961 11.8008C2.59961 6.71028 6.70833 2.60156 11.7988 2.60156C16.8893 2.60156 21 6.71029 21 11.8008C20.9998 12.0129 21.0838 12.2164 21.2336 12.3666C21.3834 12.5167 21.5867 12.6013 21.7988 12.6016C21.904 12.6017 22.0082 12.581 22.1054 12.5408C22.2026 12.5006 22.2909 12.4416 22.3653 12.3672C22.4397 12.2929 22.4987 12.2046 22.5389 12.1073C22.5791 12.0101 22.5997 11.906 22.5996 11.8008C22.5996 5.84557 17.754 1 11.7988 1ZM11.7988 5C11.5867 5.00031 11.3834 5.08484 11.2336 5.235C11.0838 5.38517 10.9998 5.58868 11 5.80078V7H10.5488C9.87285 7 9.22412 7.27003 8.74609 7.74805C8.26809 8.22605 8 8.87479 8 9.55078C8 10.2268 8.26811 10.8755 8.74609 11.3535C9.2241 11.8315 9.87282 12.1016 10.5488 12.1016H11V14H8.79883C8.58672 14.0003 8.38342 14.0848 8.23362 14.235C8.08383 14.3852 7.99979 14.5887 8 14.8008C7.99979 15.0129 8.08383 15.2164 8.23362 15.3666C8.38342 15.5167 8.58672 15.6013 8.79883 15.6016H11V16.8008C10.9998 17.0129 11.0838 17.2164 11.2336 17.3666C11.3834 17.5167 11.5867 17.6013 11.7988 17.6016C11.904 17.6017 12.0082 17.581 12.1054 17.5408C12.2026 17.5006 12.2909 17.4416 12.3653 17.3672C12.4397 17.2929 12.4987 17.2045 12.5389 17.1073C12.5791 17.0101 12.5997 16.906 12.5996 16.8008V15.6016H13.0488C13.7248 15.6016 14.3755 15.3315 14.8535 14.8535C15.3315 14.3755 15.5996 13.7268 15.5996 13.0508C15.5996 12.3747 15.3315 11.726 14.8535 11.248C14.3755 10.77 13.7247 10.5 13.0488 10.5H12.5996V8.60156H14.2988C14.404 8.60167 14.5082 8.58102 14.6054 8.54082C14.7026 8.50061 14.7909 8.44163 14.8653 8.36725C14.9397 8.29287 14.9987 8.20455 15.0389 8.10735C15.0791 8.01015 15.0997 7.90597 15.0996 7.80078C15.0997 7.69559 15.0791 7.59142 15.0389 7.49421C14.9987 7.39701 14.9397 7.30869 14.8653 7.23431C14.7909 7.15993 14.7026 7.10095 14.6054 7.06075C14.5082 7.02054 14.404 6.9999 14.2988 7H12.5996V5.80078C12.5997 5.69559 12.5791 5.59142 12.5389 5.49421C12.4987 5.39701 12.4397 5.30869 12.3653 5.23431C12.2909 5.15993 12.2026 5.10095 12.1054 5.06075C12.0082 5.02054 11.904 4.9999 11.7988 5V5ZM10.5488 8.60156H11V10.5H10.5488C10.2966 10.5 10.0573 10.401 9.87891 10.2227C9.70051 10.0443 9.59961 9.80305 9.59961 9.55078C9.59961 9.29851 9.70053 9.05728 9.87891 8.87891C10.0573 8.70055 10.2966 8.60156 10.5488 8.60156ZM12.5996 12.1016H13.0488C13.3011 12.1016 13.5423 12.2005 13.7207 12.3789C13.8991 12.5573 14 12.7984 14 13.0508C14 13.303 13.8991 13.5442 13.7207 13.7227C13.5423 13.9011 13.301 14 13.0488 14H12.5996V12.1016Z" fill="black"/>
</svg>
