<svg viewBox="0 0 24 24" fill="none" xmlns="http://www.w3.org/2000/svg">
<path d="M1.80078 1C1.58868 0.999814 1.38519 1.08385 1.23503 1.23365C1.08487 1.38344 1.00033 1.58673 1 1.79883V6.79883C0.999898 6.90402 1.02054 7.00819 1.06075 7.1054C1.10095 7.2026 1.15993 7.29092 1.23431 7.3653C1.30869 7.43968 1.39701 7.49866 1.49421 7.53886C1.59142 7.57907 1.69559 7.59971 1.80078 7.59961C2.01289 7.5993 2.21619 7.51477 2.36599 7.3646C2.51578 7.21444 2.59982 7.01093 2.59961 6.79883V3.73047L5.73438 6.86523C5.88438 7.01511 6.08776 7.09929 6.29981 7.09929C6.51185 7.09929 6.71523 7.01511 6.86523 6.86523C7.01511 6.71523 7.09929 6.51185 7.09929 6.29981C7.09929 6.08776 7.01511 5.88438 6.86523 5.73438L3.73047 2.59961H6.80078C7.01289 2.5993 7.21619 2.51477 7.36599 2.3646C7.51578 2.21444 7.59982 2.01093 7.59961 1.79883C7.5993 1.58706 7.51504 1.38406 7.3653 1.23431C7.21555 1.08457 7.01255 1.00031 6.80078 1H1.80078ZM11.8008 5C11.5887 4.99979 11.3852 5.08383 11.235 5.23362C11.0848 5.38342 11.0003 5.58672 11 5.79883V7H10.5508C9.87481 7 9.22607 7.26807 8.74805 7.74609C8.27004 8.2241 8 8.87284 8 9.54883C8 10.2248 8.27007 10.8736 8.74805 11.3516C9.22605 11.8296 9.87477 12.0996 10.5508 12.0996H11V14H8.80078C8.58868 13.9998 8.38517 14.0838 8.23501 14.2336C8.08484 14.3834 8.00031 14.5867 8 14.7988C7.9999 14.904 8.02054 15.0082 8.06075 15.1054C8.10095 15.2026 8.15993 15.2909 8.23431 15.3653C8.30869 15.4397 8.39701 15.4987 8.49421 15.5389C8.59142 15.5791 8.69559 15.5997 8.80078 15.5996H11V16.7988C10.9999 16.904 11.0205 17.0082 11.0607 17.1054C11.101 17.2026 11.1599 17.2909 11.2343 17.3653C11.3087 17.4397 11.397 17.4987 11.4942 17.5389C11.5914 17.5791 11.6956 17.5997 11.8008 17.5996C12.0129 17.5993 12.2162 17.5148 12.366 17.3646C12.5158 17.2144 12.5998 17.0109 12.5996 16.7988V15.5996H13.0508C13.7268 15.5996 14.3755 15.3295 14.8535 14.8516C15.3315 14.3736 15.5996 13.7248 15.5996 13.0488C15.5996 12.3728 15.3315 11.7241 14.8535 11.2461C14.3755 10.7681 13.7267 10.5 13.0508 10.5H12.5996V8.59961H14.3008C14.5129 8.5993 14.7162 8.51477 14.866 8.3646C15.0158 8.21444 15.0998 8.01093 15.0996 7.79883C15.0993 7.58706 15.015 7.38406 14.8653 7.23431C14.7156 7.08457 14.5125 7.00031 14.3008 7H12.5996V5.79883C12.5993 5.58706 12.515 5.38406 12.3653 5.23431C12.2156 5.08457 12.0125 5.00031 11.8008 5V5ZM10.5508 8.59961H11V10.5H10.5508C10.2986 10.5 10.0573 10.3991 9.87891 10.2207C9.70051 10.0423 9.59961 9.8011 9.59961 9.54883C9.59961 9.29656 9.70053 9.05533 9.87891 8.87695C10.0573 8.69859 10.2986 8.59961 10.5508 8.59961V8.59961ZM12.5996 12.0996H13.0508C13.3031 12.0996 13.5443 12.1986 13.7227 12.377C13.9011 12.5554 14 12.7965 14 13.0488C14 13.301 13.9011 13.5423 13.7227 13.7207C13.5442 13.8991 13.303 14 13.0508 14H12.5996V12.0996ZM11.8008 1C11.5887 0.999793 11.3852 1.08383 11.235 1.23362C11.0848 1.38342 11.0003 1.58672 11 1.79883C10.9999 1.90402 11.0205 2.00819 11.0607 2.1054C11.101 2.2026 11.1599 2.29092 11.2343 2.3653C11.3087 2.43968 11.397 2.49866 11.4942 2.53886C11.5914 2.57907 11.6956 2.59971 11.8008 2.59961C16.8912 2.59961 21 6.70833 21 11.7988C21 16.8893 16.8912 21 11.8008 21C6.71029 21 2.59961 16.8893 2.59961 11.7988C2.5993 11.5871 2.51504 11.3841 2.3653 11.2343C2.21555 11.0846 2.01255 11.0003 1.80078 11C1.58868 10.9998 1.38517 11.0838 1.23501 11.2336C1.08484 11.3834 1.00031 11.5867 1 11.7988C1 17.754 5.84558 22.5996 11.8008 22.5996C17.7559 22.5996 22.5996 17.754 22.5996 11.7988C22.5996 5.84362 17.7559 1 11.8008 1Z" fill="black"/>
</svg>
