<svg viewBox="0 0 24 24" fill="none" xmlns="http://www.w3.org/2000/svg">
<path d="M21.829 2.00046C21.7001 1.99607 21.5722 2.02288 21.4559 2.07859L2.45592 11.0786C2.30731 11.1494 2.18415 11.2643 2.10326 11.4077C2.02236 11.5511 1.98767 11.7159 2.0039 11.8798C2.02013 12.0436 2.0865 12.1984 2.19396 12.3231C2.30142 12.4478 2.44474 12.5364 2.60436 12.5766L10.1376 14.4594L12.0223 21.9946C12.0626 22.1542 12.1511 22.2975 12.2758 22.405C12.4006 22.5125 12.5554 22.5788 12.7192 22.5951C12.883 22.6113 13.0479 22.5766 13.1912 22.4957C13.3346 22.4148 13.4496 22.2917 13.5204 22.143L22.5204 3.14304C22.5771 3.02349 22.6033 2.89173 22.5967 2.75956C22.59 2.62739 22.5506 2.49894 22.4821 2.38571C22.4136 2.27249 22.3181 2.17803 22.2041 2.1108C22.0901 2.04356 21.9612 2.00565 21.829 2.00046V2.00046ZM20.1161 4.48289L13.0321 19.438L11.5731 13.6059C11.5379 13.4653 11.4652 13.3368 11.3627 13.2343C11.2602 13.1318 11.1317 13.0591 10.9911 13.0239L5.161 11.5669L20.1161 4.48289Z" fill="black"/>
</svg>
