<svg viewBox="0 0 1029 240" fill="none" xmlns="http://www.w3.org/2000/svg">
<path d="M416.509 0C409.881 0 404.509 5.37258 404.509 12V14C404.509 20.6274 409.881 26 416.509 26C423.136 26 428.509 20.6274 428.509 14V12C428.509 5.37258 423.136 0 416.509 0Z" fill="black"/>
<path fill-rule="evenodd" clip-rule="evenodd" d="M368.509 119.728C368.509 80.097 336.414 48 296.787 48C256.603 48 224.509 80.097 224.509 119.728C224.509 119.818 224.509 119.909 224.509 120V228C224.509 234.627 229.881 240 236.509 240C243.136 240 248.509 234.627 248.509 228V173.703C261.269 185.105 278.159 192 296.787 192C336.414 192 368.509 159.914 368.509 119.728V119.728ZM344.509 119.865C344.509 146.849 323.357 168 296.645 168C269.648 168 248.509 146.849 248.509 119.865C248.509 93.1515 269.648 72 296.645 72C323.357 72 344.509 93.1515 344.509 119.865V119.865Z" fill="black"/>
<path fill-rule="evenodd" clip-rule="evenodd" d="M1028.51 119.728C1028.51 80.097 996.414 48 956.787 48C916.603 48 884.509 80.097 884.509 119.728C884.509 159.914 916.603 192 956.787 192C996.414 192 1028.51 159.914 1028.51 119.728ZM1004.51 119.865C1004.51 146.849 983.357 168 956.645 168C929.648 168 908.509 146.849 908.509 119.865C908.509 93.1515 929.648 72 956.645 72C983.357 72 1004.51 93.1515 1004.51 119.865V119.865Z" fill="black"/>
<path d="M848.509 120C848.509 80.2189 816.414 48 776.787 48C751.503 48 729.422 60.7554 716.523 80.1242C703.672 60.7554 681.721 48 656.787 48C616.603 48 584.509 80.2189 584.509 120V180C584.509 186.627 589.881 192 596.509 192C603.136 192 608.509 186.627 608.509 180V120C608.581 93.2504 629.695 72.0912 656.645 72.0912C683.312 72.0912 704.436 93.2504 704.509 120V180C704.509 186.627 709.881 192 716.509 192C723.136 192 728.509 186.627 728.509 180V120C728.581 93.2504 749.695 72.0912 776.645 72.0912C803.312 72.0912 824.436 93.2504 824.509 120V180C824.509 186.627 829.881 192 836.509 192C843.136 192 848.509 186.627 848.509 180V120Z" fill="black"/>
<path d="M464.509 89.9153C464.509 66.5498 483.136 48 506.594 48C515.321 48 523.357 51.0648 529.798 54.6995C536.311 58.374 541.948 63.053 546.115 67.342C550.734 72.0952 550.624 79.6924 545.871 84.3108C541.118 88.9292 533.521 88.8199 528.902 84.0667C526.07 81.1513 522.216 77.9781 518.004 75.6016C513.722 73.1852 509.801 72 506.594 72C496.306 72 488.509 79.8896 488.509 89.9153C488.509 93.4765 489.983 96.2233 494.034 99.3902C497.842 102.367 502.495 104.637 508.11 107.376L508.111 107.377L508.138 107.39C508.573 107.602 509.013 107.817 509.46 108.035L509.916 108.259C510.881 108.464 511.837 108.793 512.762 109.253C513.66 109.699 514.642 110.174 515.687 110.68C521.304 113.398 528.751 117.001 534.763 121.701C542.483 127.735 549.509 136.78 549.509 150.085C549.509 173.45 530.881 192 507.424 192C498.697 192 490.661 188.935 484.219 185.301C477.707 181.626 472.07 176.947 467.902 172.658C463.284 167.905 463.393 160.308 468.146 155.689C472.9 151.071 480.497 151.18 485.115 155.933C487.948 158.849 491.801 162.022 496.013 164.398C500.296 166.815 504.217 168 507.424 168C517.712 168 525.509 160.11 525.509 150.085C525.509 146.523 524.035 143.777 519.983 140.61C516.175 137.633 511.523 135.363 505.907 132.623H505.905C505.315 132.335 504.714 132.041 504.102 131.741C503.136 131.536 502.18 131.207 501.255 130.747C500.359 130.302 499.379 129.828 498.336 129.323L498.331 129.32C492.713 126.602 485.267 122.999 479.254 118.299C471.535 112.265 464.509 103.22 464.509 89.9153V89.9153Z" fill="black"/>
<path d="M404.509 60C404.509 53.3726 409.881 48 416.509 48C423.136 48 428.509 53.3726 428.509 60V180C428.509 186.627 423.136 192 416.509 192C409.881 192 404.509 186.627 404.509 180V60Z" fill="black"/>
<path d="M110.087 68.1183C126.011 84.6219 142.014 101.207 159.134 84.8148C163.993 80.1671 165.564 71.7005 164.231 65.8639C155.343 26.9375 103.131 25.3515 80.1459 45.2131L80.1755 45.364C90.2827 47.5932 100.17 57.8399 110.087 68.1183V68.1183Z" fill="black"/>
<path d="M146.934 172.107C126.053 160.89 136.881 140.545 147.657 120.301C154.367 107.693 161.057 95.1232 160.054 84.8218L160.188 84.747C186.181 100.469 200.807 150.616 166.532 171.098C161.393 174.169 152.855 175.291 146.934 172.107V172.107Z" fill="black"/>
<path d="M60.1436 187.478C64.3591 164.153 87.0541 168.165 109.638 172.157C123.702 174.643 137.724 177.121 147.211 172.984L147.324 173.088C140.403 202.667 97.2302 232.073 67.1593 205.805C62.6504 201.867 58.9448 194.094 60.1436 187.478V187.478Z" fill="black"/>
<path d="M79.8848 46.2365C90.1843 67.5845 69.4657 77.6789 48.8489 87.7236C36.009 93.9794 23.2086 100.216 17.9652 109.14L17.8126 109.121C6.02582 81.1237 23.6686 31.9571 63.4363 35.5331C69.3991 36.0692 76.9658 40.1796 79.8848 46.2365Z" fill="black"/>
<path d="M48.5713 152.023C45.3891 129.311 42.1912 106.487 18.7054 109.686C12.0429 110.59 5.79535 116.516 3.44292 122.022C-12.2469 158.738 29.0613 190.711 59.3308 188.152L59.3955 188.013C52.5289 180.269 50.5532 166.167 48.5713 152.023V152.023Z" fill="black"/>
</svg>
