<svg viewBox="0 0 664 652" fill="none" xmlns="http://www.w3.org/2000/svg">
<path d="M391.42 125.965C448.039 184.645 504.938 243.615 565.81 185.331C583.085 168.806 588.671 138.702 583.932 117.95C552.33 -20.4551 366.687 -26.094 284.964 44.5249L285.069 45.0613C321.006 52.9875 356.159 89.4202 391.42 125.965Z" fill="black"/>
<path d="M522.431 495.702C448.189 455.82 486.69 383.483 525.002 311.503C548.862 266.674 572.648 221.983 569.081 185.356L569.559 185.09C661.976 240.991 713.98 419.291 592.114 492.115C573.842 503.035 543.486 507.025 522.431 495.702V495.702Z" fill="black"/>
<path d="M213.844 550.355C228.833 467.423 309.526 481.686 389.823 495.879C439.831 504.719 489.685 513.531 523.417 498.82L523.818 499.192C499.211 604.36 345.708 708.916 238.789 615.519C222.757 601.516 209.582 573.878 213.844 550.355Z" fill="black"/>
<path d="M284.035 48.1638C320.656 124.068 246.989 159.959 173.686 195.673C128.033 217.916 82.5196 240.09 63.8762 271.819L63.3335 271.753C21.4251 172.207 84.1548 -2.6076 225.552 10.1071C246.753 12.0131 273.657 26.6279 284.035 48.1638Z" fill="black"/>
<path d="M172.699 424.293C161.384 343.54 150.014 262.389 66.5079 273.761C42.819 276.977 20.6057 298.048 12.2415 317.622C-43.5448 448.169 103.33 561.849 210.954 552.754L211.185 552.258C186.77 524.722 179.745 474.585 172.699 424.293Z" fill="black"/>
</svg>
