<svg viewBox="0 0 24 24" fill="none" xmlns="http://www.w3.org/2000/svg">
<path d="M11 2C6.04128 2 2 6.04128 2 11C2 15.9587 6.04128 20 11 20C13.1199 20 15.0689 19.2566 16.6094 18.0234L20.293 21.707C20.4805 21.8945 20.7348 21.9998 21 21.9998C21.2652 21.9998 21.5195 21.8945 21.707 21.707C21.8945 21.5195 21.9998 21.2652 21.9998 21C21.9998 20.7348 21.8945 20.4805 21.707 20.293L18.0234 16.6094C19.2566 15.0689 20 13.1199 20 11C20 6.04128 15.9587 2 11 2ZM11 4C14.8779 4 18 7.12216 18 11C18 12.8886 17.2565 14.5948 16.0488 15.8516C16.0116 15.8797 15.9763 15.9103 15.9434 15.9434C15.9132 15.9747 15.8852 16.008 15.8594 16.043C14.602 17.2546 12.8921 18 11 18C7.12216 18 4 14.8779 4 11C4 7.12216 7.12216 4 11 4Z" fill="black"/>
</svg>
