<svg viewBox="0 0 24 24" fill="none" xmlns="http://www.w3.org/2000/svg">
<path d="M11.75 1.00037C11.7159 1.00276 11.682 1.00732 11.6484 1.01405C11.6261 1.01831 11.6039 1.02352 11.582 1.02967C11.5761 1.03156 11.5703 1.03351 11.5644 1.03553C11.5526 1.03916 11.5409 1.04307 11.5293 1.04725C11.5214 1.05038 11.5136 1.05364 11.5058 1.05702C11.4826 1.06636 11.4598 1.07679 11.4375 1.08827C11.4161 1.09905 11.3953 1.11078 11.375 1.12343C11.3664 1.12912 11.3579 1.13498 11.3496 1.141C11.3424 1.14609 11.3352 1.1513 11.3281 1.15663C11.3222 1.16046 11.3163 1.16436 11.3105 1.16835C11.2979 1.17839 11.2855 1.18881 11.2734 1.1996C11.2628 1.20844 11.2524 1.21756 11.2422 1.22694C11.2396 1.22953 11.237 1.23213 11.2344 1.23475L7.23438 5.23475C7.0845 5.38476 7.00032 5.58813 7.00032 5.80018C7.00032 6.01223 7.0845 6.2156 7.23438 6.36561C7.38439 6.51548 7.58776 6.59967 7.79981 6.59967C8.01185 6.59967 8.21523 6.51548 8.36524 6.36561L11 3.73084V14.7992C10.9998 15.0113 11.0838 15.2148 11.2336 15.365C11.3834 15.5151 11.5867 15.5997 11.7988 15.6C11.904 15.6001 12.0082 15.5794 12.1054 15.5392C12.2026 15.499 12.2909 15.44 12.3653 15.3657C12.4397 15.2913 12.4987 15.203 12.5389 15.1058C12.5791 15.0086 12.5997 14.9044 12.5996 14.7992V3.72889L15.2344 6.36561C15.3844 6.51548 15.5878 6.59967 15.7998 6.59967C16.0119 6.59967 16.2152 6.51548 16.3652 6.36561C16.5151 6.2156 16.5993 6.01223 16.5993 5.80018C16.5993 5.58813 16.5151 5.38476 16.3652 5.23475L12.3828 1.25233C12.3654 1.23456 12.3471 1.21761 12.3281 1.20155C12.3124 1.18723 12.2961 1.17355 12.2793 1.16053C12.2729 1.15588 12.2663 1.15132 12.2598 1.14686C12.2565 1.14423 12.2532 1.14163 12.25 1.13905C12.2359 1.12948 12.2216 1.12036 12.207 1.1117C12.1999 1.10769 12.1927 1.10378 12.1855 1.09998C12.1708 1.0917 12.1558 1.08388 12.1406 1.07655C12.1335 1.07319 12.1263 1.06993 12.1191 1.06678C12.0992 1.05815 12.079 1.05033 12.0585 1.04334C12.0553 1.04201 12.052 1.04071 12.0487 1.03943C12.0326 1.03436 12.0163 1.0298 11.9999 1.02576C11.9754 1.01938 11.9507 1.01416 11.9257 1.01013C11.9011 1.00638 11.8763 1.00377 11.8515 1.00232C11.843 1.00154 11.8346 1.00089 11.8261 1.00037C11.817 1.00022 11.8079 1.00022 11.7987 1.00037C11.7825 0.999876 11.7662 0.999876 11.7499 1.00037L11.75 1.00037ZM3.79883 11.0004C3.58706 11.0007 3.38406 11.0849 3.23431 11.2347C3.08457 11.3844 3.00031 11.5874 3 11.7992V19.7992C3 20.5415 3.29544 21.2548 3.82031 21.7797C4.34521 22.3046 5.05654 22.6 5.79883 22.6H17.7988C18.5411 22.6 19.2544 22.3046 19.7793 21.7797C20.3042 21.2548 20.5996 20.5415 20.5996 19.7992V11.7992C20.5993 11.5871 20.5148 11.3838 20.3646 11.234C20.2144 11.0842 20.0109 11.0002 19.7988 11.0004C19.5871 11.0007 19.3841 11.0849 19.2343 11.2347C19.0846 11.3844 19.0003 11.5874 19 11.7992V19.7992C19 20.1177 18.8737 20.4235 18.6484 20.6488C18.4231 20.8741 18.1174 21.0004 17.7988 21.0004H5.79883C5.48025 21.0004 5.17642 20.8741 4.95117 20.6488C4.72588 20.4235 4.59961 20.1177 4.59961 19.7992V11.7992C4.5993 11.5871 4.51477 11.3838 4.3646 11.234C4.21444 11.0842 4.01093 11.0002 3.79883 11.0004V11.0004Z" fill="black"/>
</svg>
