<svg viewBox="0 0 24 24" fill="none" xmlns="http://www.w3.org/2000/svg">
<path d="M16 7.19922C14.4631 7.19922 13.1992 8.46309 13.1992 10C13.1992 11.5369 14.4631 12.8008 16 12.8008C17.5369 12.8008 18.8008 11.5369 18.8008 10C18.8008 8.46309 17.5369 7.19922 16 7.19922ZM16 8.80078C16.6723 8.80078 17.1992 9.32777 17.1992 10C17.1992 10.6723 16.6723 11.1992 16 11.1992C15.3277 11.1992 14.8008 10.6723 14.8008 10C14.8008 9.32777 15.3277 8.80078 16 8.80078ZM8 7.19922C6.46308 7.19922 5.19922 8.46308 5.19922 10C5.19922 11.5369 6.46309 12.8008 8 12.8008C9.53691 12.8008 10.8008 11.5369 10.8008 10C10.8008 8.46308 9.53692 7.19922 8 7.19922ZM8 8.80078C8.67222 8.80078 9.19922 9.32778 9.19922 10C9.19922 10.6723 8.67223 11.1992 8 11.1992C7.32777 11.1992 6.80078 10.6723 6.80078 10C6.80078 9.32778 7.32778 8.80078 8 8.80078ZM12 0.199219C6.59709 0.199219 2.19922 4.59709 2.19922 10C2.19922 12.7619 3.356 15.2574 5.19922 17.0391V20C5.19922 22.0892 6.91081 23.8008 9 23.8008H15C17.0892 23.8008 18.8008 22.0892 18.8008 20V17.0391C20.644 15.2574 21.8008 12.7619 21.8008 10C21.8008 4.59709 17.4029 0.199219 12 0.199219ZM12 1.80078C16.5383 1.80078 20.1992 5.46179 20.1992 10C20.1992 11.8882 19.5586 13.6165 18.4902 15H17.1992V17.6992H6.80078V15H5.50977C4.44136 13.6165 3.80078 11.8883 3.80078 10C3.80078 5.46179 7.46179 1.80078 12 1.80078ZM6.80078 19.3008H17.1992V20C17.1992 21.2246 16.2246 22.1992 15 22.1992H9C7.77549 22.1992 6.80078 21.2246 6.80078 20V19.3008Z" fill="#1A1A22"/>
</svg>
