<?xml version="1.0" encoding="UTF-8" standalone="no"?>
<svg
   xmlns:dc="http://purl.org/dc/elements/1.1/"
   xmlns:cc="http://creativecommons.org/ns#"
   xmlns:rdf="http://www.w3.org/1999/02/22-rdf-syntax-ns#"
   xmlns:svg="http://www.w3.org/2000/svg"
   xmlns="http://www.w3.org/2000/svg"
   xmlns:sodipodi="http://sodipodi.sourceforge.net/DTD/sodipodi-0.dtd"
   xmlns:inkscape="http://www.inkscape.org/namespaces/inkscape"
   viewBox="0 0 24 24"
   fill="none"
   version="1.1"
   id="svg18"
   sodipodi:docname="statements.svg"
   inkscape:version="1.0.2 (394de47547, 2021-03-26)">
  <metadata
     id="metadata24">
    <rdf:RDF>
      <cc:Work
         rdf:about="">
        <dc:format>image/svg+xml</dc:format>
        <dc:type
           rdf:resource="http://purl.org/dc/dcmitype/StillImage" />
      </cc:Work>
    </rdf:RDF>
  </metadata>
  <defs
     id="defs22" />
  <sodipodi:namedview
     pagecolor="#ffffff"
     bordercolor="#666666"
     borderopacity="1"
     objecttolerance="10"
     gridtolerance="10"
     guidetolerance="10"
     inkscape:pageopacity="0"
     inkscape:pageshadow="2"
     inkscape:window-width="1920"
     inkscape:window-height="1015"
     id="namedview20"
     showgrid="false"
     inkscape:zoom="30.541667"
     inkscape:cx="12"
     inkscape:cy="12"
     inkscape:window-x="1366"
     inkscape:window-y="0"
     inkscape:window-maximized="1"
     inkscape:current-layer="svg18" />
  <path
     id="path16"
     style="color:#000000;font-style:normal;font-variant:normal;font-weight:normal;font-stretch:normal;font-size:medium;line-height:normal;font-family:sans-serif;font-variant-ligatures:normal;font-variant-position:normal;font-variant-caps:normal;font-variant-numeric:normal;font-variant-alternates:normal;font-variant-east-asian:normal;font-feature-settings:normal;font-variation-settings:normal;text-indent:0;text-align:start;text-decoration:none;text-decoration-line:none;text-decoration-style:solid;text-decoration-color:#000000;letter-spacing:normal;word-spacing:normal;text-transform:none;writing-mode:lr-tb;direction:ltr;text-orientation:mixed;dominant-baseline:auto;baseline-shift:baseline;text-anchor:start;white-space:normal;shape-padding:0;shape-margin:0;inline-size:0;clip-rule:nonzero;display:inline;overflow:visible;visibility:visible;isolation:auto;mix-blend-mode:normal;color-interpolation:sRGB;color-interpolation-filters:linearRGB;solid-color:#000000;solid-opacity:1;vector-effect:none;fill:#000000;fill-opacity:1;fill-rule:nonzero;stroke:none;stroke-linecap:round;stroke-linejoin:round;stroke-miterlimit:4;stroke-dasharray:none;stroke-dashoffset:0;stroke-opacity:1;color-rendering:auto;image-rendering:auto;shape-rendering:auto;text-rendering:auto;enable-background:accumulate;stop-color:#000000;stop-opacity:1;opacity:1"
     d="M 12,15.199219 A 0.80000001,0.80000001 0 0 0 11.199219,16 0.80000001,0.80000001 0 0 0 12,16.800781 h 4 A 0.80000001,0.80000001 0 0 0 16.800781,16 0.80000001,0.80000001 0 0 0 16,15.199219 Z m -4,0 A 0.80000001,0.80000001 0 0 0 7.1992188,16 0.80000001,0.80000001 0 0 0 8,16.800781 H 9 A 0.80000001,0.80000001 0 0 0 9.8007812,16 0.80000001,0.80000001 0 0 0 9,15.199219 Z m 4,-4 A 0.80000001,0.80000001 0 0 0 11.199219,12 0.80000001,0.80000001 0 0 0 12,12.800781 h 4 A 0.80000001,0.80000001 0 0 0 16.800781,12 0.80000001,0.80000001 0 0 0 16,11.199219 Z m -4,0 A 0.80000001,0.80000001 0 0 0 7.1992188,12 0.80000001,0.80000001 0 0 0 8,12.800781 H 9 A 0.80000001,0.80000001 0 0 0 9.8007812,12 0.80000001,0.80000001 0 0 0 9,11.199219 Z M 12,7.1992188 A 0.80000001,0.80000001 0 0 0 11.199219,8 0.80000001,0.80000001 0 0 0 12,8.8007812 h 4 A 0.80000001,0.80000001 0 0 0 16.800781,8 0.80000001,0.80000001 0 0 0 16,7.1992188 Z m -4,0 A 0.80000001,0.80000001 0 0 0 7.1992188,8 0.80000001,0.80000001 0 0 0 8,8.8007812 H 9 A 0.80000001,0.80000001 0 0 0 9.8007812,8 0.80000001,0.80000001 0 0 0 9,7.1992188 Z m -2,-6 c -0.7422933,0 -1.4555821,0.2954118 -1.9804688,0.8203124 C 3.4946306,2.544418 3.1992188,3.2577067 3.1992188,4 v 16 c 0,0.742275 0.2954433,1.455572 0.8203124,1.980469 C 4.5444246,22.505404 5.2577167,22.800781 6,22.800781 h 12 c 0.742265,0 1.455565,-0.295408 1.980469,-0.820312 C 20.505373,21.455565 20.800781,20.742265 20.800781,20 V 7 4 c 0,-0.7422833 -0.295377,-1.4555754 -0.820312,-1.9804688 C 19.455572,1.4946622 18.742275,1.1992187 18,1.1992188 h -2 -1 z m 0,1.6015624 h 9 1 2 c 0.318525,0 0.622353,0.1262717 0.847656,0.3515626 C 19.072921,3.3775903 19.199219,3.6814233 19.199219,4 v 3 13 c 0,0.318535 -0.126267,0.62236 -0.351563,0.847656 C 18.62236,21.072952 18.318535,21.199219 18,21.199219 H 6 c -0.3185767,0 -0.6224096,-0.126298 -0.8476562,-0.351563 C 4.9270528,20.622353 4.8007812,20.318525 4.8007812,20 V 4 c 0,-0.3185667 0.1263032,-0.6224029 0.3515626,-0.8476562 C 5.3775971,2.9270843 5.6814333,2.8007812 6,2.8007812 Z" />
</svg>
