<svg viewBox="0 0 24 24" xmlns="http://www.w3.org/2000/svg">
<path d="M5.80078 1C5.05849 1 4.3452 1.29541 3.82031 1.82031C3.29541 2.3452 3 3.05849 3 3.80078V19.8008C3 20.5431 3.29544 21.2564 3.82031 21.7812C4.34521 22.3062 5.0585 22.6016 5.80078 22.6016H17.8008C18.543 22.6016 19.2563 22.3062 19.7812 21.7812C20.3062 21.2563 20.6016 20.543 20.6016 19.8008V6.80078V3.80078C20.6016 3.0585 20.3062 2.34521 19.7812 1.82031C19.2564 1.29544 18.5431 1 17.8008 1H15.8008H14.8008H5.80078ZM5.80078 2.60156H14.8008H15.8008H17.8008C18.1193 2.60156 18.4231 2.72783 18.6484 2.95312C18.8737 3.17837 19 3.4822 19 3.80078V6.80078V19.8008C19 20.1193 18.8737 20.4231 18.6484 20.6484C18.4231 20.8737 18.1193 21 17.8008 21H5.80078C5.4822 21 5.17837 20.8737 4.95312 20.6484C4.72783 20.4231 4.60156 20.1193 4.60156 19.8008V3.80078C4.60156 3.48221 4.72787 3.17838 4.95312 2.95312C5.17838 2.72787 5.48221 2.60156 5.80078 2.60156Z" fill="#DBDAE2"/>
<path d="M7.80078 7C7.69559 6.9999 7.59142 7.02054 7.49421 7.06075C7.39701 7.10095 7.30869 7.15993 7.23431 7.23431C7.15993 7.30869 7.10095 7.39701 7.06075 7.49421C7.02054 7.59142 6.9999 7.69559 7 7.80078C6.9999 7.90597 7.02054 8.01015 7.06075 8.10735C7.10095 8.20455 7.15993 8.29287 7.23431 8.36725C7.30869 8.44163 7.39701 8.50061 7.49421 8.54082C7.59142 8.58102 7.69559 8.60167 7.80078 8.60156H8.80078C8.90597 8.60167 9.01015 8.58102 9.10735 8.54082C9.20455 8.50061 9.29287 8.44163 9.36725 8.36725C9.44163 8.29287 9.50061 8.20455 9.54082 8.10735C9.58102 8.01015 9.60167 7.90597 9.60156 7.80078C9.60167 7.69559 9.58102 7.59142 9.54082 7.49421C9.50061 7.39701 9.44163 7.30869 9.36725 7.23431C9.29287 7.15993 9.20455 7.10095 9.10735 7.06075C9.01015 7.02054 8.90597 6.9999 8.80078 7H7.80078Z" fill="#DBDAE2"/>
<path d="M11.8008 7C11.6956 6.9999 11.5914 7.02054 11.4942 7.06075C11.397 7.10095 11.3087 7.15993 11.2343 7.23431C11.1599 7.30869 11.101 7.39701 11.0607 7.49421C11.0205 7.59142 10.9999 7.69559 11 7.80078C10.9999 7.90597 11.0205 8.01015 11.0607 8.10735C11.101 8.20455 11.1599 8.29287 11.2343 8.36725C11.3087 8.44163 11.397 8.50061 11.4942 8.54082C11.5914 8.58102 11.6956 8.60167 11.8008 8.60156H15.8008C15.906 8.60167 16.0101 8.58102 16.1073 8.54082C16.2046 8.50061 16.2929 8.44163 16.3672 8.36725C16.4416 8.29287 16.5006 8.20455 16.5408 8.10735C16.581 8.01015 16.6017 7.90597 16.6016 7.80078C16.6017 7.69559 16.581 7.59142 16.5408 7.49421C16.5006 7.39701 16.4416 7.30869 16.3672 7.23431C16.2929 7.15993 16.2046 7.10095 16.1073 7.06075C16.0101 7.02054 15.906 6.9999 15.8008 7H11.8008Z" fill="#DBDAE2"/>
<path d="M7.80078 11C7.69559 10.9999 7.59142 11.0205 7.49421 11.0607C7.39701 11.101 7.30869 11.1599 7.23431 11.2343C7.15993 11.3087 7.10095 11.397 7.06075 11.4942C7.02054 11.5914 6.9999 11.6956 7 11.8008C6.9999 11.906 7.02054 12.0101 7.06075 12.1073C7.10095 12.2046 7.15993 12.2929 7.23431 12.3672C7.30869 12.4416 7.39701 12.5006 7.49421 12.5408C7.59142 12.581 7.69559 12.6017 7.80078 12.6016H8.80078C8.90597 12.6017 9.01015 12.581 9.10735 12.5408C9.20455 12.5006 9.29287 12.4416 9.36725 12.3672C9.44163 12.2929 9.50061 12.2046 9.54082 12.1073C9.58102 12.0101 9.60167 11.906 9.60156 11.8008C9.60167 11.6956 9.58102 11.5914 9.54082 11.4942C9.50061 11.397 9.44163 11.3087 9.36725 11.2343C9.29287 11.1599 9.20455 11.101 9.10735 11.0607C9.01015 11.0205 8.90597 10.9999 8.80078 11H7.80078Z" fill="#DBDAE2"/>
<path d="M11.8008 11C11.6956 10.9999 11.5914 11.0205 11.4942 11.0607C11.397 11.101 11.3087 11.1599 11.2343 11.2343C11.1599 11.3087 11.101 11.397 11.0607 11.4942C11.0205 11.5914 10.9999 11.6956 11 11.8008C10.9999 11.906 11.0205 12.0101 11.0607 12.1073C11.101 12.2046 11.1599 12.2929 11.2343 12.3672C11.3087 12.4416 11.397 12.5006 11.4942 12.5408C11.5914 12.581 11.6956 12.6017 11.8008 12.6016H15.8008C15.906 12.6017 16.0101 12.581 16.1073 12.5408C16.2046 12.5006 16.2929 12.4416 16.3672 12.3672C16.4416 12.2929 16.5006 12.2046 16.5408 12.1073C16.581 12.0101 16.6017 11.906 16.6016 11.8008C16.6017 11.6956 16.581 11.5914 16.5408 11.4942C16.5006 11.397 16.4416 11.3087 16.3672 11.2343C16.2929 11.1599 16.2046 11.101 16.1073 11.0607C16.0101 11.0205 15.906 10.9999 15.8008 11H11.8008Z" fill="#DBDAE2"/>
<path d="M7.80078 15C7.69559 14.9999 7.59142 15.0205 7.49421 15.0607C7.39701 15.101 7.30869 15.1599 7.23431 15.2343C7.15993 15.3087 7.10095 15.397 7.06075 15.4942C7.02054 15.5914 6.9999 15.6956 7 15.8008C6.9999 15.906 7.02054 16.0101 7.06075 16.1073C7.10095 16.2046 7.15993 16.2929 7.23431 16.3672C7.30869 16.4416 7.39701 16.5006 7.49421 16.5408C7.59142 16.581 7.69559 16.6017 7.80078 16.6016H8.80078C8.90597 16.6017 9.01015 16.581 9.10735 16.5408C9.20455 16.5006 9.29287 16.4416 9.36725 16.3672C9.44163 16.2929 9.50061 16.2046 9.54082 16.1073C9.58102 16.0101 9.60167 15.906 9.60156 15.8008C9.60167 15.6956 9.58102 15.5914 9.54082 15.4942C9.50061 15.397 9.44163 15.3087 9.36725 15.2343C9.29287 15.1599 9.20455 15.101 9.10735 15.0607C9.01015 15.0205 8.90597 14.9999 8.80078 15H7.80078Z" fill="#DBDAE2"/>
<path d="M11.8008 15C11.6956 14.9999 11.5914 15.0205 11.4942 15.0607C11.397 15.101 11.3087 15.1599 11.2343 15.2343C11.1599 15.3087 11.101 15.397 11.0607 15.4942C11.0205 15.5914 10.9999 15.6956 11 15.8008C10.9999 15.906 11.0205 16.0101 11.0607 16.1073C11.101 16.2046 11.1599 16.2929 11.2343 16.3672C11.3087 16.4416 11.397 16.5006 11.4942 16.5408C11.5914 16.581 11.6956 16.6017 11.8008 16.6016H15.8008C15.906 16.6017 16.0101 16.581 16.1073 16.5408C16.2046 16.5006 16.2929 16.4416 16.3672 16.3672C16.4416 16.2929 16.5006 16.2046 16.5408 16.1073C16.581 16.0101 16.6017 15.906 16.6016 15.8008C16.6017 15.6956 16.581 15.5914 16.5408 15.4942C16.5006 15.397 16.4416 15.3087 16.3672 15.2343C16.2929 15.1599 16.2046 15.101 16.1073 15.0607C16.0101 15.0205 15.906 14.9999 15.8008 15H11.8008Z" fill="#DBDAE2"/>
</svg>
