<svg viewBox="0 0 24 24" fill="none" xmlns="http://www.w3.org/2000/svg">
<path d="M10.8008 1C10.6456 0.999871 10.4938 1.04485 10.3638 1.12946C10.2337 1.21407 10.1311 1.33467 10.0684 1.47656L6.2793 10H3.80078C3.0585 10 2.34521 10.2954 1.82031 10.8203C1.29544 11.3452 1 12.0585 1 12.8008V19.8008C1 20.5431 1.29544 21.2564 1.82031 21.7812C2.34521 22.3062 3.0585 22.6016 3.80078 22.6016H6.80078H18.0703C18.7455 22.6093 19.4016 22.3708 19.916 21.9336C20.4299 21.4968 20.7696 20.8895 20.8711 20.2227V20.2207L22.252 11.2226C22.252 11.2219 22.252 11.2213 22.252 11.2206C22.3128 10.8194 22.2852 10.4094 22.1719 10.0195C22.0587 9.6296 21.8619 9.26913 21.5957 8.96289C21.3294 8.65673 20.9992 8.41229 20.6289 8.24609C20.2586 8.07987 19.857 7.99541 19.4512 8H14.5996V4.80078C14.5996 3.79325 14.1987 2.82569 13.4863 2.11328C12.7739 1.40084 11.8083 1 10.8008 1ZM11.2383 2.7832C11.6407 2.87403 12.0589 2.9476 12.3555 3.24414C12.7683 3.65695 13 4.21702 13 4.80078V8.80078C12.9999 8.90597 13.0206 9.01014 13.0608 9.10734C13.101 9.20453 13.16 9.29285 13.2343 9.36722C13.3087 9.4416 13.397 9.50058 13.4942 9.54079C13.5914 9.581 13.6956 9.60165 13.8008 9.60156H19.4609C19.4635 9.60158 19.4661 9.60158 19.4687 9.60156C19.6427 9.59959 19.8159 9.63387 19.9746 9.70508C20.1333 9.7763 20.2744 9.88228 20.3887 10.0137C20.5028 10.145 20.5863 10.2997 20.6348 10.4668C20.6832 10.6337 20.696 10.8085 20.6699 10.9805L19.2891 19.9785C19.2891 19.9792 19.2891 19.9798 19.2891 19.9805C19.2457 20.2668 19.1015 20.5273 18.8809 20.7149C18.6602 20.9024 18.3793 21.0033 18.0898 21C18.0866 21 18.0833 21 18.08 21H7.59961V10.9707L11.2383 2.7832ZM3.80078 11.6016H6V21H3.80078C3.4822 21 3.17642 20.8737 2.95117 20.6484C2.72588 20.4231 2.59961 20.1193 2.59961 19.8008V12.8008C2.59961 12.4823 2.72588 12.1765 2.95117 11.9512C3.17642 11.7259 3.4822 11.6016 3.80078 11.6016V11.6016Z" fill="black"/>
</svg>
