<svg viewBox="0 0 24 24" xmlns="http://www.w3.org/2000/svg">
<path d="M11.8006 1C8.85293 1 6.01095 2.09923 3.82987 4.08203C1.64878 6.06484 0.283791 8.79029 0.00370169 11.7246C-0.00702027 11.8357 0.00561222 11.9478 0.0407875 12.0537C0.0759628 12.1596 0.132903 12.257 0.20795 12.3395C0.282996 12.4221 0.374489 12.4881 0.476551 12.5332C0.578612 12.5784 0.688985 12.6016 0.800577 12.6016H10.9998V18.8008C10.9998 19.8083 11.4007 20.7759 12.1131 21.4883C12.8255 22.2007 13.7931 22.6016 14.8006 22.6016C15.8081 22.6016 16.7757 22.2007 17.4881 21.4883C18.2005 20.7759 18.6014 19.8083 18.6014 18.8008C18.6015 18.6956 18.5808 18.5914 18.5406 18.4942C18.5004 18.397 18.4414 18.3087 18.367 18.2343C18.2927 18.1599 18.2043 18.101 18.1071 18.0607C18.0099 18.0205 17.9058 17.9999 17.8006 18C17.6954 17.9999 17.5912 18.0205 17.494 18.0607C17.3968 18.101 17.3085 18.1599 17.2341 18.2343C17.1597 18.3087 17.1007 18.397 17.0605 18.4942C17.0203 18.5914 16.9997 18.6956 16.9998 18.8008C16.9998 19.3845 16.768 19.9427 16.3553 20.3555C15.9425 20.7683 15.3843 21 14.8006 21C14.2169 21 13.6587 20.7683 13.2459 20.3555C12.8331 19.9427 12.6014 19.3845 12.6014 18.8008V12.6016H22.8006C22.9122 12.6016 23.0225 12.5784 23.1246 12.5332C23.2267 12.4881 23.3182 12.4221 23.3932 12.3395C23.4683 12.257 23.5252 12.1596 23.5604 12.0537C23.5955 11.9478 23.6082 11.8357 23.5975 11.7246C23.3174 8.79028 21.9524 6.06484 19.7713 4.08203C17.5902 2.09924 14.7483 1 11.8006 1ZM11.8006 2.60156C14.3507 2.60156 16.8082 3.55026 18.6951 5.26562C20.353 6.77282 21.3419 8.81431 21.7517 11H11.8006H1.8494C2.25921 8.8143 3.24813 6.77282 4.90605 5.26562C6.79294 3.55026 9.25051 2.60156 11.8006 2.60156Z" fill="#DBDAE2"/>
</svg>
