<svg viewBox="0 0 37 26" fill="none" xmlns="http://www.w3.org/2000/svg">
<path opacity="0.999" d="M33.4956 25.9848H3.42059C1.5314 25.9848 0 24.4541 0 22.5657V3.41907C0 1.53071 1.5314 0 3.42059 0H33.4956C35.3847 0 36.9162 1.53071 36.9162 3.41907V22.5657C36.9162 24.4541 35.3847 25.9848 33.4956 25.9848Z" fill="#DBDAE2"/>
<path opacity="0.999" d="M20.5493 16.7262V16.7197H20.4178V16.7132H20.3323V16.7065H20.2534V16.7H20.1679V16.6936H20.1022V16.687H20.0496V16.6805H19.997V16.6739H19.9444V16.6674H19.8918V16.6608H19.8392V16.6544H19.7996V16.6479H19.7602V16.6413H19.7207V16.6348H19.6813V16.6283H19.6418V16.6218H19.6024V16.6152H19.5695V16.6087H19.5301V16.6022H19.4972V16.5956H19.4709V16.5891H19.438V16.5825H19.4117V16.5761H19.3788V16.5695H19.3459V16.563H19.3196V16.5565H19.2867V16.5499H19.2604V16.5433H19.2341V16.5369H19.2078V16.5304H19.1882V16.5237H19.1619V16.5172H19.1356V16.5107H19.1158V16.5041H19.0895V16.4977H19.0632V16.4911H19.0369V16.4846H19.0172V16.478H18.9974V16.4715H18.9777V16.465H18.9581V16.4584H18.9383V16.4519H18.9186V16.4454H18.8988V16.4389H18.8792V16.4322H18.8595V16.4257H18.8397V16.4192H18.82V16.4127H18.8003V16.4062H18.7806V16.3996H18.7609V16.3931H18.7476V16.3865H18.728V16.3801H18.7148V16.3736H18.6951V16.367H18.682V16.3604H18.6622V16.3539H18.6491V16.3474H18.6359V16.3409H18.6228V16.3344H18.6161V16.295H18.6228V16.2687H18.6293V16.2358H18.6359V16.2029H18.6425V16.1767H18.6491V16.1437H18.6557V16.1109H18.6622V16.0846H18.6688V16.0516H18.6754V16.0187H18.682V15.9925H18.6886V15.9596H18.6951V15.9267H18.7017V15.9004H18.7084V15.8676H18.7149V15.8347H18.7215V15.8084H18.7281V15.7756H18.7347V15.7427H18.7413V15.7164H18.7478V15.6835H18.7544V15.6507H18.761V15.6244H18.7676V15.5915H18.7742V15.5587H18.7807V15.5324H18.7874V15.4995H18.7939V15.4667H18.8005V15.4337H18.8071V15.4075H18.8137V15.3745H18.8203V15.3417H18.8268V15.3154H18.8334V15.2825H18.8401V15.2497H18.8466V15.2234H18.8532V15.1905H18.8597V15.1577H18.8664V15.1314H18.873V15.0985H18.8795V15.0657H18.8861V15.0394H18.8927V15.0065H18.8993V14.9736H18.9059V14.9473H18.9124V14.9145H18.919V14.8816H18.9256V14.8553H18.9322V14.8225H18.9388V14.7896H18.9453V14.7633H18.952V14.7304H18.9585V14.6975H18.9651V14.6844H18.9783V14.6909H18.9914V14.6975H19.0046V14.7041H19.0177V14.7106H19.0309V14.717H19.044V14.7236H19.0572V14.7301H19.0703V14.7365H19.0901V14.7431H19.1032V14.7496H19.1164V14.7561H19.1295V14.7627H19.1427V14.7692H19.1624V14.7757H19.1755V14.7822H19.1887V14.7888H19.2019V14.7954H19.2151V14.8019H19.2348V14.8084H19.2479V14.8149H19.2611V14.8214H19.2808V14.8279H19.294V14.8345H19.3071V14.8409H19.3203V14.8474H19.34V14.854H19.3532V14.8605H19.3729V14.867H19.386V14.8735H19.4057V14.88H19.4189V14.8865H19.432V14.8931H19.4518V14.8996H19.4714V14.906H19.4845V14.9126H19.5043V14.9191H19.524V14.9255H19.5371V14.9321H19.5569V14.9386H19.5766V14.945H19.5964V14.9516H19.616V14.9581H19.6357V14.9646H19.6555V14.9711H19.6752V14.9776H19.6949V14.9841H19.7146V14.9906H19.7343V14.9972H19.7606V15.0037H19.7804V15.0101H19.8067V15.0167H19.8264V15.0232H19.8527V15.0297H19.8724V15.0363H19.8987V15.0427H19.9316V15.0493H19.9579V15.0558H19.9842V15.0624H20.0105V15.0689H20.0434V15.0754H20.0762V15.0821H20.1092V15.0885H20.142V15.095H20.1814V15.1016H20.2209V15.108H20.267V15.1145H20.3064V15.121H20.359V15.1276H20.4182V15.1341H20.484V15.1407H20.5629V15.1472H20.6813V15.1537H21.0693V15.1472H21.1415V15.1407H21.2008V15.1341H21.2468V15.1276H21.2862V15.121H21.3191V15.1145H21.352V15.108H21.3849V15.1016H21.4112V15.095H21.4375V15.0885H21.4638V15.0821H21.4835V15.0754H21.5032V15.0689H21.5295V15.0624H21.5492V15.0558H21.569V15.0493H21.5821V15.0427H21.6018V15.0363H21.615V15.0297H21.6347V15.0232H21.6478V15.0167H21.6676V15.0101H21.6807V15.0037H21.6939V14.9972H21.707V14.9906H21.7202V14.9841H21.7333V14.9776H21.7465V14.9711H21.7531V14.9646H21.7663V14.9581H21.7794V14.9516H21.786V14.945H21.7992V14.9386H21.8122V14.9321H21.8189V14.9255H21.832V14.9191H21.8386V14.9126H21.8452V14.906H21.8584V14.8996H21.8649V14.8931H21.8715V14.8865H21.8847V14.88H21.8913V14.8735H21.8979V14.867H21.9045V14.8605H21.911V14.854H21.9176V14.8474H21.9242V14.8409H21.9374V14.8345H21.9439V14.8279H21.9505V14.8214H21.9572V14.8149H21.9637V14.8017H21.9703V14.7952H21.9768V14.7886H21.9835V14.7821H21.9901V14.7756H21.9966V14.7624H22.0032V14.7558H22.0098V14.7493H22.0164V14.7361H22.023V14.7297H22.0295V14.7164H22.0362V14.7034H22.0427V14.6968H22.0493V14.6836H22.0559V14.6705H22.0625V14.6572H22.0691V14.6376H22.0756V14.6244H22.0822V14.6047H22.0888V14.585H22.0954V14.5587H22.102V14.5324H22.1085V14.493H22.1151V14.3549H22.1085V14.3088H22.102V14.2892H22.0954V14.2629H22.0888V14.2432H22.0822V14.2301H22.0756V14.2103H22.0691V14.1972H22.0625V14.184H22.0559V14.1709H22.0493V14.1577H22.0427V14.1512H22.0362V14.138H22.0295V14.1315H22.023V14.1184H22.0164V14.1118H22.0098V14.0987H22.0032V14.0922H21.9966V14.0856H21.9901V14.0725H21.9835V14.0659H21.9768V14.0594H21.9703V14.0528H21.9637V14.0464H21.9572V14.0331H21.9505V14.0267H21.9439V14.0202H21.9374V14.0136H21.9308V14.007H21.9242V14.0005H21.9176V13.994H21.911V13.9875H21.9045V13.981H21.8913V13.9744H21.8847V13.9679H21.8781V13.9613H21.8715V13.9548H21.8649V13.9484H21.8584V13.9417H21.8518V13.9352H21.8386V13.9287H21.832V13.9222H21.8255V13.9156H21.8189V13.9091H21.8057V13.9026H21.7992V13.896H21.7926V13.8895H21.7794V13.8829H21.7728V13.8765H21.7663V13.8699H21.753V13.8634H21.7465V13.857H21.7333V13.8503H21.7267V13.8438H21.7202V13.8373H21.7071V13.8307H21.7005V13.8242H21.6873V13.8178H21.6808V13.8113H21.6677V13.8047H21.661V13.7982H21.6479V13.7918H21.6347V13.7852H21.6282V13.7787H21.6151V13.7723H21.6084V13.7657H21.5953V13.7592H21.5887V13.7527H21.5755V13.7461H21.5624V13.7397H21.5492V13.7332H21.5426V13.7266H21.5295V13.7201H21.5163V13.7136H21.5098V13.7071H21.4965V13.7006H21.4834V13.6941H21.4702V13.6875H21.4636V13.681H21.4505V13.6746H21.4373V13.668H21.4242V13.6615H21.411V13.655H21.3979V13.6485H21.3913V13.642H21.3782V13.6355H21.3649V13.629H21.3518V13.6224H21.3386V13.616H21.3255V13.6095H21.3123V13.6029H21.2992V13.5963H21.286V13.5899H21.2729V13.5833H21.2597V13.5768H21.2531V13.5703H21.24V13.5638H21.2268V13.5573H21.2137V13.5508H21.2005V13.5443H21.1874V13.5377H21.1742V13.5313H21.1611V13.5248H21.1478V13.5182H21.1347V13.5118H21.115V13.5053H21.1018V13.4987H21.0887V13.4922H21.0755V13.4857H21.0623V13.4792H21.0492V13.4726H21.036V13.4661H21.0229V13.4596H21.0097V13.4531H20.9965V13.4466H20.9834V13.44H20.9702V13.4334H20.9571V13.4269H20.9505V13.4204H20.9374V13.4139H20.9242V13.4073H20.911V13.4008H20.8979V13.3943H20.8847V13.3877H20.8716V13.3811H20.8584V13.3746H20.8452V13.3681H20.8386V13.3616H20.8255V13.3551H20.8122V13.3485H20.7992V13.3419H20.7859V13.3355H20.7794V13.329H20.7663V13.3224H20.7531V13.3158H20.7399V13.3093H20.7333V13.3028H20.7202V13.2963H20.707V13.2897H20.6939V13.2832H20.6807V13.2767H20.6741V13.2702H20.661V13.2637H20.6478V13.2571H20.6413V13.2505H20.628V13.244H20.6215V13.2375H20.6084V13.231H20.5951V13.2244H20.5886V13.2179H20.5754V13.2114H20.5623V13.2048H20.5557V13.1984H20.5425V13.1919H20.5294V13.1853H20.5228V13.1788H20.5096V13.1723H20.5031V13.1657H20.4899V13.1592H20.4833V13.1527H20.4702V13.1462H20.4636V13.1396H20.4505V13.133H20.4438V13.1265H20.4307V13.12H20.4242V13.1135H20.4109V13.107H20.4044V13.1005H20.3912V13.094H20.3846V13.0875H20.378V13.081H20.3649V13.0744H20.3583V13.068H20.3452V13.0615H20.3386V13.0549H20.332V13.0484H20.3189V13.0419H20.3123V13.0354H20.3057V13.0289H20.2925V13.0224H20.286V13.0158H20.2793V13.0093H20.2662V13.0029H20.2597V12.9963H20.2465V12.9898H20.2399V12.9833H20.2333V12.9768H20.2267V12.9703H20.2201V12.9638H20.207V12.9573H20.2003V12.9507H20.1938V12.9442H20.1872V12.9378H20.174V12.9312H20.1674V12.9247H20.1609V12.9182H20.1543V12.9116H20.1477V12.9052H20.1345V12.8987H20.128V12.8921H20.1213V12.8856H20.1148V12.879H20.1082V12.8725H20.095V12.866H20.0884V12.8595H20.0819V12.853H20.0753V12.8464H20.0687V12.8398H20.0621V12.8333H20.0555V12.8269H20.049V12.8203H20.0424V12.8138H20.0357V12.8073H20.0292V12.8007H20.0226V12.7943H20.0094V12.7877H20.0029V12.7812H19.9963V12.7746H19.9897V12.7681H19.9831V12.7616H19.9765V12.7549H19.9699V12.7485H19.9634V12.742H19.9567V12.7354H19.9502V12.7289H19.9436V12.7223H19.9371V12.7092H19.9304V12.7026H19.9238V12.696H19.9173V12.6896H19.9107V12.683H19.9041V12.6765H19.8975V12.6701H19.8909V12.6635H19.8844V12.6569H19.8778V12.6504H19.8711V12.6439H19.8646V12.6373H19.858V12.6307H19.8515V12.6176H19.8448V12.611H19.8383V12.6046H19.8317V12.5981H19.8251V12.5849H19.8185V12.5784H19.8119V12.5718H19.8054V12.5653H19.7988V12.5521H19.7921V12.5456H19.7856V12.539H19.779V12.5324H19.7724V12.5193H19.7658V12.5128H19.7592V12.5062H19.7527V12.4998H19.7461V12.4867H19.7394V12.4801H19.7329V12.467H19.7263V12.4604H19.7198V12.4474H19.7131V12.4409H19.7066V12.4277H19.7V12.4212H19.6934V12.408H19.6868V12.4015H19.6802V12.3884H19.6736V12.3818H19.6671V12.3687H19.6605V12.3623H19.6539V12.3491H19.6473V12.336H19.6407V12.3228H19.6342V12.3163H19.6275V12.3031H19.621V12.29H19.6144V12.2769H19.6079V12.2637H19.6012V12.2505H19.5946V12.2373H19.5881V12.2308H19.5815V12.2177H19.5749V12.2045H19.5683V12.1914H19.5617V12.1716H19.5552V12.1585H19.5485V12.1388H19.5419V12.1256H19.5354V12.106H19.5288V12.0928H19.5222V12.0797H19.5156V12.0599H19.5091V12.0468H19.5025V12.0271H19.4959V12.0008H19.4893V11.981H19.4827V11.9548H19.4762V11.9351H19.4696V11.9088H19.4629V11.8891H19.4564V11.8628H19.4498V11.8299H19.4432V11.7905H19.4366V11.7511H19.43V11.7116H19.4235V11.6656H19.4169V11.5604H19.4103V11.3961H19.4169V11.2909H19.4235V11.2253H19.43V11.1726H19.4366V11.1266H19.4432V11.0872H19.4498V11.0477H19.4564V11.0215H19.4629V10.9886H19.4696V10.9623H19.4762V10.9294H19.4827V10.9097H19.4893V10.8834H19.4959V10.8637H19.5025V10.8374H19.5091V10.8177H19.5156V10.798H19.5222V10.7783H19.5288V10.7586H19.5354V10.7389H19.5419V10.7191H19.5485V10.6995H19.5552V10.6863H19.5617V10.6665H19.5683V10.6534H19.5749V10.6403H19.5815V10.6205H19.5881V10.6073H19.5946V10.5877H19.6012V10.5745H19.6079V10.5614H19.6144V10.5482H19.621V10.5351H19.6275V10.5219H19.6342V10.5088H19.6407V10.4957H19.6473V10.4824H19.6539V10.4694H19.6605V10.4562H19.6671V10.4431H19.6736V10.4299H19.6802V10.4234H19.6868V10.4103H19.6934V10.3971H19.7V10.384H19.7066V10.3708H19.7131V10.3642H19.7198V10.3511H19.7263V10.3379H19.7329V10.3313H19.7394V10.3182H19.7461V10.3116H19.7527V10.2985H19.7592V10.292H19.7658V10.2788H19.7724V10.2657H19.779V10.2591H19.7856V10.246H19.7921V10.2394H19.7988V10.2328H19.8054V10.2197H19.8119V10.2132H19.8185V10.2H19.8251V10.1935H19.8317V10.1871H19.8383V10.1738H19.8448V10.1674H19.8515V10.1609H19.858V10.1477H19.8646V10.1412H19.8711V10.1346H19.8778V10.1216H19.8844V10.115H19.8909V10.1084H19.8975V10.1019H19.9041V10.0955H19.9107V10.0823H19.9173V10.0758H19.9238V10.0693H19.9304V10.0627H19.9371V10.0496H19.9436V10.0431H19.9502V10.0365H19.9567V10.0301H19.9634V10.0235H19.9699V10.017H19.9765V10.0104H19.9831V10.0039H19.9897V9.99075H19.9963V9.98422H20.0029V9.97769H20.0094V9.97125H20.0161V9.96472H20.0226V9.95819H20.0292V9.95166H20.0358V9.94514H20.0424V9.93869H20.049V9.93216H20.0555V9.92564H20.0621V9.91911H20.0687V9.91258H20.0753V9.90614H20.0819V9.89961H20.0884V9.89308H20.095V9.88655H20.1016V9.88002H20.1082V9.87358H20.1148V9.86705H20.1213V9.86052H20.128V9.85408H20.1346V9.84755H20.1411V9.84102H20.1477V9.83458H20.1609V9.82805H20.1674V9.82152H20.174V9.81499H20.1807V9.80846H20.1872V9.80202H20.1938V9.79549H20.2003V9.78896H20.2136V9.78243H20.2201V9.7759H20.2267V9.76946H20.2333V9.76293H20.2399V9.7564H20.2465V9.74988H20.2597V9.74335H20.2662V9.73673H20.2728V9.73029H20.286V9.72376H20.2926V9.71723H20.2991V9.7107H20.3057V9.70417H20.3189V9.69773H20.3255V9.6912H20.332V9.68467H20.3386V9.67814H20.3518V9.67161H20.3584V9.66517H20.3716V9.65864H20.3781V9.65211H20.3847V9.6455H20.3979V9.63897H20.4045V9.63244H20.4175V9.626H20.4242V9.61947H20.4308V9.61285H20.4439V9.60632H20.4505V9.5998H20.4636V9.59327H20.4702V9.58682H20.4834V9.58021H20.4899V9.57368H20.5031V9.56715H20.5097V9.56062H20.5228V9.55401H20.536V9.54748H20.5426V9.54103H20.5558V9.53451H20.5623V9.52798H20.5754V9.52136H20.5887V9.51483H20.5952V9.5083H20.6084V9.50186H20.6215V9.49533H20.6281V9.48872H20.6413V9.48219H20.6544V9.47566H20.6676V9.46913H20.6742V9.46251H20.6874V9.45607H20.7005V9.44954H20.7137V9.44301H20.7268V9.43648H20.74V9.42987H20.7531V9.42334H20.7663V9.4169H20.7728V9.41037H20.786V9.40384H20.7992V9.39722H20.8123V9.39069H20.8255V9.38417H20.8452V9.37772H20.8583V9.37119H20.8715V9.36467H20.8846V9.35814H20.8978V9.35161H20.911V9.34517H20.9241V9.33864H20.9438V9.33219H20.957V9.32567H20.9701V9.31914H20.9899V9.31269H21.0031V9.30608H21.0227V9.29955H21.0359V9.29302H21.0491V9.28658H21.0688V9.28005H21.082V9.27352H21.1017V9.26699H21.1214V9.26055H21.1346V9.25402H21.1543V9.24749H21.1739V9.24096H21.1937V9.23443H21.2069V9.22799H21.2265V9.22146H21.2463V9.21493H21.266V9.20849H21.2858V9.20196H21.3121V9.19552H21.3318V9.18899H21.3514V9.18246H21.3712V9.17602H21.3909V9.16949H21.4172V9.16296H21.4435V9.15643H21.4633V9.14991H21.4896V9.14329H21.5158V9.13685H21.5421V9.13032H21.5684V9.12379H21.5947V9.11726H21.621V9.11082H21.6539V9.10429H21.6802V9.09776H21.7131V9.09132H21.746V9.08479H21.7789V9.07826H21.8117V9.07182H21.8512V9.06529H21.8906V9.05876H21.9301V9.05214H21.9761V9.0457H22.0222V9.03917H22.0748V9.03264H22.1274V9.0262H22.1932V9.01959H22.2721V9.01306H22.351V9.00653H22.4825V9H22.8836V9.00653H23.0152V9.01306H23.0941V9.01959H23.1796V9.0262H23.2453V9.03264H23.2979V9.03917H23.3505V9.0457H23.3965V9.05214H23.4491V9.05876H23.4952V9.06529H23.5281V9.07182H23.5676V9.07826H23.6004V9.08479H23.6399V9.09132H23.6728V9.09776H23.7122V9.10429H23.7385V9.11082H23.7648V9.11726H23.7977V9.12379H23.824V9.13032H23.8569V9.13685H23.8832V9.14329H23.9095V9.14991H23.9358V9.15643H23.9621V9.16296H23.9884V9.16949H24.0081V9.17602H24.0344V9.18246H24.0607V9.18899H24.0805V9.19552H24.1068V9.20196H24.133V9.20849H24.1527V9.21493H24.1724V9.22146H24.1922V9.22799H24.2185V9.23443H24.2382V9.24096H24.2579V9.24749H24.2776V9.25402H24.2973V9.26055H24.3236V9.26699H24.3434V9.27352H24.3631V9.28005H24.3828V9.28658H24.396V9.29302H24.4157V9.29955H24.4354V9.30608H24.4551V9.31269H24.4748V9.31914H24.4946V9.32567H24.5077V9.3651H24.5011V9.39139H24.4946V9.42421H24.488V9.45712H24.4813V9.48341H24.4747V9.51622H24.4682V9.54913H24.4616V9.57542H24.455V9.60833H24.4484V9.64115H24.4418V9.66744H24.4353V9.70034H24.4287V9.73316H24.4221V9.75945H24.4155V9.79236H24.409V9.82518H24.4024V9.85147H24.3958V9.88437H24.3892V9.91728H24.3826V9.94357H24.376V9.97639H24.3694V10.0093H24.3629V10.0356H24.3563V10.0684H24.3497V10.1013H24.3431V10.1276H24.3365V10.1604H24.33V10.1933H24.3234V10.2196H24.3167V10.2525H24.3102V10.2853H24.3036V10.3116H24.2971V10.3445H24.2904V10.3774H24.2838V10.4036H24.2773V10.4365H24.2707V10.4694H24.2641V10.4957H24.2575V10.5286H24.2509V10.5615H24.2444V10.5878H24.2377V10.6206H24.2312V10.6535H24.2246V10.6798H24.218V10.7126H24.2114V10.7455H24.2048V10.7718H24.1983V10.8046H24.1917V10.8375H24.1851V10.8638H24.1785V10.8966H24.1719V10.9229H24.1522V10.9165H24.1391V10.9099H24.126V10.9033H24.1129V10.8968H24.0931V10.8903H24.0799V10.8837H24.0603V10.8771H24.0471V10.8707H24.034V10.8642H24.0142V10.8576H24.001V10.8511H23.9813V10.8445H23.9682V10.838H23.9482V10.8315H23.9351V10.825H23.9153V10.8185H23.8957V10.8118H23.8825V10.8053H23.8627V10.7988H23.8496V10.7923H23.8299V10.7857H23.8102V10.7792H23.7904V10.7727H23.7708V10.7661H23.751V10.7596H23.7313V10.753H23.7116V10.7465H23.6919V10.74H23.6656V10.7335H23.6459V10.727H23.6196V10.7204H23.5998V10.7139H23.5735V10.7074H23.5538V10.7008H23.5275V10.6943H23.5012V10.6879H23.4749V10.6813H23.4486V10.6748H23.4223V10.6683H23.396V10.6617H23.3697V10.6552H23.3369V10.6487H23.3039V10.6422H23.271V10.6356H23.2382V10.629H23.1987V10.6225H23.1593V10.6161H23.1198V10.6095H23.0738V10.603H23.0212V10.5965H22.9686V10.5899H22.9028V10.5835H22.8173V10.577H22.6858V10.5704H22.482V10.577H22.3636V10.5835H22.2978V10.5899H22.2386V10.5965H22.1992V10.603H22.1663V10.6095H22.1334V10.6161H22.1005V10.6225H22.0677V10.629H22.0479V10.6356H22.0282V10.6422H22.0085V10.6487H21.9822V10.6552H21.9625V10.6617H21.9428V10.6683H21.923V10.6748H21.9033V10.6813H21.8836V10.6879H21.8704V10.6943H21.8573V10.7008H21.8441V10.7074H21.831V10.7139H21.8178V10.7204H21.8047V10.727H21.7915V10.7335H21.7784V10.74H21.7652V10.7465H21.752V10.753H21.7454V10.7596H21.7323V10.7661H21.7257V10.7727H21.7125V10.7792H21.706V10.7857H21.6928V10.7923H21.6862V10.7988H21.6797V10.8053H21.6664V10.8118H21.6599V10.8185H21.6468V10.825H21.6401V10.8315H21.6336V10.838H21.627V10.8445H21.6205V10.8511H21.6138V10.8576H21.6072V10.8642H21.6007V10.8707H21.5941V10.8771H21.5875V10.8837H21.5809V10.8903H21.5743V10.8968H21.5678V10.9033H21.5612V10.9099H21.5546V10.9165H21.548V10.9229H21.5414V10.9361H21.5349V10.9428H21.5282V10.9559H21.5217V10.9691H21.5151V10.9757H21.5085V10.9888H21.5019V10.9953H21.4953V11.0084H21.4888V11.0149H21.4822V11.0347H21.4755V11.0544H21.469V11.0676H21.4624V11.0873H21.4559V11.1004H21.4492V11.1267H21.4426V11.1596H21.4361V11.2844H21.4426V11.3107H21.4492V11.337H21.4559V11.3568H21.4624V11.3765H21.469V11.3896H21.4755V11.4028H21.4822V11.4159H21.4888V11.429H21.4953V11.4422H21.5019V11.4488H21.5085V11.4619H21.5151V11.4685H21.5217V11.4816H21.5282V11.4882H21.5349V11.5013H21.5414V11.5079H21.548V11.5144H21.5546V11.521H21.5612V11.5274H21.5678V11.5406H21.5743V11.5471H21.5809V11.5536H21.5875V11.5601H21.5941V11.5667H21.6007V11.5733H21.6072V11.5798H21.6138V11.5863H21.6205V11.5928H21.627V11.5993H21.6336V11.6058H21.6401V11.6123H21.6534V11.6188H21.6599V11.6253H21.6665V11.6319H21.6731V11.6383H21.6797V11.6448H21.6863V11.6514H21.6994V11.6579H21.706V11.6645H21.7126V11.671H21.7191V11.6775H21.7323V11.684H21.7389V11.6905H21.7455V11.697H21.7587V11.7035H21.7652V11.71H21.7718V11.7165H21.785V11.723H21.7916V11.7295H21.8047V11.7361H21.8114V11.7426H21.8245V11.749H21.831V11.7556H21.8442V11.7621H21.8508V11.7686H21.864V11.7752H21.8705V11.7816H21.8837V11.7881H21.8903V11.7947H21.9034V11.8012H21.9166V11.8077H21.9232V11.8142H21.9363V11.8207H21.9495V11.8272H21.956V11.8338H21.9693V11.8403H21.9824V11.8467H21.9889V11.8533H22.0022V11.8598H22.0153V11.8663H22.0285V11.8728H22.035V11.8793H22.0482V11.8858H22.0614V11.8923H22.0745V11.8988H22.0811V11.9053H22.0942V11.9118H22.1074V11.9184H22.1205V11.9248H22.1337V11.9313H22.1403V11.9379H22.1535V11.9444H22.1666V11.951H22.1798V11.9575H22.1929V11.964H22.2061V11.9705H22.2192V11.977H22.2258V11.9837H22.239V11.9902H22.2521V11.9966H22.2653V12.0032H22.2784V12.0097H22.2916V12.0163H22.3047V12.0228H22.3179V12.0294H22.331V12.0358H22.3377V12.0424H22.3508V12.0489H22.364V12.0555H22.3771V12.0619H22.3903V12.0684H22.4034V12.0751H22.4166V12.0816H22.4297V12.0881H22.4429V12.0946H22.4561V12.1011H22.4626V12.1077H22.4758V12.1142H22.489V12.1208H22.5021V12.1273H22.5153V12.1339H22.5284V12.1404H22.5416V12.1469H22.5548V12.1534H22.5679V12.1599H22.5745V12.1666H22.5877V12.173H22.6009V12.1795H22.614V12.1861H22.6272V12.1926H22.6403V12.1992H22.6535V12.2056H22.6601V12.2122H22.6732V12.2187H22.6864V12.2252H22.6995V12.2318H22.7127V12.2382H22.7193V12.2447H22.7325V12.2513H22.7456V12.2579H22.7588V12.2644H22.7719V12.2709H22.7851V12.2774H22.7917V12.2839H22.8047V12.2905H22.8179V12.297H22.8245V12.3035H22.8377V12.31H22.8508V12.3165H22.864V12.3231H22.8706V12.3296H22.8837V12.336H22.8969V12.3426H22.91V12.3491H22.9167V12.3556H22.9298V12.3622H22.943V12.3686H22.9495V12.3751H22.9626V12.3817H22.9693V12.3882H22.9824V12.3947H22.9956V12.4012H23.0022V12.4077H23.0153V12.4142H23.0285V12.4208H23.0351V12.4273H23.0482V12.4337H23.0548V12.4403H23.0679V12.4468H23.0745V12.4533H23.0877V12.4598H23.1008V12.4663H23.1075V12.4728H23.1206V12.4793H23.1272V12.4858H23.1404V12.4923H23.1469V12.4988H23.1601V12.5054H23.1667V12.5118H23.1798V12.5183H23.1864V12.5249H23.193V12.5314H23.2061V12.5379H23.2128V12.5445H23.2259V12.551H23.2324V12.5575H23.2456V12.564H23.2522V12.5706H23.2588V12.5772H23.272V12.5836H23.2785V12.5902H23.2918V12.5967H23.2983V12.6032H23.3049V12.6097H23.3114V12.6162H23.3246V12.6227H23.3312V12.6292H23.3377V12.6359H23.3509V12.6424H23.3575V12.6489H23.364V12.6554H23.3707V12.6619H23.3838V12.6685H23.3904V12.675H23.397V12.6816H23.4102V12.6881H23.4167V12.6945H23.4234V12.7011H23.4299V12.7077H23.4365V12.7142H23.4431V12.7207H23.4562V12.7274H23.4628V12.7339H23.4694V12.7403H23.476V12.7469H23.4826V12.7534H23.4891V12.76H23.5023V12.7665H23.5089V12.7731H23.5155V12.7795H23.522V12.786H23.5286V12.7926H23.5353V12.7992H23.5418V12.8057H23.5484V12.8122H23.5549V12.8187H23.5616V12.8252H23.5681V12.8317H23.5747V12.8382H23.5813V12.8447H23.5879V12.8513H23.5945V12.8578H23.6011V12.8644H23.6143V12.8709H23.6208V12.8773H23.6274V12.884H23.6339V12.8972H23.6406V12.9036H23.6472V12.9102H23.6537V12.9167H23.6603V12.9232H23.6669V12.9297H23.6735V12.9362H23.6801V12.9427H23.6866V12.9492H23.6932V12.9557H23.6998V12.9688H23.7064V12.9754H23.713V12.9819H23.7196V12.9883H23.7262V12.9949H23.7327V13.0014H23.7393V13.0079H23.7459V13.0211H23.7525V13.0276H23.7591V13.0341H23.7657V13.0473H23.7722V13.0538H23.7789V13.0602H23.7854V13.0668H23.792V13.0799H23.7985V13.0864H23.8052V13.093H23.8118V13.0995H23.8183V13.1126H23.8249V13.1191H23.8315V13.1323H23.8381V13.1389H23.8447V13.152H23.8512V13.1585H23.8579V13.1717H23.8644V13.1782H23.871V13.1913H23.8776V13.1979H23.8842V13.211H23.8908V13.2175H23.8973V13.2307H23.9039V13.2438H23.9105V13.2504H23.9171V13.2635H23.9237V13.2767H23.9302V13.2898H23.9368V13.3029H23.9435V13.3095H23.95V13.3226H23.9566V13.3358H23.9631V13.3489H23.9698V13.3621H23.9764V13.3752H23.9829V13.3883H23.9895V13.4016H23.9961V13.4213H24.0027V13.4344H24.0093V13.4475H24.0158V13.4672H24.0225V13.4804H24.029V13.4935H24.0356V13.5133H24.0422V13.5329H24.0488V13.5526H24.0554V13.5724H24.0619V13.5921H24.0685V13.6118H24.0751V13.6315H24.0817V13.6512H24.0883V13.6775H24.0949V13.7038H24.1014V13.7301H24.1081V13.7629H24.1146V13.7892H24.1212V13.8221H24.1278V13.8681H24.1344V13.9207H24.141V13.9667H24.1475V14.0654H24.1541V14.2757H24.1475V14.3742H24.141V14.4531H24.1344V14.4991H24.1278V14.5452H24.1212V14.5912H24.1146V14.6241H24.1081V14.6569H24.1014V14.6898H24.0949V14.7226H24.0883V14.7489H24.0817V14.7752H24.0751V14.8015H24.0685V14.8278H24.0619V14.8475H24.0554V14.8738H24.0488V14.8935H24.0422V14.9132H24.0356V14.9329H24.029V14.9527H24.0225V14.9724H24.0158V14.992H24.0093V15.0118H24.0027V15.0249H23.9961V15.0446H23.9895V15.0578H23.9829V15.0775H23.9764V15.0907H23.9698V15.1103H23.9631V15.1235H23.9566V15.1366H23.95V15.1498H23.9435V15.1629H23.9368V15.1827H23.9302V15.1958H23.9237V15.209H23.9171V15.2221H23.9105V15.2352H23.9039V15.2484H23.8973V15.2616H23.8908V15.2747H23.8842V15.2812H23.8776V15.2944H23.871V15.3075H23.8644V15.3207H23.8579V15.3338H23.8512V15.347H23.8447V15.3535H23.8381V15.3666H23.8315V15.3798H23.8249V15.3863H23.8183V15.3994H23.8118V15.406H23.8052V15.4191H23.7985V15.4323H23.792V15.4388H23.7854V15.4519H23.7789V15.4585H23.7722V15.4715H23.7657V15.4781H23.7591V15.4912H23.7525V15.4977H23.7459V15.5043H23.7393V15.5174H23.7327V15.524H23.7262V15.5372H23.7196V15.5437H23.713V15.5568H23.7064V15.5634H23.6998V15.5698H23.6932V15.583H23.6865V15.5895H23.68V15.596H23.6734V15.6025H23.6669V15.6156H23.6602V15.6221H23.6536V15.6287H23.6471V15.6352H23.6405V15.6483H23.6339V15.6549H23.6273V15.6614H23.6207V15.6678H23.6142V15.6744H23.6076V15.6875H23.601V15.694H23.5944V15.7006H23.5878V15.707H23.5813V15.7135H23.5746V15.7201H23.5681V15.7266H23.5615V15.7331H23.5549V15.7396H23.5483V15.7527H23.5417V15.7592H23.5352V15.7658H23.5286V15.7723H23.5219V15.7789H23.5154V15.7854H23.5088V15.7919H23.5023V15.7984H23.4956V15.8049H23.489V15.8116H23.4825V15.8181H23.4759V15.8245H23.4693V15.8311H23.4627V15.8376H23.4561V15.8442H23.4496V15.8507H23.4429V15.8573H23.4364V15.8637H23.4298V15.8703H23.4232V15.8768H23.41V15.8834H23.4035V15.8899H23.3969V15.8964H23.3903V15.903H23.3837V15.9095H23.3771V15.916H23.3706V15.9225H23.364V15.9291H23.3508V15.9357H23.3443V15.9422H23.3377V15.9487H23.331V15.9552H23.3245V15.9618H23.3179V15.9683H23.3047V15.9749H23.2981V15.9814H23.2916V15.9878H23.285V15.9945H23.2718V16.001H23.2652V16.0075H23.2587V16.014H23.252V16.0206H23.2389V16.0272H23.2323V16.0336H23.2257V16.0402H23.2126V16.0467H23.206V16.0532H23.1994V16.0597H23.1863V16.0662H23.1797V16.0727H23.1665V16.0792H23.1599V16.0858H23.1534V16.0923H23.1402V16.0987H23.1336V16.1053H23.127V16.1118H23.1138V16.1184H23.1073V16.1249H23.0941V16.1315H23.0809V16.1379H23.0744V16.1444H23.0611V16.151H23.0546V16.1575H23.0415V16.164H23.0348V16.1705H23.0217V16.177H23.0151V16.1835H23.0019V16.1901H22.9953V16.1966H22.9822V16.203H22.969V16.2096H22.9559V16.2161H22.9493V16.2226H22.9362V16.2291H22.923V16.2356H22.9099V16.2421H22.9032V16.2486H22.8901V16.2551H22.8769V16.2616H22.8638V16.2681H22.8506V16.2747H22.844V16.2811H22.831V16.2876H22.8177V16.2942H22.8046V16.3007H22.7914V16.3072H22.7783V16.3137H22.7651V16.3202H22.752V16.3267H22.7388V16.3333H22.7257V16.3398H22.7125V16.3462H22.6927V16.3528H22.6796V16.3593H22.6665V16.3658H22.6533V16.3724H22.6401V16.379H22.627V16.3854H22.6073V16.3919H22.5941V16.3985H22.581V16.4051H22.5613V16.4116H22.5482V16.4181H22.5284V16.4246H22.5152V16.4311H22.4956V16.4377H22.4823V16.4443H22.4626V16.4508H22.4495V16.4572H22.4297V16.4638H22.41V16.4704H22.3904V16.4769H22.3706V16.4834H22.3574V16.4899H22.3378V16.4965H22.318V16.503H22.2983V16.5095H22.2785V16.5161H22.2523V16.5226H22.2325V16.5292H22.2129V16.5357H22.1931V16.5422H22.1734V16.5487H22.1471V16.5553H22.1208V16.5619H22.0945V16.5683H22.0748V16.5748H22.0485V16.5814H22.0222V16.588H21.9959V16.5945H21.9696V16.601H21.9433V16.6075H21.9104V16.614H21.8841V16.6206H21.8513V16.6272H21.8183V16.6336H21.7854V16.6401H21.746V16.6467H21.7131V16.6531H21.6802V16.6596H21.6342V16.6662H21.5948V16.6727H21.5487V16.6793H21.5027V16.6858H21.4435V16.6923H21.3909V16.6988H21.3317V16.7053H21.2528V16.7119H21.1673V16.7184H21.0423V16.7249L20.5493 16.7262ZM10.9221 16.6144V16.6079H10.9155V16.5816H10.9089V16.5553H10.9023V16.529H10.8958V16.5028H10.8892V16.4765H10.8825V16.4568H10.876V16.4305H10.8694V16.4042H10.8629V16.3779H10.8562V16.3516H10.8496V16.3253H10.8431V16.2991H10.8365V16.2794H10.8299V16.2531H10.8233V16.2268H10.8167V16.2005H10.8102V16.1742H10.8036V16.1479H10.797V16.1216H10.7904V16.0953H10.7838V16.0756H10.7773V16.0493H10.7706V16.023H10.7641V15.9967H10.7575V15.9704H10.7509V15.9441H10.7443V15.9178H10.7377V15.8982H10.7312V15.8719H10.7246V15.8456H10.7179V15.8193H10.7114V15.793H10.7048V15.7667H10.6983V15.7404H10.6916V15.7141H10.685V15.6944H10.6785V15.6681H10.6719V15.6418H10.6653V15.6155H10.6587V15.5892H10.6521V15.5629H10.6456V15.5366H10.639V15.5104H10.6324V15.4907H10.6258V15.4644H10.6192V15.4381H10.6127V15.4118H10.606V15.3855H10.5995V15.3592H10.5929V15.3329H10.5863V15.3133H10.5797V15.287H10.5731V15.2607H10.5666V15.2344H10.56V15.2081H10.5533V15.1818H10.5468V15.1555H10.5402V15.1292H10.5337V15.1095H10.527V15.0832H10.5204V15.0569H10.5139V15.0306H10.5073V15.0043H10.5007V14.978H10.4941V14.9517H10.4875V14.9321H10.481V14.9058H10.4743V14.8795H10.4678V14.8532H10.4612V14.8269H10.4546V14.8006H10.448V14.7743H10.4414V14.748H10.4349V14.7284H10.4283V14.7021H10.4217V14.6758H10.4151V14.6495H10.4085V14.6232H10.402V14.5969H10.3954V14.5706H10.3887V14.5443H10.3822V14.5246H10.3756V14.4983H10.3691V14.472H10.3624V14.4457H10.3558V14.4194H10.3493V14.3931H10.3427V14.3668H10.3361V14.3471H10.3295V14.3209H10.3229V14.2946H10.3164V14.2683H10.3097V14.242H10.3032V14.2157H10.2966V14.1894H10.29V14.1631H10.2834V14.1434H10.2768V14.1171H10.2703V14.0908H10.2637V14.0645H10.2571V14.0382H10.2505V14.0119H10.2439V13.9856H10.2374V13.9659H10.2308V13.9397H10.2241V13.9134H10.2176V13.8871H10.211V13.8608H10.2045V13.8345H10.1978V13.8082H10.1912V13.7819H10.1847V13.7622H10.1781V13.7359H10.1715V13.7096H10.1649V13.6833H10.1583V13.657H10.1518V13.6307H10.1451V13.6044H10.1386V13.5781H10.132V13.5584H10.1254V13.5322H10.1188V13.5059H10.1122V13.4796H10.1057V13.4533H10.0991V13.427H10.092V13.4007H10.0854V13.3809H10.0788V13.3547H10.0722V13.3284H10.0656V13.3021H10.0591V13.2758H10.0525V13.2495H10.0459V13.2232H10.0393V13.1969H10.0327V13.1772H10.0262V13.151H10.0196V13.1247H10.0129V13.0984H10.0064V13.0721H9.99979V13.0458H9.99325V13.0195H9.98663V12.9998H9.98002V12.9735H9.97348V12.9472H9.96686V12.921H9.96033V12.8947H9.95371V12.8684H9.94709V12.8421H9.94056V12.8158H9.93394V12.796H9.92741V12.7698H9.92079V12.7435H9.91417V12.7173H9.90764V12.691H9.90102V12.6647H9.89449V12.6384H9.88787V12.6186H9.88125V12.5923H9.87472V12.566H9.8681V12.5398H9.86157V12.5135H9.85495V12.4872H9.84833V12.4609H9.8418V12.4346H9.83518V12.4149H9.82865V12.3886H9.82203V12.3623H9.81541V12.336H9.80888V12.3098H9.80226V12.2835H9.79573V12.2572H9.78911V12.2309H9.78249V12.2112H9.77596V12.1849H9.76934V12.1586H9.76281V12.1323H9.75619V12.1061H9.74957V12.0798H9.74304V12.0535H9.73642V12.0337H9.72989V12.0074H9.72327V11.9811H9.71665V11.9548H9.71012V11.9286H9.7035V11.9023H9.69697V11.876H9.69035V11.8497H9.68373V11.83H9.6772V11.8037H9.67058V11.7774H9.66405V11.7511H9.65743V11.7248H9.65081V11.6986H9.64428V11.6723H9.63766V11.6525H9.63113V11.6262H9.62451V11.5999H9.61789V11.5736H9.61136V11.5473H9.60474V11.5211H9.5982V11.4948H9.59159V11.4685H9.58497V11.4488H9.57843V11.4225H9.57182V11.3962H9.56528V11.3699H9.55867V11.3436H9.55205V11.3174H9.54551V11.2911H9.5389V11.2714H9.53236V11.2451H9.52574V11.2188H9.51912V11.1925H9.51259V11.1662H9.50597V11.1399H9.49944V11.1136H9.49282V11.0874H9.4862V11.0676H9.47967V11.0413H9.47305V11.015H9.46652V10.9888H9.4599V10.9625H9.45328V10.9362H9.44675V10.9099H9.44013V10.8837H9.4336V10.8639H9.42698V10.8376H9.42036V10.8113H9.41383V10.785H9.40721V10.7587H9.40068V10.7324H9.39406V10.7062H9.38744V10.6864H9.38091V10.6602H9.37429V10.6339H9.36776V10.6076H9.36114V10.5813H9.35452V10.5616H9.34799V10.5353H9.34137V10.5156H9.33484V10.4893H9.32822V10.4695H9.3216V10.4499H9.31507V10.4302H9.30845V10.4104H9.30192V10.3973H9.2953V10.3776H9.28868V10.3645H9.28215V10.3513H9.27553V10.3316H9.269V10.3184H9.26238V10.3053H9.25576V10.2921H9.24923V10.279H9.24261V10.2725H9.23608V10.2593H9.22946V10.2463H9.22284V10.233H9.21631V10.2264H9.20969V10.2133H9.20316V10.2068H9.19654V10.2003H9.18992V10.1937H9.18339V10.1805H9.17677V10.174H9.17024V10.1674H9.16362V10.1609H9.157V10.1543H9.15046V10.1479H9.14385V10.1414H9.13731V10.1347H9.1307V10.1282H9.12412V10.1217H9.11754V10.1151H9.11095V10.1087H9.10437V10.1021H9.09778V10.0956H9.0912V10.089H9.07803V10.0825H9.07145V10.076H9.06486V10.0695H9.05173V10.063H9.04514V10.0565H9.03221V10.0499H9.02563V10.0433H9.01904V10.0368H9.00591V10.0304H8.99933V10.0238H8.98616V10.0173H8.97299V10.0107H8.96641V10.0042H8.95324V9.99763H8.9401V9.99119H8.93353V9.98466H8.92036V9.97813H8.90719V9.9716H8.89402V9.96507H8.88085V9.95863H8.87427V9.9521H8.86111V9.94557H8.84798V9.93904H8.82826V9.9326H8.81509V9.92607H8.80196V9.91954H8.78882V9.91301H8.77566V9.90648H8.76249V9.90004H8.74932V9.89351H8.73615V9.88698H8.72299V9.88045H8.70982V9.87393H8.69011V9.86748H8.67697V9.86095H8.6638V9.85443H8.64409V9.8479H8.63092V9.84137H8.61778V9.83493H8.60462V9.8284H8.58491V9.82187H8.57174V9.81534H8.55857V9.80881H8.53885V9.80237H8.52568V9.79584H8.51255V9.78931H8.49283V9.78278H8.47312V9.77634H8.45998V9.76981H8.44027V9.76328H8.4271V9.75675H8.40739V9.75031H8.38767V9.74378H8.37454V9.73725H8.35482V9.73072H8.34165V9.72411H8.32193V9.71767H8.30222V9.71114H8.28905V9.70461H8.26933V9.69808H8.24961V9.69155H8.22989V9.68511H8.21018V9.67858H8.19046V9.67205H8.17075V9.66561H8.15103V9.65908H8.13786V9.65255H8.11815V9.64602H8.09843V9.63958H8.07871V9.63296H8.05899V9.62643H8.03928V9.61991H8.01956V9.61338H7.99984V9.60685H7.97354V9.60023H7.95382V9.59379H7.9341V9.58726H7.9144V9.58073H7.89468V9.5742H7.86838V9.56759H7.84813V9.56106H7.82841V9.55462H7.80869V9.54809H7.7824V9.54147H7.76268V9.53494H7.73638V9.52841H7.71666V9.52188H7.69036V9.51544H7.67064V9.50883H7.64434V9.5023H7.62462V9.49577H7.59833V9.48924H7.57861V9.48271H7.55231V9.47609H7.53259V9.46965H7.50629V9.46312H7.47999V9.45659H7.45369V9.44998H7.42739V9.44345H7.40109V9.43692H7.37479V9.43048H7.34849V9.42395H7.32219V9.41733H7.29589V9.4108H7.27617V9.40436H7.24987V9.39783H7.21699V9.3913H7.19069V9.38469H7.16439V9.37816H7.1315V9.37163H7.1052V9.36519H7.07891V9.35866H7.0526V9.35213H7.01972V9.3456H7V9.30617H7.00658V9.27335H7.01317V9.24706H7.01975V9.21415H7.02634V9.18124H7.03292V9.14843H7.0395V9.12214H10.4459V9.12866H10.4985V9.13528H10.5314V9.14172H10.5642V9.14825H10.5905V9.15478H10.6102V9.16131H10.63V9.16784H10.6563V9.17428H10.6694V9.18081H10.6891V9.18734H10.7024V9.19378H10.722V9.20031H10.7352V9.20684H10.7483V9.21328H10.7616V9.21981H10.7747V9.22634H10.7879V9.23287H10.7944V9.2394H10.8077V9.24584H10.8208V9.25237H10.8273V9.2589H10.8406V9.26534H10.8537V9.27187H10.8603V9.2784H10.8669V9.28484H10.88V9.29137H10.8866V9.29798H10.8932V9.30442H10.9064V9.31095H10.9129V9.31748H10.9196V9.32392H10.9261V9.33045H10.9393V9.33698H10.9459V9.34351H10.9525V9.34995H10.959V9.35648H10.9656V9.36301H10.9723V9.36954H10.9788V9.37598H10.9854V9.38251H10.9919V9.38913H10.9986V9.39566H11.0052V9.40219H11.0117V9.40871H11.0183V9.41516H11.0249V9.42177H11.0315V9.435H11.0381V9.44145H11.0446V9.44798H11.0512V9.45459H11.0578V9.46774H11.0644V9.47427H11.071V9.48088H11.0775V9.49403H11.0842V9.50056H11.0907V9.5137H11.0973V9.52023H11.1039V9.53337H11.1105V9.53982H11.1171V9.55305H11.1236V9.56619H11.1302V9.57281H11.1369V9.58595H11.1434V9.5991H11.15V9.61224H11.1565V9.62539H11.1632V9.63853H11.1698V9.65168H11.1763V9.67135H11.1829V9.68459H11.1895V9.70426H11.1961V9.7174H11.2027V9.73717H11.2092V9.75684H11.2159V9.7766H11.2224V9.80289H11.229V9.82918H11.2356V9.85547H11.2422V9.88176H11.2488V9.9212H11.2553V9.95401H11.2619V9.98692H11.2685V10.0264H11.2751V10.0593H11.2817V10.0921H11.2882V10.1315H11.2948V10.1644H11.3015V10.1973H11.308V10.2301H11.3146V10.2696H11.3211V10.3025H11.3278V10.3353H11.3344V10.3747H11.3409V10.4076H11.3475V10.4406H11.3541V10.48H11.3607V10.5128H11.3673V10.5457H11.3738V10.5851H11.3805V10.6181H11.387V10.6509H11.3936V10.6903H11.4002V10.7232H11.4068V10.756H11.4134V10.7955H11.4199V10.8284H11.4265V10.8612H11.4331V10.8941H11.4397V10.9335H11.4463V10.9664H11.4528V10.9993H11.4594V11.0387H11.4661V11.0716H11.4726V11.1044H11.4792V11.1439H11.4857V11.1768H11.4924V11.2097H11.499V11.2491H11.5055V11.2819H11.5121V11.3148H11.5187V11.3543H11.5253V11.3871H11.5319V11.42H11.5384V11.4529H11.5451V11.4923H11.5516V11.5251H11.5582V11.5581H11.5648V11.5975H11.5714V11.6304H11.578V11.6632H11.5845V11.7027H11.5911V11.7356H11.5977V11.7684H11.6043V11.8078H11.6109V11.8407H11.6174V11.8735H11.6241V11.913H11.6307V11.9459H11.6372V11.9788H11.6438V12.0116H11.6504V12.051H11.657V12.0839H11.6636V12.1168H11.6701V12.1562H11.6767V12.1891H11.6833V12.222H11.6899V12.2614H11.6965V12.2943H11.703V12.3272H11.7097V12.3666H11.7162V12.3994H11.7228V12.4323H11.7294V12.4718H11.736V12.5046H11.7426V12.5375H11.7491V12.5704H11.7557V12.6098H11.7624V12.6426H11.7689V12.6756H11.7755V12.715H11.782V12.7478H11.7887V12.7807H11.7953V12.8202H11.8018V12.853H11.8084V12.8859H11.815V12.9253H11.8216V12.9582H11.8282V12.991H11.8347V13.0305H11.8413V13.0634H11.8479V13.0962H11.8545V13.1291H11.8611V13.1685H11.8676V13.2014H11.8743V13.2343H11.8808V13.2737H11.8874V13.3066H11.894V13.3394H11.9006V13.3789H11.9072V13.4118H11.9137V13.4447H11.9203V13.484H11.927V13.5169H11.9335V13.5498H11.9401V13.5893H11.9466V13.6221H11.9533V13.655H11.9599V13.6944H11.9664V13.7272H11.973V13.7601H11.9796V13.7931H11.9862V13.8325H11.9928V13.8653H11.9993V13.8982H12.0059V13.9377H12.0125V13.9705H12.0191V14.0034H12.0257V14.0428H12.0322V14.0757H12.0389V14.1085H12.0454V14.148H12.052V14.1809H12.0586V14.2006H12.0652V14.1874H12.0718V14.1677H12.0783V14.1546H12.0849V14.1348H12.0916V14.1217H12.0981V14.102H12.1047V14.0889H12.1112V14.0691H12.1179V14.056H12.1245V14.0363H12.131V14.0231H12.1376V14.0034H12.1442V13.9837H12.1508V13.9706H12.1574V13.9509H12.1639V13.9377H12.1706V13.918H12.1771V13.9048H12.1837V13.8849H12.1903V13.8718H12.1969V13.852H12.2035V13.8388H12.21V13.8192H12.2166V13.806H12.2232V13.7864H12.2298V13.7731H12.2364V13.7534H12.2429V13.7403H12.2495V13.7206H12.2562V13.7074H12.2627V13.6877H12.2693V13.668H12.2758V13.6549H12.2825V13.6351H12.2891V13.622H12.2956V13.6023H12.3022V13.5892H12.3088V13.5694H12.3154V13.5563H12.322V13.5366H12.3285V13.5234H12.3352V13.5037H12.3417V13.4905H12.3483V13.4708H12.3549V13.4576H12.3615V13.438H12.3681V13.4248H12.3746V13.4051H12.3812V13.3854H12.3878V13.3722H12.3944V13.3525H12.401V13.3393H12.4075V13.3197H12.4141V13.3065H12.4208V13.2868H12.4273V13.2736H12.4339V13.2539H12.4404V13.2408H12.4471V13.221H12.4537V13.2079H12.4602V13.1882H12.4668V13.1751H12.4734V13.1553H12.48V13.1422H12.4866V13.1225H12.4931V13.1093H12.4998V13.0897H12.5063V13.0699H12.5129V13.0568H12.5195V13.037H12.5261V13.0239H12.5327V13.0042H12.5392V12.991H12.5458V12.9713H12.5524V12.9581H12.559V12.9385H12.5656V12.9253H12.5721V12.9055H12.5788V12.8924H12.5854V12.8727H12.5919V12.8596H12.5985V12.8398H12.6051V12.8267H12.6117V12.807H12.6183V12.7872H12.6248V12.7741H12.6314V12.7544H12.638V12.7413H12.6446V12.7216H12.6512V12.7085H12.6577V12.6887H12.6644V12.6756H12.6709V12.6559H12.6775V12.6427H12.6841V12.623H12.6907V12.6098H12.6973V12.5902H12.7038V12.577H12.7104V12.5573H12.7171V12.5441H12.7236V12.5244H12.7302V12.5113H12.7367V12.4915H12.7434V12.4719H12.75V12.4586H12.7565V12.4389H12.7631V12.4258H12.7697V12.4061H12.7763V12.393H12.7829V12.3732H12.7894V12.3601H12.796V12.3404H12.8026V12.3273H12.8092V12.3075H12.8158V12.2943H12.8223V12.2747H12.829V12.2615H12.8355V12.2418H12.8421V12.2286H12.8487V12.209H12.8553V12.1892H12.8619V12.176H12.8684V12.1564H12.875V12.1432H12.8817V12.1236H12.8882V12.1104H12.8948V12.0906H12.9013V12.0775H12.908V12.0578H12.9146V12.0447H12.9211V12.0249H12.9277V12.0118H12.9343V11.9921H12.9409V11.979H12.9475V11.9592H12.954V11.946H12.9607V11.9264H12.9672V11.9132H12.9738V11.8935H12.9804V11.8738H12.987V11.8606H12.9936V11.8409H13.0001V11.8277H13.0067V11.808H13.0133V11.7949H13.0199V11.7752H13.0265V11.762H13.033V11.7423H13.0396V11.7292H13.0463V11.7094H13.0528V11.6963H13.0594V11.6766H13.0659V11.6634H13.0726V11.6437H13.0792V11.6306H13.0857V11.6108H13.0923V11.5911H13.0989V11.578H13.1055V11.5582H13.1121V11.5451H13.1186V11.5254H13.1253V11.5123H13.1318V11.4925H13.1384V11.4794H13.145V11.4596H13.1516V11.4465H13.1582V11.4268H13.1647V11.4136H13.1713V11.394H13.1779V11.3807H13.1845V11.3611H13.1911V11.3479H13.1976V11.3281H13.2042V11.315H13.2109V11.2953H13.2174V11.2756H13.224V11.2625H13.2305V11.2427H13.2372V11.2296H13.2438V11.2099H13.2503V11.1967H13.2569V11.177H13.2635V11.1639H13.2701V11.1442H13.2767V11.1311H13.2832V11.1113H13.2899V11.0982H13.2964V11.0785H13.303V11.0653H13.3096V11.0456H13.3162V11.0324H13.3228V11.0127H13.3293V10.993H13.3359V10.9798H13.3425V10.9602H13.3491V10.9469H13.3557V10.9273H13.3622V10.9141H13.3688V10.8944H13.3755V10.8813H13.382V10.8615H13.3886V10.8484H13.3952V10.8287H13.4018V10.8156H13.4084V10.7958H13.4149V10.7827H13.4215V10.763H13.4281V10.7499H13.4347V10.7301H13.4413V10.7169H13.4478V10.6973H13.4545V10.6775H13.461V10.6645H13.4676V10.6447H13.4742V10.6315H13.4808V10.6119H13.4874V10.5986H13.4939V10.579H13.5005V10.5658H13.5072V10.5461H13.5137V10.533H13.5203V10.5132H13.5268V10.5001H13.5335V10.4804H13.5401V10.4673H13.5466V10.4475H13.5532V10.4344H13.5598V10.4146H13.5664V10.4015H13.573V10.3818H13.5795V10.362H13.5861V10.3489H13.5927V10.3292H13.5993V10.316H13.6059V10.2963H13.6124V10.2832H13.6191V10.2634H13.6256V10.2503H13.6322V10.2306H13.6388V10.2174H13.6454V10.1978H13.652V10.1846H13.6585V10.1649H13.6651V10.1517H13.6718V10.132H13.6783V10.1189H13.6849V10.0991H13.6914V10.0795H13.6981V10.0663H13.7047V10.0466H13.7112V10.0335H13.7178V10.0137H13.7244V10.0006H13.731V9.98091H13.7376V9.96768H13.7441V9.94801H13.7507V9.93486H13.7573V9.91519H13.7639V9.90204H13.7705V9.88228H13.777V9.86914H13.7837V9.84946H13.7902V9.83632H13.7968V9.81656H13.8034V9.80341H13.81V9.78374H13.8166V9.76406H13.8231V9.75083H13.8297V9.73116H13.8364V9.71801H13.8429V9.69825H13.8495V9.6852H13.856V9.66543H13.8627V9.65229H13.8693V9.63261H13.8758V9.61947H13.8824V9.59971H13.889V9.58656H13.8956V9.5668H13.9022V9.55366H13.9087V9.53398H13.9154V9.52084H13.9219V9.50108H13.9285V9.4814H13.9351V9.46826H13.9417V9.4485H13.9483V9.43535H13.9548V9.41568H13.9614V9.40253H13.968V9.38277H13.9746V9.36963H13.9812V9.34995H13.9877V9.33672H13.9943V9.31705H14.001V9.3039H14.0075V9.28414H14.0141V9.27108H14.0206V9.25132H14.0273V9.23818H14.0339V9.2185H14.0404V9.20536H14.047V9.1856H14.0536V9.16592H14.0602V9.15278H14.0668V9.13302H14.0733V9.11987H16.1185V9.13963H16.1119V9.15278H16.1053V9.16592H16.0987V9.18568H16.0921V9.19883H16.0856V9.2185H16.079V9.23165H16.0724V9.24479H16.0658V9.26447H16.0592V9.2777H16.0527V9.29076H16.0461V9.31052H16.0394V9.32366H16.0329V9.34334H16.0263V9.35648H16.0198V9.36963H16.0131V9.38939H16.0065V9.40253H16V9.42221H15.9934V9.43535H15.9868V9.4485H15.9802V9.46826H15.9736V9.4814H15.9671V9.49455H15.9604V9.51431H15.9539V9.52745H15.9473V9.54713H15.9407V9.56027H15.9341V9.57342H15.9275V9.59318H15.921V9.60632H15.9144V9.626H15.9078V9.63914H15.9012V9.65229H15.8946V9.67205H15.8881V9.6852H15.8815V9.69834H15.8748V9.71801H15.8683V9.73116H15.8617V9.75092H15.8552V9.76406H15.8485V9.77721H15.8419V9.79697H15.8354V9.81012H15.8288V9.82979H15.8222V9.84293H15.8156V9.85608H15.809V9.87575H15.8025V9.8889H15.7958V9.90866H15.7893V9.9218H15.7827V9.93495H15.7761V9.95462H15.7695V9.96786H15.7629V9.981H15.7564V10.0007H15.7498V10.0138H15.7431V10.0336H15.7366V10.0467H15.73V10.0599H15.7235V10.0795H15.7168V10.0927H15.7102V10.1125H15.7037V10.1255H15.6971V10.1387H15.6905V10.1584H15.6839V10.1716H15.6773V10.1847H15.6708V10.2044H15.6642V10.2175H15.6576V10.2373H15.651V10.2504H15.6444V10.2636H15.6379V10.2832H15.6312V10.2964H15.6247V10.3162H15.6181V10.3293H15.6115V10.3424H15.6049V10.3621H15.5983V10.3753H15.5918V10.3884H15.5852V10.4082H15.5785V10.4213H15.572V10.441H15.5654V10.4541H15.5589V10.4674H15.5522V10.487H15.5456V10.5002H15.5391V10.5199H15.5325V10.533H15.5259V10.5461H15.5193V10.5659H15.5127V10.5791H15.5062V10.5922H15.4996V10.6119H15.493V10.625H15.4864V10.6448H15.4798V10.6579H15.4733V10.6711H15.4666V10.6907H15.4601V10.704H15.4535V10.7237H15.4469V10.7368H15.4403V10.7499H15.4337V10.7696H15.4272V10.7828H15.4206V10.7959H15.4139V10.8157H15.4074V10.8288H15.4008V10.8485H15.3943V10.8616H15.3876V10.8748H15.381V10.8945H15.3745V10.9076H15.3679V10.9274H15.3613V10.9405H15.3547V10.9536H15.3481V10.9734H15.3416V10.9866H15.3349V11.0063H15.3284V11.0195H15.3218V11.0326H15.3152V11.0523H15.3086V11.0654H15.302V11.0787H15.2955V11.0983H15.2889V11.1115H15.2823V11.1312H15.2757V11.1443H15.2691V11.1575H15.2626V11.1772H15.256V11.1903H15.2493V11.2101H15.2428V11.2232H15.2362V11.2364H15.2297V11.2561H15.223V11.2693H15.2164V11.2824H15.2099V11.3021H15.2033V11.3153H15.1967V11.335H15.1901V11.3481H15.1835V11.3613H15.177V11.381H15.1703V11.3941H15.1638V11.4139H15.1572V11.427H15.1506V11.4402H15.144V11.4599H15.1374V11.4731H15.1309V11.4862H15.1243V11.5059H15.1177V11.5191H15.1111V11.5388H15.1045V11.552H15.098V11.5651H15.0914V11.5849H15.0847V11.598H15.0782V11.6177H15.0716V11.6309H15.0651V11.644H15.0584V11.6637H15.0518V11.6769H15.0453V11.69H15.0387V11.7068H15.0321V11.7199H15.0255V11.7396H15.0189V11.7528H15.0124V11.7659H15.0057V11.7856H14.9992V11.7988H14.9926V11.8185H14.986V11.8316H14.9794V11.8448H14.9728V11.8645H14.9663V11.8776H14.9597V11.8974H14.9531V11.9105H14.9465V11.9237H14.9399V11.9434H14.9334V11.9566H14.9268V11.9697H14.9201V11.9894H14.9136V12.0025H14.907V12.0223H14.9004V12.0355H14.8938V12.0486H14.8872V12.0683H14.8807V12.0814H14.8741V12.1011H14.8675V12.1142H14.8609V12.1275H14.8543V12.1471H14.8478V12.1603H14.8411V12.1734H14.8346V12.1932H14.828V12.2063H14.8214V12.226H14.8148V12.2392H14.8082V12.2523H14.8017V12.2721H14.7951V12.2852H14.7884V12.3049H14.7819V12.318H14.7753V12.3312H14.7688V12.3509H14.7621V12.3641H14.7555V12.3772H14.749V12.3969H14.7424V12.41H14.7358V12.4298H14.7292V12.4429H14.7226V12.456H14.7161V12.4758H14.7095V12.4889H14.7029V12.5086H14.6963V12.5217H14.6897V12.5349H14.6832V12.5546H14.6765V12.5678H14.67V12.5809H14.6634V12.6006H14.6568V12.6138H14.6502V12.6335H14.6436V12.6467H14.6371V12.6598H14.6305V12.6796H14.6238V12.6927H14.6173V12.7124H14.6107V12.7255H14.6042V12.7387H14.5975V12.7583H14.5909V12.7715H14.5844V12.7846H14.5778V12.8044H14.5712V12.8175H14.5646V12.8372H14.558V12.8504H14.5515V12.8636H14.5449V12.8833H14.5383V12.8964H14.5317V12.9162H14.5251V12.9293H14.5186V12.9425H14.5119V12.9621H14.5054V12.9753H14.4988V12.995H14.4922V13.0081H14.4856V13.0212H14.479V13.041H14.4725V13.0541H14.4659V13.0673H14.4592V13.087H14.4527V13.1001H14.4461V13.1199H14.4396V13.133H14.4329V13.1462H14.4263V13.1659H14.4198V13.1791H14.4132V13.1987H14.4066V13.2119H14.4V13.2251H14.3934V13.2448H14.3869V13.2579H14.3802V13.2711H14.3737V13.2908H14.3671V13.304H14.3605V13.3237H14.3539V13.3368H14.3473V13.35H14.3408V13.3697H14.3342V13.3829H14.3276V13.4025H14.321V13.4157H14.3144V13.4289H14.3079V13.4469H14.3013V13.4601H14.2946V13.4732H14.2881V13.493H14.2815V13.5061H14.275V13.5258H14.2683V13.5389H14.2617V13.5521H14.2552V13.5719H14.2493V13.585H14.2427V13.6047H14.2361V13.6178H14.2295V13.631H14.223V13.6507H14.2163V13.6639H14.2098V13.677H14.2032V13.6967H14.1966V13.7099H14.19V13.7296H14.1834V13.7427H14.1769V13.7559H14.1703V13.7756H14.1637V13.7887H14.1571V13.8085H14.1505V13.8216H14.144V13.8348H14.1373V13.8544H14.1307V13.8676H14.1242V13.8873H14.1176V13.9005H14.111V13.9136H14.1044V13.9333H14.0978V13.9464H14.0913V13.9596H14.0847V13.9793H14.0781V13.9925H14.0715V14.0122H14.0649V14.0253H14.0584V14.0385H14.0517V14.0581H14.0452V14.0713H14.0386V14.091H14.032V14.1042H14.0254V14.1173H14.0188V14.1371H14.0123V14.1501H14.0057V14.1634H13.999V14.1831H13.9925V14.1962H13.9859V14.2159H13.9794V14.229H13.9727V14.2422H13.9661V14.2619H13.9596V14.2751H13.953V14.2947H13.9464V14.3079H13.9398V14.3211H13.9332V14.3408H13.9267V14.3539H13.9201V14.3671H13.9135V14.3868H13.9069V14.3999H13.9003V14.4197H13.8938V14.4328H13.8871V14.446H13.8806V14.4656H13.874V14.4788H13.8674V14.4985H13.8608V14.5117H13.8542V14.5248H13.8477V14.5445H13.8411V14.5576H13.8344V14.5708H13.8279V14.5905H13.8213V14.6037H13.8148V14.6235H13.8081V14.6366H13.8015V14.6497H13.795V14.6694H13.7884V14.6826H13.7818V14.7023H13.7752V14.7155H13.7686V14.7286H13.7621V14.7484H13.7555V14.7615H13.7489V14.7747H13.7423V14.7943H13.7357V14.8076H13.7291V14.8272H13.7225V14.8404H13.716V14.8535H13.7094V14.8732H13.7028V14.8864H13.6962V14.9061H13.6896V14.9193H13.6831V14.9324H13.6765V14.9522H13.6698V14.9653H13.6633V14.985H13.6567V14.9981H13.6502V15.0113H13.6435V15.031H13.6369V15.0441H13.6304V15.0573H13.6238V15.077H13.6172V15.0901H13.6106V15.1099H13.604V15.1231H13.5975V15.1362H13.5908V15.1559H13.5843V15.169H13.5777V15.1888H13.5711V15.2019H13.5645V15.2151H13.5579V15.2348H13.5514V15.248H13.5448V15.2611H13.5382V15.2809H13.5316V15.294H13.525V15.3137H13.5185V15.3268H13.5119V15.34H13.5052V15.3597H13.4987V15.3729H13.4921V15.3926H13.4856V15.4057H13.4789V15.4189H13.4723V15.4386H13.4658V15.4517H13.4592V15.4648H13.4526V15.4846H13.446V15.4977H13.4394V15.5174H13.4329V15.5305H13.4262V15.5438H13.4197V15.5635H13.4131V15.5766H13.4065V15.5964H13.3999V15.6095H13.3933V15.6227H13.3868V15.6423H13.3802V15.6555H13.3736V15.6686H13.367V15.6884H13.3604V15.7015H13.3539V15.7212H13.3473V15.7343H13.3406V15.7475H13.3341V15.7672H13.3275V15.7803H13.3209V15.8001H13.3143V15.8132H13.3077V15.8264H13.3012V15.8461H13.2946V15.8592H13.288V15.8724H13.2814V15.8921H13.2748V15.9052H13.2683V15.9249H13.2616V15.938H13.2551V15.9512H13.2485V15.9709H13.2419V15.9841H13.2353V16.0038H13.2287V16.0169H13.2222V16.0301H13.2156V16.0498H13.2089V16.0629H13.2024V16.0826H13.1958V16.0958H13.1893V16.1089H13.1826V16.1287H13.176V16.1418H13.1695V16.155H13.1629V16.1747H13.1563V16.1879H13.1497V16.2076H13.1431V16.2207H13.1366V16.2339H13.13V16.2536H13.1234V16.2668H13.1168V16.2865H13.1102V16.2996H13.1037V16.3128H13.097V16.3325H13.0905V16.3456H13.0839V16.3588H13.0773V16.3784H13.0707V16.3916H13.0641V16.4114H13.0576V16.4245H13.051V16.4376H13.0443V16.4574H13.0378V16.4705H13.0312V16.4902H13.0247V16.5034H13.018V16.5165H13.0114V16.5363H13.0049V16.5494H12.9983V16.5626H12.9917V16.5822H12.9851V16.5954H12.9785V16.6151L10.9221 16.6144ZM15.3411 16.6144V16.5882H15.3478V16.5553H15.3543V16.529H15.3609V16.4961H15.3675V16.4632H15.3741V16.4369H15.3807V16.4041H15.3872V16.3712H15.3938V16.3449H15.4004V16.3121H15.407V16.2792H15.4136V16.2529H15.4201V16.22H15.4267V16.1872H15.4334V16.1609H15.4399V16.128H15.4465V16.0952H15.453V16.0689H15.4597V16.036H15.4663V16.0032H15.4728V15.9769H15.4794V15.944H15.486V15.9111H15.4926V15.8849H15.4992V15.8519H15.5057V15.819H15.5124V15.7928H15.5189V15.7599H15.5255V15.727H15.5321V15.7007H15.5387V15.6679H15.5453V15.635H15.5518V15.6087H15.5584V15.5759H15.565V15.543H15.5716V15.5167H15.5782V15.4838H15.5847V15.451H15.5913V15.4247H15.598V15.3918H15.6045V15.359H15.6111V15.3327H15.6177V15.2998H15.6243V15.267H15.6309V15.2407H15.6374V15.2078H15.644V15.1748H15.6506V15.1486H15.6572V15.1157H15.6638V15.0828H15.6703V15.05H15.677V15.0237H15.6835V14.9908H15.6901V14.958H15.6967V14.9317H15.7033V14.8988H15.7099V14.8659H15.7164V14.8396H15.723V14.8068H15.7297V14.7739H15.7362V14.7476H15.7428V14.7148H15.7493V14.6819H15.756V14.6556H15.7626V14.6228H15.7691V14.5899H15.7757V14.5636H15.7823V14.5307H15.7889V14.4978H15.7955V14.4715H15.802V14.4386H15.8086V14.4058H15.8152V14.3795H15.8218V14.3466H15.8284V14.3138H15.8349V14.2875H15.8416V14.2546H15.8481V14.2218H15.8547V14.1955H15.8613V14.1626H15.8679V14.1297H15.8745V14.1034H15.881V14.0706H15.8876V14.0377H15.8943V14.0114H15.9008V13.9786H15.9074V13.9457H15.9139V13.9194H15.9206V13.8866H15.9272V13.8536H15.9337V13.8274H15.9403V13.7944H15.9469V13.7616H15.9535V13.7353H15.9601V13.7024H15.9666V13.6696H15.9732V13.6433H15.9798V13.6104H15.9864V13.5776H15.993V13.5513H15.9995V13.5184H16.0062V13.4855H16.0127V13.4592H16.0193V13.4264H16.0259V13.3935H16.0325V13.3607H16.0391V13.3344H16.0456V13.3015H16.0522V13.2686H16.0589V13.2424H16.0654V13.2095H16.072V13.1765H16.0785V13.1503H16.0852V13.1174H16.0918V13.0845H16.0983V13.0582H16.1049V13.0254H16.1115V12.9925H16.1181V12.9662H16.1247V12.9334H16.1312V12.9005H16.1379V12.8742H16.1444V12.8414H16.151V12.8085H16.1576V12.7822H16.1642V12.7493H16.1708V12.7165H16.1773V12.6902H16.1839V12.6573H16.1905V12.6245H16.1971V12.5982H16.2037V12.5653H16.2102V12.5324H16.2168V12.5062H16.2235V12.4732H16.23V12.4403H16.2366V12.414H16.2431V12.3812H16.2498V12.3483H16.2564V12.322H16.2629V12.2892H16.2695V12.2563H16.2761V12.23H16.2827V12.1972H16.2893V12.1643H16.2958V12.138H16.3025V12.1051H16.309V12.0723H16.3156V12.046H16.3222V12.0131H16.3288V11.9803H16.3354V11.954H16.3419V11.9211H16.3485V11.8882H16.3551V11.8553H16.3617V11.8291H16.3683V11.7961H16.3748V11.7633H16.3814V11.737H16.3881V11.7041H16.3946V11.6713H16.4012V11.645H16.4077V11.6121H16.4144V11.5793H16.421V11.553H16.4275V11.5201H16.4341V11.4872H16.4407V11.461H16.4473V11.4281H16.4539V11.3952H16.4604V11.3689H16.4671V11.3361H16.4736V11.3032H16.4802V11.2769H16.4868V11.2441H16.4934V11.2111H16.5V11.1849H16.5065V11.152H16.5131V11.1191H16.5197V11.0928H16.5263V11.0599H16.5329V11.0271H16.5394V11.0008H16.5461V10.9679H16.5527V10.9351H16.5592V10.9088H16.5658V10.8759H16.5724V10.8431H16.579V10.8168H16.5856V10.7839H16.5921V10.751H16.5987V10.7247H16.6053V10.6919H16.6119V10.659H16.6185V10.6327H16.625V10.5999H16.6317V10.567H16.6382V10.5407H16.6448V10.5078H16.6514V10.4749H16.658V10.4487H16.6646V10.4157H16.6711V10.3829H16.6777V10.3566H16.6844V10.3237H16.6909V10.2909H16.6975V10.258H16.704V10.2317H16.7107V10.1989H16.7173V10.166H16.7238V10.1397H16.7304V10.1068H16.737V10.074H16.7436V10.0477H16.7502V10.0148H16.7567V9.98196H16.7633V9.95567H16.7699V9.92276H16.7765V9.88994H16.7831V9.86365H16.7896V9.83075H16.7963V9.79784H16.8028V9.77164H16.8094V9.73873H16.816V9.70583H16.8226V9.67954H16.8292V9.64672H16.8357V9.61381H16.8423V9.58752H16.849V9.5547H16.8555V9.5218H16.8621V9.49551H16.8686V9.46269H16.8753V9.42978H16.8819V9.40349H16.8884V9.37059H16.895V9.33777H16.9016V9.31148H16.9082V9.27857H16.9148V9.24575H16.9213V9.21946H16.9279V9.18655H16.9345V9.15374H16.9411V9.12745H16.9477V9.11421H18.8941V9.12745H18.8876V9.15374H18.881V9.18655H18.8745V9.21946H18.8678V9.24575H18.8612V9.27857H18.8547V9.31148H18.8481V9.33777H18.8415V9.37059H18.8349V9.40349H18.8283V9.4364H18.8218V9.46269H18.8151V9.49551H18.8086V9.52841H18.802V9.5547H18.7954V9.58752H18.7888V9.62043H18.7822V9.64672H18.7757V9.67954H18.7691V9.71244H18.7625V9.73873H18.7559V9.77164H18.7493V9.80446H18.7428V9.83075H18.7362V9.86365H18.7295V9.89647H18.723V9.92276H18.7164V9.95567H18.7099V9.98849H18.7032V10.0148H18.6966V10.0477H18.6901V10.0805H18.6835V10.1068H18.6769V10.1397H18.6703V10.1726H18.6637V10.1989H18.6572V10.2317H18.6505V10.2646H18.644V10.2909H18.6374V10.3237H18.6308V10.3566H18.6242V10.3829H18.6176V10.4157H18.6111V10.4487H18.6045V10.4749H18.5978V10.5078H18.5913V10.5407H18.5847V10.5736H18.5782V10.5999H18.5715V10.6327H18.5649V10.6656H18.5584V10.6919H18.5518V10.7247H18.5452V10.7576H18.5386V10.7839H18.532V10.8168H18.5255V10.8496H18.5189V10.8759H18.5123V10.9088H18.5057V10.9416H18.4991V10.9679H18.4926V11.0008H18.4859V11.0336H18.4794V11.0599H18.4728V11.0928H18.4662V11.1257H18.4596V11.152H18.453V11.1849H18.4465V11.2178H18.4399V11.2441H18.4332V11.2769H18.4267V11.3098H18.4201V11.3361H18.4136V11.3689H18.4069V11.4018H18.4003V11.4281H18.3938V11.461H18.3872V11.4938H18.3806V11.5201H18.374V11.553H18.3674V11.5858H18.3609V11.6121H18.3543V11.645H18.3477V11.6778H18.3411V11.7041H18.3345V11.737H18.328V11.7699H18.3213V11.8028H18.3148V11.8291H18.3082V11.862H18.3016V11.8948H18.295V11.9211H18.2884V11.954H18.2819V11.9868H18.2753V12.0131H18.2686V12.046H18.2621V12.0788H18.2555V12.1051H18.249V12.138H18.2423V12.1709H18.2357V12.1972H18.2292V12.23H18.2226V12.2629H18.216V12.2892H18.2094V12.322H18.2028V12.3549H18.1963V12.3812H18.1896V12.414H18.1831V12.447H18.1765V12.4732H18.1699V12.5062H18.1633V12.539H18.1567V12.5653H18.1502V12.5982H18.1436V12.631H18.137V12.6573H18.1304V12.6902H18.1238V12.723H18.1173V12.7493H18.1107V12.7822H18.104V12.8151H18.0975V12.8414H18.0909V12.8742H18.0844V12.9071H18.0777V12.9399H18.0711V12.9662H18.0646V12.9991H18.058V13.0319H18.0514V13.0582H18.0448V13.0911H18.0382V13.1241H18.0317V13.1503H18.025V13.1832H18.0185V13.2161H18.0119V13.2424H18.0053V13.2752H17.9987V13.3081H17.9921V13.3344H17.9856V13.3672H17.979V13.4001H17.9724V13.4264H17.9658V13.4592H17.9592V13.4921H17.9527V13.5184H17.9461V13.5513H17.9394V13.5841H17.9329V13.6104H17.9263V13.6433H17.9198V13.6761H17.9131V13.7024H17.9065V13.7353H17.9V13.7682H17.8934V13.7944H17.8868V13.8274H17.8802V13.8603H17.8736V13.8866H17.8671V13.9194H17.8604V13.9523H17.8539V13.9786H17.8473V14.0114H17.8407V14.0443H17.8341V14.0706H17.8275V14.1034H17.821V14.1363H17.8144V14.1692H17.8078V14.1955H17.8012V14.2283H17.7946V14.2612H17.7881V14.2875H17.7814V14.3203H17.7748V14.3532H17.7683V14.3795H17.7617V14.4124H17.7551V14.4453H17.7485V14.4715H17.7419V14.5045H17.7354V14.5373H17.7288V14.5636H17.7222V14.5965H17.7156V14.6293H17.709V14.6556H17.7025V14.6885H17.6958V14.7213H17.6893V14.7476H17.6827V14.7805H17.6761V14.8133H17.6695V14.8396H17.6629V14.8725H17.6564V14.9054H17.6498V14.9317H17.6431V14.9645H17.6366V14.9974H17.63V15.0237H17.6235V15.0565H17.6168V15.0895H17.6102V15.1157H17.6037V15.1486H17.5971V15.1815H17.5905V15.2078H17.5839V15.2407H17.5773V15.2735H17.5708V15.2998H17.5642V15.3327H17.5576V15.3655H17.551V15.3984H17.5444V15.4247H17.5379V15.4575H17.5312V15.4904H17.5247V15.5167H17.5181V15.5496H17.5115V15.5824H17.5049V15.6087H17.4983V15.6416H17.4918V15.6744H17.4852V15.7007H17.4785V15.7336H17.472V15.7665H17.4654V15.7928H17.4589V15.8257H17.4522V15.8586H17.4456V15.8849H17.4391V15.9177H17.4325V15.9506H17.4259V15.9769H17.4193V16.0097H17.4127V16.0426H17.4062V16.0689H17.3996V16.1017H17.393V16.1346H17.3864V16.1609H17.3798V16.1938H17.3733V16.2266H17.3666V16.2529H17.3601V16.2858H17.3535V16.3186H17.3469V16.3449H17.3403V16.3778H17.3337V16.4107H17.3272V16.4369H17.3206V16.4699H17.3139V16.5027H17.3074V16.529H17.3008V16.5619H17.2943V16.5948H17.2876V16.6144H15.3411ZM24.0478 16.6144V16.5948H24.0543V16.575H24.061V16.5619H24.0675V16.5422H24.0741V16.529H24.0807V16.5158H24.0873V16.4961H24.0939V16.483H24.1004V16.4699H24.107V16.4501H24.1136V16.4369H24.1202V16.4173H24.1268V16.4041H24.1333V16.391H24.1399V16.3713H24.1466V16.3581H24.1531V16.3384H24.1597V16.3253H24.1662V16.3121H24.1729V16.2924H24.1795V16.2793H24.186V16.2595H24.1926V16.2464H24.1992V16.2332H24.2058V16.2136H24.2124V16.2003H24.2189V16.1873H24.2256V16.1675H24.2321V16.1544H24.2387V16.1346H24.2453V16.1215H24.2519V16.1083H24.2585V16.0886H24.265V16.0754H24.2716V16.0557H24.2782V16.0426H24.2848V16.0294H24.2914V16.0098H24.2979V15.9966H24.3045V15.9835H24.3112V15.9637H24.3177V15.9506H24.3243V15.9309H24.3309V15.9177H24.3375V15.9045H24.3441V15.8849H24.3506V15.8717H24.3572V15.8519H24.3638V15.8389H24.3704V15.8257H24.377V15.806H24.3835V15.7928H24.3902V15.7732H24.3967V15.76H24.4033V15.7468H24.4099V15.7271H24.4165V15.714H24.4231V15.7008H24.4296V15.6811H24.4362V15.6679H24.4428V15.6482H24.4494V15.635H24.456V15.6219H24.4625V15.6022H24.4692V15.589H24.4758V15.5693H24.4823V15.5561H24.4889V15.543H24.4955V15.5232H24.5021V15.5101H24.5087V15.4904H24.5152V15.4772H24.5218V15.464H24.5284V15.4444H24.535V15.4312H24.5416V15.4181H24.5481V15.3983H24.5548V15.3853H24.5613V15.3655H24.5679V15.3523H24.5745V15.3392H24.5811V15.3195H24.5877V15.3064H24.5942V15.2866H24.6008V15.2735H24.6075V15.2603H24.614V15.2407H24.6206V15.2274H24.6271V15.2143H24.6338V15.1946H24.6404V15.1815H24.6469V15.1618H24.6535V15.1486H24.6601V15.1355H24.6667V15.1157H24.6733V15.1026H24.6798V15.0829H24.6864V15.0697H24.693V15.0565H24.6996V15.0369H24.7062V15.0237H24.7127V15.004H24.7194V14.9909H24.7259V14.9777H24.7325V14.958H24.7391V14.9449H24.7457V14.9317H24.7523V14.912H24.7588V14.8988H24.7654V14.8791H24.7721V14.866H24.7786V14.8528H24.7852V14.8332H24.7917V14.82H24.7984V14.8003H24.805V14.7871H24.8115V14.774H24.8181V14.7543H24.8247V14.7411H24.8313V14.728H24.8379V14.7082H24.8444V14.6951H24.851V14.6753H24.8576V14.6622H24.8642V14.649H24.8708V14.6294H24.8774V14.6161H24.884V14.5965H24.8905V14.5833H24.8971V14.5702H24.9037V14.5505H24.9103V14.5374H24.9169V14.5176H24.9234V14.5045H24.93V14.4913H24.9367V14.4716H24.9432V14.4585H24.9498V14.4453H24.9563V14.4256H24.963V14.4124H24.9696V14.3927H24.9761V14.3796H24.9827V14.3664H24.9893V14.3467H24.9959V14.3336H25.0025V14.3139H25.009V14.3007H25.0157V14.2876H25.0222V14.2678H25.0288V14.2547H25.0354V14.235H25.042V14.2219H25.0486V14.2087H25.0551V14.189H25.0617V14.1758H25.0683V14.1627H25.0749V14.1429H25.0815V14.1299H25.088V14.1101H25.0946V14.097H25.1013V14.0838H25.1078V14.0641H25.1144V14.0509H25.1209V14.0311H25.1276V14.018H25.1342V14.0049H25.1407V13.9852H25.1473V13.9719H25.1539V13.9588H25.1605V13.9391H25.1671V13.926H25.1736V13.9063H25.1803V13.8932H25.1868V13.88H25.1934V13.8603H25.2V13.8471H25.2066V13.8274H25.2132V13.8143H25.2197V13.8011H25.2263V13.7814H25.2329V13.7682H25.2395V13.7485H25.2461V13.7353H25.2526V13.7222H25.2593V13.7025H25.2659V13.6894H25.2724V13.6762H25.279V13.6566H25.2856V13.6433H25.2922V13.6237H25.2988V13.6105H25.3053V13.5974H25.3119V13.5776H25.3185V13.5645H25.3251V13.5447H25.3317V13.5316H25.3382V13.5184H25.3449V13.4987H25.3514V13.4856H25.358V13.4658H25.3646V13.4528H25.3712V13.4395H25.3778V13.4199H25.3843V13.4067H25.3909V13.3936H25.3976V13.3739H25.4041V13.3608H25.4107V13.341H25.4172V13.3278H25.4239V13.3147H25.4305V13.295H25.437V13.2819H25.4436V13.2622H25.4502V13.249H25.4568V13.2358H25.4634V13.2162H25.4699V13.203H25.4765V13.1898H25.4831V13.1701H25.4897V13.157H25.4963V13.1372H25.5028V13.1241H25.5095V13.1109H25.516V13.0912H25.5226V13.0781H25.5292V13.0584H25.5358V13.0453H25.5424V13.0321H25.5489V13.0124H25.5555V12.9992H25.5622V12.9795H25.5687V12.9663H25.5753V12.9532H25.5818V12.9335H25.5885V12.9203H25.5951V12.9072H25.6016V12.8874H25.6082V12.8744H25.6148V12.8546H25.6214V12.8415H25.628V12.8283H25.6345V12.8087H25.6411V12.7955H25.6477V12.7758H25.6543V12.7626H25.6609V12.7495H25.6674V12.7297H25.6741V12.7166H25.6806V12.7035H25.6872V12.6837H25.6938V12.6706H25.7004V12.6508H25.707V12.6377H25.7135V12.6245H25.7201V12.6048H25.7268V12.5916H25.7333V12.572H25.7399V12.5588H25.7464V12.5456H25.7531V12.5259H25.7597V12.5128H25.7662V12.4931H25.7728V12.4799H25.7794V12.4668H25.786V12.447H25.7926V12.4339H25.7991V12.4208H25.8058V12.4011H25.8123V12.3879H25.8189V12.3682H25.8255V12.355H25.8321V12.3419H25.8387V12.3221H25.8452V12.309H25.8518V12.2893H25.8584V12.2762H25.865V12.263H25.8716V12.2432H25.8781V12.2301H25.8847V12.2104H25.8914V12.1973H25.8979V12.1841H25.9045V12.1644H25.911V12.1512H25.9177V12.1381H25.9243V12.1183H25.9308V12.1052H25.9374V12.0854H25.944V12.0724H25.9506V12.0591H25.9572V12.0395H25.9637V12.0263H25.9704V12.0066H25.9769V11.9934H25.9835V11.9803H25.9901V11.9606H25.9967V11.9474H26.0033V11.9343H26.0098V11.9146H26.0164V11.9015H26.023V11.8817H26.0296V11.8686H26.0362V11.8554H26.0427V11.8358H26.0493V11.8226H26.056V11.8029H26.0625V11.7897H26.0691V11.7766H26.0756V11.7569H26.0823V11.7437H26.0889V11.724H26.0954V11.7108H26.102V11.6977H26.1086V11.6779H26.1152V11.6649H26.1218V11.6516H26.1283V11.632H26.135V11.6188H26.1415V11.5991H26.1481V11.586H26.1547V11.5729H26.1613V11.5532H26.1679V11.5399H26.1744V11.5203H26.181V11.5071H26.1877V11.494H26.1942V11.4742H26.2008V11.4611H26.2073V11.4414H26.214V11.4283H26.2206V11.4151H26.2271V11.3954H26.2337V11.3822H26.2403V11.3691H26.2469V11.3494H26.2535V11.3362H26.26V11.3166H26.2666V11.3034H26.2732V11.2903H26.2798V11.2705H26.2864V11.2574H26.2929V11.2377H26.2996V11.2246H26.3061V11.2114H26.3127V11.1916H26.3193V11.1785H26.3259V11.1654H26.3325V11.1456H26.339V11.1325H26.3456V11.1128H26.3523V11.0995H26.3588V11.0864H26.3654V11.0667H26.3719V11.0536H26.3786V11.0338H26.3852V11.0207H26.3917V11.0075H26.3983V10.9879H26.4049V10.9747H26.4115V10.955H26.4181V10.9418H26.4246V10.9287H26.4312V10.909H26.4378V10.8958H26.4444V10.8826H26.451V10.8629H26.4575V10.8498H26.4642V10.83H26.4707V10.8169H26.4773V10.8037H26.4839V10.7841H26.4905V10.7709H26.4971V10.7512H26.5036V10.738H26.5102V10.7249H26.5169V10.7052H26.5234V10.692H26.53V10.6723H26.5365V10.6591H26.5432V10.646H26.5498V10.6262H26.5563V10.6131H26.5629V10.5999H26.5695V10.5802H26.5761V10.567H26.5827V10.5474H26.5892V10.5341H26.5958V10.5211H26.6024V10.5013H26.609V10.4882H26.6156V10.4685H26.6222V10.4554H26.6288V10.4422H26.6353V10.4224H26.6419V10.4093H26.6485V10.3962H26.6551V10.3765H26.6617V10.3633H26.6682V10.3437H26.6748V10.3304H26.6815V10.3173H26.688V10.2976H26.6946V10.2845H26.7011V10.2647H26.7078V10.2516H26.7144V10.2384H26.7209V10.2187H26.7275V10.2056H26.7341V10.1858H26.7407V10.1727H26.7473V10.1595H26.7538V10.1399H26.7605V10.1267H26.767V10.1136H26.7736V10.0939H26.7802V10.0807H26.7868V10.061H26.7934V10.0479H26.7999V10.0347H26.8065V10.015H26.8131V10.0018H26.8197V9.98205H26.8263V9.9689H26.8328V9.95584H26.8394V9.93608H26.8461V9.92294H26.8526V9.90326H26.8592V9.89012H26.8657V9.87697H26.8724V9.85721H26.879V9.84415H26.8855V9.83092H26.8921V9.81125H26.8987V9.7981H26.9053V9.77834H26.9119V9.7652H26.9184V9.75205H26.9251V9.73238H26.9316V9.71915H26.9382V9.69947H26.9448V9.68633H26.9514V9.67318H26.958V9.65342H26.9645V9.64028H26.9711V9.62713H26.9777V9.61399H26.9843V9.60084H26.9909V9.5877H26.9974V9.57455H27.004V9.56141H27.0107V9.55496H27.0172V9.54173H27.0238V9.52859H27.0304V9.52206H27.037V9.51562H27.0436V9.50247H27.0501V9.49594H27.0567V9.4828H27.0633V9.47627H27.0699V9.46312H27.0765V9.45659H27.083V9.45006H27.0897V9.43692H27.0962V9.43039H27.1028V9.42395H27.1094V9.41742H27.116V9.4108H27.1226V9.40427H27.1291V9.39775H27.1357V9.3913H27.1424V9.38477H27.1489V9.37816H27.1555V9.37163H27.162V9.35848H27.1687V9.35196H27.1753V9.34551H27.1818V9.33898H27.195V9.33246H27.2016V9.32601H27.2082V9.31948H27.2147V9.31296H27.2279V9.30651H27.2345V9.29998H27.2411V9.29354H27.2476V9.28693H27.2608V9.2804H27.2674V9.27387H27.2739V9.26743H27.2872V9.2609H27.2937V9.25437H27.3069V9.24793H27.32V9.2414H27.3332V9.23487H27.3398V9.22843H27.3529V9.2219H27.3661V9.21537H27.3792V9.20884H27.3859V9.2024H27.399V9.19587H27.4187V9.18934H27.4319V9.1829H27.4516V9.17637H27.4713V9.16984H27.4845V9.16331H27.5042V9.15678H27.5239V9.15034H27.5502V9.14381H27.5765V9.13728H27.6094V9.13084H27.6357V9.12422H27.6949V9.1177H29.4507V9.15051H29.4572V9.18342H29.4637V9.20971H29.4702V9.24253H29.4769V9.27544H29.4834V9.30834H29.4899V9.33463H29.4964V9.36745H29.5029V9.40036H29.5095V9.43318H29.516V9.46608H29.5227V9.49237H29.5291V9.52519H29.5356V9.5581H29.5423V9.591H29.5488V9.62374H29.5554V9.65003H29.5619V9.68293H29.5686V9.71575H29.575V9.74866H29.5815V9.78148H29.5882V9.80777H29.5947V9.84067H29.6013V9.87349H29.6077V9.9064H29.6144V9.93269H29.6209V9.96559H29.6274V9.99841H29.6341V10.0313H29.6406V10.0641H29.6472V10.0904H29.6537V10.1233H29.6604V10.1562H29.6668V10.1891H29.6733V10.222H29.68V10.2483H29.6865V10.2811H29.6931V10.314H29.6996V10.3468H29.7063V10.3731H29.7127V10.406H29.7192V10.4388H29.7258V10.4717H29.7323V10.5046H29.7389V10.5309H29.7454V10.5637H29.752V10.5966H29.7585V10.6295H29.7649V10.6624H29.7716V10.6887H29.7781V10.7215H29.7847V10.7544H29.7913V10.7873H29.7977V10.8201H29.8042V10.8464H29.8108V10.8793H29.8174V10.9121H29.8239V10.945H29.8304V10.9713H29.8369V11.0041H29.8434V11.037H29.85V11.0699H29.8565V11.1028H29.8631V11.1291H29.8696V11.162H29.8761V11.1948H29.8826V11.2277H29.8891V11.2605H29.8957V11.2868H29.9021V11.3197H29.9087V11.3526H29.9152V11.3854H29.9216V11.4183H29.9282V11.4446H29.9347V11.4774H29.9412V11.5104H29.9477V11.5432H29.9542V11.5695H29.9607V11.6024H29.9673V11.6353H29.9737V11.6681H29.9802V11.701H29.9867V11.7273H29.9932V11.7601H29.9998V11.793H30.0063V11.8258H30.0127V11.8587H30.0193V11.885H30.0259V11.9179H30.0324V11.9508H30.0389V11.9837H30.0454V12.0165H30.0518V12.0428H30.0584V12.0757H30.0649V12.1085H30.0715V12.1414H30.078V12.1677H30.0846V12.2006H30.091V12.2334H30.0976V12.2663H30.1042V12.2991H30.1107V12.3254H30.1173V12.3583H30.1239V12.3912H30.1303V12.4241H30.1368V12.457H30.1434V12.4832H30.15V12.5161H30.1564V12.549H30.163V12.5818H30.1696V12.6147H30.176V12.641H30.1826V12.6738H30.1892V12.7067H30.1958V12.7396H30.2023V12.7658H30.2089V12.7987H30.2155V12.8316H30.222V12.8645H30.2286V12.8974H30.2351V12.9237H30.2417V12.9565H30.2482V12.9894H30.2548V13.0222H30.2614V13.0551H30.2679V13.0814H30.2745V13.1143H30.281V13.1471H30.2876V13.18H30.2941V13.2128H30.3007V13.2391H30.3073V13.272H30.3137V13.3049H30.3203V13.3378H30.3269V13.3641H30.3335V13.397H30.34V13.4298H30.3466V13.4627H30.353V13.4955H30.3595V13.5218H30.3661V13.5547H30.3727V13.5875H30.3793V13.6204H30.3857V13.6533H30.3923V13.6796H30.3989V13.7124H30.4054V13.7454H30.412V13.7782H30.4186V13.8111H30.425V13.8374H30.4316V13.8702H30.4381V13.9031H30.4447V13.936H30.4511V13.9623H30.4578V13.9951H30.4643V14.028H30.4708V14.0608H30.4774V14.0937H30.4838V14.12H30.4904V14.1528H30.497V14.1858H30.5035V14.2187H30.5099V14.2515H30.5165V14.2778H30.523V14.3107H30.5295V14.3435H30.5361V14.3764H30.5426V14.4092H30.5491V14.4355H30.5557V14.4684H30.5621V14.5013H30.5686V14.5341H30.5751V14.5604H30.5816V14.5933H30.5881V14.6262H30.5947V14.6591H30.6012V14.6919H30.6077V14.7182H30.6142V14.7511H30.6207V14.784H30.6272V14.8168H30.6337V14.8497H30.6402V14.876H30.6468V14.9088H30.6532V14.9417H30.6597V14.9745H30.6663V15.0074H30.6728V15.0337H30.6792V15.0666H30.6858V15.0995H30.6923V15.1324H30.6989V15.1587H30.7055V15.1915H30.712V15.2244H30.7184V15.2572H30.725V15.2901H30.7315V15.3164H30.738V15.3493H30.7446V15.3821H30.7512V15.415H30.7576V15.4478H30.7642V15.4741H30.7707V15.507H30.7773V15.5399H30.7838V15.5728H30.7904V15.5991H30.7969V15.632H30.8034V15.6648H30.81V15.6977H30.8165V15.7305H30.8231V15.7568H30.8296V15.7897H30.8362V15.8225H30.8427V15.8554H30.8492V15.8883H30.8559V15.9146H30.8624V15.9474H30.869V15.9804H30.8755V16.0132H30.8821V16.0461H30.8886V16.0724H30.8951V16.1052H30.9018V16.1381H30.9082V16.171H30.9148V16.1973H30.9214V16.2301H30.928V16.263H30.9345V16.2958H30.941V16.3287H30.9477V16.355H30.9541V16.3878H30.9607V16.4208H30.9673V16.4537H30.9739V16.4865H30.9804V16.5128H30.9869V16.5457H30.9935V16.5785H31V16.6179H29.2051V16.6114H29.1985V16.5786H29.1919V16.5457H29.1854V16.5129H29.1787V16.4866H29.1721V16.4537H29.1656V16.4208H29.159V16.3879H29.1524V16.3616H29.1458V16.3287H29.1392V16.2959H29.1326V16.263H29.126V16.2367H29.1194V16.2039H29.1129V16.171H29.1063V16.1382H29.0997V16.1119H29.0931V16.079H29.0865V16.0461H29.0799V16.0133H29.0734V15.987H29.0667V15.9541H29.0601V15.9212H29.0536V15.8883H29.047V15.8555H29.0404V15.8292H29.0338V15.7963H29.0272V15.7634H29.0206V15.7306H29.014V15.7043H29.0074V15.6714H29.0009V15.6386H28.9943V15.6057H28.9877V15.5794H28.9811V15.5466H28.9745V15.5137H28.968V15.5005H26.4821V15.5203H26.4756V15.54H26.469V15.5531H26.4623V15.5729H26.4558V15.5925H26.4492V15.6123H26.4427V15.6254H26.436V15.6451H26.4295V15.6648H26.4229V15.6845H26.4163V15.7043H26.4097V15.7174H26.4031V15.7371H26.3965V15.7568H26.39V15.7765H26.3833V15.7896H26.3768V15.8094H26.3702V15.8291H26.3636V15.8488H26.357V15.862H26.3504V15.8816H26.3439V15.9014H26.3373V15.9212H26.3307V15.9343H26.3241V15.954H26.3175V15.9737H26.311V15.9934H26.3044V16.0132H26.2977V16.0263H26.2912V16.046H26.2846V16.0657H26.2781V16.0854H26.2714V16.0986H26.2648V16.1182H26.2583V16.138H26.2517V16.1577H26.2451V16.1708H26.2385V16.1906H26.2319V16.2103H26.2254V16.2299H26.2187V16.2432H26.2122V16.2628H26.2056V16.2825H26.199V16.3023H26.1924V16.3154H26.1858V16.3351H26.1793V16.3549H26.1727V16.3745H26.166V16.3943H26.1595V16.4074H26.1529V16.4271H26.1464V16.4469H26.1397V16.4665H26.1331V16.4797H26.1266V16.4994H26.12V16.5191H26.1134V16.5389H26.1068V16.552H26.1003V16.5717H26.0937V16.5915H26.0871V16.6111H26.0805V16.6177L24.0478 16.6144ZM27.053 13.9458V13.9523H28.651V13.9326H28.6443V13.9063H28.6378V13.8734H28.6312V13.8406H28.6247V13.8077H28.618V13.7749H28.6114V13.7486H28.6049V13.7157H28.5983V13.6828H28.5917V13.6499H28.5851V13.617H28.5785V13.5907H28.572V13.5578H28.5653V13.525H28.5588V13.4921H28.5522V13.4593H28.5456V13.433H28.539V13.4001H28.5324V13.3673H28.5259V13.3344H28.5193V13.3081H28.5127V13.2752H28.5061V13.2424H28.4995V13.2095H28.493V13.1766H28.4864V13.1503H28.4797V13.1174H28.4732V13.0846H28.4666V13.0517H28.4601V13.0188H28.4534V12.9925H28.4468V12.9597H28.4403V12.9268H28.4337V12.894H28.4271V12.8611H28.4205V12.8348H28.4139V12.802H28.4074V12.7691H28.4007V12.7361H28.3942V12.7033H28.3876V12.677H28.381V12.6441H28.3744V12.6113H28.3678V12.5784H28.3613V12.5521H28.3547V12.5193H28.3481V12.4864H28.3415V12.4535H28.3349V12.4207H28.3284V12.3944H28.3218V12.3615H28.3151V12.3286H28.3086V12.2957H28.302V12.2629H28.2955V12.2366H28.2888V12.2037H28.2822V12.1708H28.2757V12.138H28.2691V12.1051H28.2625V12.0788H28.2559V12.046H28.2493V12.0131H28.2428V11.9803H28.2361V11.9474H28.2296V11.9211H28.223V11.8882H28.2164V11.8553H28.2098V11.8224H28.2032V11.7896H28.1967V11.7633H28.1901V11.7304H28.1834V11.6976H28.1769V11.6647H28.1703V11.6384H28.1638V11.6055H28.1571V11.5727H28.1505V11.5398H28.144V11.507H28.1374V11.4807H28.1308V11.4478H28.1242V11.4149H28.1176V11.382H28.1111V11.3491H28.1045V11.3228H28.0979V11.29H28.0913V11.2571H28.0847V11.2243H28.0782V11.1914H28.0715V11.1651H28.0584V11.1849H28.0518V11.2045H28.0452V11.2242H28.0386V11.2374H28.0321V11.2571H28.0255V11.2769H28.0188V11.2965H28.0123V11.3097H28.0057V11.3295H27.9992V11.3491H27.9925V11.3689H27.9859V11.382H27.9794V11.4017H27.9728V11.4215H27.9662V11.4412H27.9596V11.4609H27.953V11.474H27.9465V11.4937H27.9399V11.5135H27.9333V11.5332H27.9267V11.5463H27.9201V11.5661H27.9136V11.5857H27.9069V11.6054H27.9004V11.6186H27.8938V11.6383H27.8872V11.6581H27.8806V11.6778H27.874V11.6909H27.8675V11.7107H27.8609V11.7303H27.8542V11.7501H27.8477V11.7632H27.8411V11.7829H27.8346V11.8026H27.8279V11.8223H27.8213V11.8355H27.8148V11.8552H27.8082V11.8749H27.8016V11.8946H27.795V11.9077H27.7884V11.9275H27.7819V11.9472H27.7752V11.9669H27.7687V11.9801H27.7621V11.9998H27.7555V12.0194H27.7489V12.0392H27.7423V12.0523H27.7358V12.072H27.7292V12.0918H27.7226V12.1115H27.716V12.1246H27.7094V12.1443H27.7029V12.164H27.6963V12.1838H27.6896V12.2035H27.6831V12.2166H27.6765V12.2364H27.67V12.256H27.6633V12.2758H27.6567V12.289H27.6502V12.3086H27.6436V12.3284H27.637V12.3481H27.6304V12.3612H27.6238V12.381H27.6173V12.4006H27.6106V12.4203H27.6041V12.4335H27.5975V12.4532H27.5909V12.4729H27.5843V12.4927H27.5777V12.5058H27.5712V12.5255H27.5646V12.5452H27.558V12.565H27.5514V12.5781H27.5448V12.5978H27.5383V12.6175H27.5317V12.6373H27.525V12.6504H27.5185V12.6702H27.5119V12.6898H27.5054V12.7095H27.4987V12.7227H27.4921V12.7424H27.4856V12.7622H27.479V12.7818H27.4724V12.795H27.4658V12.8148H27.4592V12.8344H27.4527V12.8542H27.446V12.8739H27.4395V12.887H27.4329V12.9067H27.4263V12.9264H27.4197V12.9462H27.4131V12.9593H27.4066V12.979H27.4V12.9987H27.3934V13.0185H27.3868V13.0315H27.3802V13.0513H27.3737V13.071H27.367V13.0907H27.3604V13.1039H27.3539V13.1235H27.3473V13.1433H27.3407V13.1631H27.3341V13.1762H27.3275V13.1959H27.321V13.2156H27.3144V13.2353H27.3078V13.2485H27.3012V13.2682H27.2946V13.2879H27.2881V13.3076H27.2814V13.3208H27.2749V13.3405H27.2683V13.3602H27.2617V13.3799H27.2551V13.3931H27.2485V13.4128H27.242V13.4325H27.2354V13.4522H27.2287V13.4654H27.2222V13.4851H27.2156V13.5048H27.2091V13.5245H27.2024V13.5443H27.1958V13.5574H27.1893V13.5772H27.1827V13.5968H27.1761V13.6165H27.1695V13.6297H27.1629V13.6494H27.1564V13.6691H27.1498V13.6889H27.1432V13.702H27.1366V13.7217H27.13V13.7414H27.1235V13.7611H27.1168V13.7743H27.1103V13.794H27.1037V13.8137H27.0971V13.8334H27.0905V13.8466H27.0839V13.8663H27.0774V13.8859H27.0708V13.9057H27.0641V13.9188H27.0576V13.9385H27.051V13.9451" fill="#1672C7"/>
</svg>

