<svg viewBox="0 0 24 24" xmlns="http://www.w3.org/2000/svg">
<path d="M11.801 0C5.2935 0 0 5.2933 0 11.801C0 18.3085 5.2933 23.602 11.801 23.602C18.3085 23.602 23.602 18.3087 23.602 11.801C23.602 5.2935 18.3087 0 11.801 0ZM11.801 1.6016C17.4437 1.6016 22 6.158 22 11.8006C22 17.4433 17.4435 21.9996 11.801 21.9996C6.1582 21.9996 1.602 17.4431 1.602 11.8006C1.602 6.1578 6.1584 1.6016 11.801 1.6016V1.6016Z" fill="black"/>
<path d="M11.8008 4C9.43539 4 7.5 5.93538 7.5 8.30078C7.5 10.6662 9.43539 12.6016 11.8008 12.6016C14.1662 12.6016 16.1016 10.6662 16.1016 8.30078C16.1016 5.93538 14.1662 4 11.8008 4ZM11.8008 5.60156C13.3014 5.60156 14.5 6.80018 14.5 8.30078C14.5 9.80138 13.3014 11 11.8008 11C10.3002 11 9.10156 9.80138 9.10156 8.30078C9.10156 6.80018 10.3002 5.60156 11.8008 5.60156ZM8.30078 14.5C7.16068 14.5 6.06597 14.9535 5.25977 15.7598C4.4536 16.566 4 17.6607 4 18.8008V20.5508C3.9999 20.656 4.02034 20.7602 4.06055 20.8574C4.10076 20.9546 4.16 21.0428 4.23438 21.1172C4.30876 21.1915 4.39694 21.2508 4.49414 21.291C4.59134 21.3312 4.6956 21.3517 4.80078 21.3516C4.90597 21.3517 5.01022 21.3312 5.10742 21.291C5.20462 21.2508 5.29281 21.1915 5.36719 21.1172C5.44157 21.0428 5.50081 20.9546 5.54102 20.8574C5.58122 20.7602 5.60167 20.656 5.60156 20.5508V18.8008C5.60156 18.0843 5.88599 17.3972 6.39258 16.8906C6.89912 16.384 7.58438 16.1016 8.30078 16.1016H15.3008C16.0173 16.1016 16.7043 16.384 17.2109 16.8906C17.7175 17.3972 18 18.0843 18 18.8008V20.5508C17.9999 20.656 18.0204 20.7602 18.0606 20.8574C18.1008 20.9546 18.16 21.0428 18.2344 21.1172C18.3087 21.1915 18.3969 21.2508 18.4941 21.291C18.5913 21.3312 18.6956 21.3517 18.8008 21.3516C18.906 21.3517 19.0102 21.3312 19.1074 21.291C19.2046 21.2508 19.2928 21.1915 19.3672 21.1172C19.4416 21.0428 19.5008 20.9546 19.541 20.8574C19.5812 20.7602 19.6017 20.656 19.6016 20.5508V18.8008C19.6016 17.6607 19.1481 16.566 18.3418 15.7598C17.5356 14.9536 16.4409 14.5 15.3008 14.5H8.30078Z" fill="#E6E6E6"/>
</svg>
