<svg viewBox="0 0 24 24" xmlns="http://www.w3.org/2000/svg">
<path d="M5.80082 1.00005C5.6765 0.999995 5.55387 1.02892 5.44267 1.08452C5.33147 1.14012 5.23476 1.22087 5.1602 1.32036L2.1602 5.32036C2.15955 5.32166 2.1589 5.32296 2.15825 5.32427C2.1536 5.33071 2.14904 5.33722 2.14458 5.3438C2.13508 5.35655 2.12596 5.36957 2.11724 5.38286C2.11592 5.38546 2.11462 5.38806 2.11333 5.39067C2.10206 5.4104 2.09163 5.4306 2.08208 5.45122C2.08077 5.45317 2.07946 5.45512 2.07817 5.45708C2.06888 5.47691 2.06041 5.49711 2.05278 5.51763C2.03483 5.56315 2.0211 5.61022 2.01176 5.65825C2.01175 5.6602 2.01175 5.66215 2.01176 5.66411C2.01023 5.67515 2.00892 5.68622 2.00785 5.69731C2.00558 5.71028 2.00362 5.7233 2.00199 5.73637C2.00047 5.75782 1.99982 5.77932 2.00004 5.80082V19.8008C2.00004 20.5431 2.29548 21.2564 2.82035 21.7813C3.34524 22.3063 4.05855 22.6016 4.80085 22.6016H18.8009C19.5431 22.6016 20.2565 22.3062 20.7814 21.7813C21.3063 21.2564 21.6017 20.5431 21.6017 19.8008V5.80082C21.6018 5.7255 21.5913 5.65054 21.5704 5.57816C21.5567 5.52967 21.5383 5.48259 21.5157 5.43754C21.4944 5.3964 21.4696 5.35719 21.4415 5.32035L21.4356 5.31058C21.4318 5.30598 21.4278 5.30142 21.4239 5.29691L18.4415 1.32031C18.3669 1.22082 18.2702 1.14007 18.159 1.08447C18.0478 1.02887 17.9252 0.999946 17.8009 1H5.80091L5.80082 1.00005ZM6.20121 2.60165H17.4002L19.199 5.00005H4.40201L6.20081 2.60165H6.20121ZM3.60161 6.60165H19.9996V19.8006C19.9996 20.1192 19.8733 20.423 19.6481 20.6483C19.4228 20.8736 19.1189 20.9999 18.8004 20.9999H4.80039C4.48181 20.9999 4.17798 20.8736 3.95273 20.6483C3.72744 20.423 3.60117 20.1192 3.60117 19.8006V6.60165H3.60161Z" fill="black"/>
<path d="M7.80081 9.00003C7.69562 8.99993 7.59145 9.02057 7.49424 9.06078C7.39704 9.10098 7.30873 9.15997 7.23435 9.23435C7.15997 9.30873 7.10098 9.39704 7.06078 9.49424C7.02057 9.59145 6.99993 9.69562 7.00003 9.80081C7.00003 11.0736 7.50631 12.2954 8.40623 13.1953C9.30619 14.0953 10.528 14.6015 11.8007 14.6015C13.0734 14.6015 14.2953 14.0953 15.1952 13.1953C16.0953 12.2954 16.6014 11.0735 16.6014 9.80081C16.6015 9.69562 16.5809 9.59145 16.5407 9.49424C16.5005 9.39704 16.4415 9.30873 16.3671 9.23435C16.2927 9.15997 16.2044 9.10098 16.1072 9.06078C16.01 9.02057 15.9058 8.99993 15.8007 9.00003C15.6955 8.99993 15.5913 9.02057 15.4941 9.06078C15.3969 9.10098 15.3086 9.15997 15.2342 9.23435C15.1598 9.30873 15.1008 9.39704 15.0606 9.49424C15.0204 9.59145 14.9998 9.69562 14.9999 9.80081C14.9999 10.6499 14.6647 11.4622 14.0643 12.0625C14.0637 12.0632 14.063 12.0638 14.0623 12.0645C13.4621 12.6649 12.6496 13.0001 11.8006 13.0001C10.9516 13.0001 10.1373 12.6649 9.53692 12.0645C8.93661 11.4642 8.60137 10.6499 8.60137 9.80081C8.60147 9.69562 8.58083 9.59145 8.54062 9.49424C8.50042 9.39704 8.44144 9.30873 8.36706 9.23435C8.29268 9.15997 8.20436 9.10098 8.10716 9.06078C8.00996 9.02057 7.90578 8.99993 7.80059 9.00003H7.80081Z" fill="black"/>
</svg>
