<svg viewBox="0 0 24 24" fill="none" xmlns="http://www.w3.org/2000/svg">
<path d="M15.7988 17C15.5867 17.0003 15.3834 17.0848 15.2336 17.235C15.0838 17.3852 14.9998 17.5887 15 17.8008C15.0003 18.0125 15.0846 18.2156 15.2343 18.3653C15.3841 18.515 15.5871 18.5993 15.7988 18.5996H19.7988C20.0109 18.5998 20.2144 18.5158 20.3646 18.366C20.5148 18.2162 20.5993 18.0129 20.5996 17.8008C20.5997 17.6956 20.5791 17.5914 20.5389 17.4942C20.4987 17.397 20.4397 17.3087 20.3653 17.2343C20.2909 17.1599 20.2026 17.101 20.1054 17.0607C20.0082 17.0205 19.904 16.9999 19.7988 17H15.7988ZM3.79883 5C3.58672 5.00031 3.38342 5.08484 3.23362 5.23501C3.08383 5.38517 2.99979 5.58868 3 5.80078C3.00031 6.01255 3.08457 6.21555 3.23431 6.3653C3.38406 6.51504 3.58706 6.5993 3.79883 6.59961H19.7988C20.0109 6.59982 20.2144 6.51578 20.3646 6.36599C20.5148 6.21619 20.5993 6.01289 20.5996 5.80078C20.5997 5.69559 20.5791 5.59142 20.5389 5.49421C20.4987 5.39701 20.4397 5.30869 20.3653 5.23431C20.2909 5.15993 20.2026 5.10095 20.1054 5.06075C20.0082 5.02054 19.904 4.9999 19.7988 5H3.79883ZM9.79883 11C9.58672 11.0003 9.38342 11.0848 9.23362 11.235C9.08383 11.3852 8.99979 11.5887 9 11.8008C9.00031 12.0125 9.08457 12.2156 9.23431 12.3653C9.38406 12.515 9.58706 12.5993 9.79883 12.5996H19.7988C20.0109 12.5998 20.2144 12.5158 20.3646 12.366C20.5148 12.2162 20.5993 12.0129 20.5996 11.8008C20.5997 11.6956 20.5791 11.5914 20.5389 11.4942C20.4987 11.397 20.4397 11.3087 20.3653 11.2343C20.2909 11.1599 20.2026 11.101 20.1054 11.0607C20.0082 11.0205 19.904 10.9999 19.7988 11H9.79883Z" fill="black"/>
</svg>
