<svg viewBox="0 0 24 24" fill="none" xmlns="http://www.w3.org/2000/svg">
<path d="M11.7526 8.00144C11.5575 8.01309 11.3734 8.09576 11.235 8.23386L5.23504 14.2339C5.16053 14.3082 5.10142 14.3965 5.06109 14.4937C5.02076 14.5908 5 14.695 5 14.8003C5 14.9055 5.02076 15.0097 5.06109 15.1069C5.10142 15.2041 5.16053 15.2924 5.23504 15.3667C5.38504 15.5165 5.58842 15.6007 5.80047 15.6007C6.01251 15.6007 6.21589 15.5165 6.3659 15.3667L11.8014 9.93308L17.235 15.3667C17.385 15.5165 17.5884 15.6007 17.8005 15.6007C18.0125 15.6007 18.2159 15.5165 18.3659 15.3667C18.4404 15.2924 18.4995 15.2041 18.5398 15.1069C18.5802 15.0097 18.6009 14.9055 18.6009 14.8003C18.6009 14.695 18.5802 14.5908 18.5398 14.4937C18.4995 14.3965 18.4404 14.3082 18.3659 14.2339L12.3659 8.23386C12.2859 8.154 12.1899 8.09199 12.0842 8.05193C11.9785 8.01186 11.8655 7.99466 11.7526 8.00144V8.00144Z" fill="black"/>
</svg>
