<svg viewBox="0 0 24 24" xmlns="http://www.w3.org/2000/svg">
<path d="M11.8008 1C5.84558 1 1 5.84558 1 11.8008C1 17.7559 5.84557 22.6016 11.8008 22.6016C17.7559 22.6016 22.6016 17.7559 22.6016 11.8008C22.6016 5.84557 17.7559 1 11.8008 1ZM11.8008 2.60156C16.8912 2.60156 21 6.71029 21 11.8008C21 16.8912 16.8912 21 11.8008 21C6.71029 21 2.60156 16.8912 2.60156 11.8008C2.60156 6.71028 6.71028 2.60156 11.8008 2.60156V2.60156Z" fill="#DBDAE2"/>
<path d="M11.8008 5C11.6956 4.9999 11.5914 5.02054 11.4942 5.06075C11.397 5.10095 11.3087 5.15993 11.2343 5.23431C11.1599 5.30869 11.101 5.39701 11.0607 5.49421C11.0205 5.59142 10.9999 5.69559 11 5.80078V11.8008C11.0002 11.9493 11.0418 12.0949 11.1202 12.2212C11.1985 12.3474 11.3104 12.4494 11.4434 12.5156L15.4434 14.5156C15.633 14.6102 15.8524 14.6257 16.0534 14.5587C16.2544 14.4917 16.4207 14.3476 16.5156 14.1582C16.6102 13.9686 16.6257 13.7492 16.5587 13.5481C16.4917 13.3471 16.3476 13.1809 16.1582 13.0859L12.6016 11.3066V5.80078C12.6017 5.69559 12.581 5.59142 12.5408 5.49421C12.5006 5.39701 12.4416 5.30869 12.3672 5.23431C12.2929 5.15993 12.2046 5.10095 12.1073 5.06075C12.0101 5.02054 11.906 4.9999 11.8008 5V5Z" fill="#DBDAE2"/>
</svg>
