<svg viewBox="0 0 24 24" fill="none" xmlns="http://www.w3.org/2000/svg">
<path d="M5.82586 5.00041C5.71643 4.9969 5.60744 5.01589 5.50564 5.05621C5.40385 5.09652 5.31141 5.1573 5.23406 5.23479C5.08419 5.38479 5 5.58817 5 5.80022C5 6.01226 5.08419 6.21564 5.23406 6.36565L10.6696 11.7992L5.23406 17.2348C5.08419 17.3848 5 17.5882 5 17.8002C5 18.0123 5.08419 18.2156 5.23406 18.3656C5.38407 18.5155 5.58744 18.5997 5.79949 18.5997C6.01154 18.5997 6.21491 18.5155 6.36492 18.3656L11.7985 12.9321L17.2341 18.3656C17.3841 18.5155 17.5874 18.5997 17.7995 18.5997C18.0115 18.5997 18.2149 18.5155 18.3649 18.3656C18.5148 18.2156 18.599 18.0123 18.599 17.8002C18.599 17.5882 18.5148 17.3848 18.3649 17.2348L12.9313 11.7992L18.3649 6.36565C18.5148 6.21564 18.599 6.01226 18.599 5.80022C18.599 5.58817 18.5148 5.38479 18.3649 5.23479C18.2215 5.09109 18.0288 5.0073 17.8259 5.00041C17.7164 4.9969 17.6074 5.01589 17.5056 5.05621C17.4038 5.09652 17.3114 5.1573 17.2341 5.23479L11.7985 10.6703L6.36492 5.23479C6.22148 5.09109 6.02877 5.0073 5.82586 5.00041V5.00041Z" fill="black"/>
</svg>
