<svg viewBox="0 0 24 24" fill="none" xmlns="http://www.w3.org/2000/svg">
<path d="M11.7991 8C9.70989 8 8.00029 9.7096 8.00029 11.7988C8.00029 13.8881 9.70989 15.5996 11.7991 15.5996C13.8883 15.5996 15.5999 13.8881 15.5999 11.7988C15.5999 9.7096 13.8883 8 11.7991 8ZM11.7991 9.59961C13.0237 9.59961 14.0003 10.5743 14.0003 11.7988C14.0003 13.0234 13.0237 14 11.7991 14C10.5745 14 9.5999 13.0234 9.5999 11.7988C9.5999 10.5743 10.5745 9.59961 11.7991 9.59961ZM11.7991 3C4.18959 3 0.0842742 11.4414 0.0842742 11.4414C0.0288513 11.5524 0 11.6748 0 11.7988C0 11.9229 0.0288513 12.0453 0.0842742 12.1562C0.0842742 12.1562 4.18959 20.5996 11.7991 20.5996C19.4086 20.5996 23.5159 12.1562 23.5159 12.1562C23.5713 12.0453 23.6002 11.9229 23.6002 11.7988C23.6002 11.6748 23.5713 11.5524 23.5159 11.4414C23.5159 11.4414 19.4086 3 11.7991 3ZM11.7991 4.59961C17.8873 4.59961 21.4765 11.1498 21.8245 11.7988C21.4766 12.4476 17.8874 19 11.7991 19C5.71093 19 2.12366 12.4478 1.77568 11.7988C2.12377 11.1497 5.71103 4.59961 11.7991 4.59961Z" fill="black"/>
</svg>
