<svg viewBox="0 0 24 24" xmlns="http://www.w3.org/2000/svg">
<path d="M3.80078 2C3.05849 2 2.3452 2.29541 1.82031 2.82031C1.29541 3.3452 1 4.05849 1 4.80078V18.8008C1 19.5431 1.29544 20.2564 1.82031 20.7812C2.34521 21.3062 3.0585 21.6016 3.80078 21.6016H19.8008C20.543 21.6016 21.2563 21.3062 21.7812 20.7812C22.3062 20.2563 22.6016 19.543 22.6016 18.8008V7.80078C22.6016 7.0585 22.3062 6.34521 21.7812 5.82031C21.2564 5.29544 20.5431 5 19.8008 5H11.2285L9.4668 2.35742C9.39384 2.24757 9.29486 2.15746 9.17866 2.0951C9.06246 2.03274 8.93265 2.00007 8.80078 2H3.80078ZM3.80078 3.60156H8.37305L10.1348 6.24414C10.2077 6.35399 10.3067 6.4441 10.4229 6.50646C10.5391 6.56882 10.6689 6.60149 10.8008 6.60156H19.8008C20.1193 6.60156 20.4231 6.72783 20.6484 6.95312C20.8737 7.17837 21 7.4822 21 7.80078V18.8008C21 19.1193 20.8737 19.4231 20.6484 19.6484C20.4231 19.8737 20.1193 20 19.8008 20H3.80078C3.4822 20 3.17837 19.8737 2.95312 19.6484C2.72783 19.4231 2.60156 19.1193 2.60156 18.8008V4.80078C2.60156 4.48221 2.72787 4.17838 2.95312 3.95312C3.17838 3.72787 3.48221 3.60156 3.80078 3.60156Z" fill="#DBDAE2"/>
</svg>
