<svg viewBox="0 0 24 24" fill="none" xmlns="http://www.w3.org/2000/svg">
<path d="M11.7871 1.00009C11.7623 1.00024 11.7376 1.00154 11.7129 1.00399C11.7116 1.004 11.7103 1.00398 11.709 1.00399C5.81778 1.05275 1.03998 5.84028 1.00391 11.7345C1.00322 11.739 1.00256 11.7436 1.00195 11.7481C1.00187 11.7659 1 11.7831 1 11.8009C1.00015 11.8256 1.00145 11.8504 1.00391 11.8751C1.04421 17.7695 5.8267 22.5534 11.7207 22.5958C11.7421 22.598 11.7636 22.5993 11.7852 22.5997C11.7943 22.5998 11.8034 22.5998 11.8125 22.5997C11.8375 22.5997 11.8617 22.596 11.8867 22.5958C11.8887 22.5958 11.8906 22.5958 11.8926 22.5958C17.7866 22.5449 22.569 17.7528 22.5977 11.8536C22.5989 11.8361 22.5996 11.8185 22.5997 11.8009C22.5995 11.7761 22.5982 11.7513 22.5958 11.7267C22.5554 5.83345 17.773 1.04853 11.8809 1.00399C11.8575 1.00166 11.834 1.00036 11.8105 1.00009C11.8027 0.999971 11.7949 0.999971 11.7871 1.00009V1.00009ZM10.002 2.77743C8.28147 5.18898 7.25791 8.03013 7.05078 11.0001H2.63867C2.9922 6.88882 6.03108 3.5604 10.002 2.77743ZM13.5977 2.77743C17.5679 3.56108 20.6073 6.88947 20.9609 11.0001H16.5488C16.3417 8.03012 15.3182 5.18897 13.5977 2.77743ZM11.7988 3.28134C13.5493 5.52466 14.7016 8.17052 14.9414 11.0001H8.6582C8.89777 8.17067 10.0487 5.52455 11.7988 3.28134ZM2.63867 12.5997H7.05078C7.25791 15.5699 8.28148 18.4123 10.002 20.8243C6.03045 20.0416 2.99141 16.7117 2.63867 12.5997ZM8.65625 12.5997H14.9434C14.7037 15.4297 13.5493 18.077 11.7988 20.3204C10.0486 18.0771 8.89573 15.4295 8.65625 12.5997ZM16.5488 12.5997H20.9609C20.6081 16.7109 17.5684 20.0388 13.5977 20.8224C15.3176 18.4107 16.3418 15.5693 16.5488 12.5997Z" fill="black"/>
</svg>
