<svg viewBox="0 0 24 24" xmlns="http://www.w3.org/2000/svg">
<path d="M11.8027 1C11.6243 1.00018 11.4511 1.05999 11.3105 1.16992L2.31055 8.16992C2.21416 8.24448 2.13608 8.34008 2.08226 8.44941C2.02844 8.55874 2.0003 8.67892 2 8.80078V19.8008C2 20.5431 2.29544 21.2564 2.82031 21.7812C3.34521 22.3062 4.0585 22.6016 4.80078 22.6016H8.80078H14.8008H18.8008C19.543 22.6016 20.2563 22.3062 20.7812 21.7812C21.3062 21.2563 21.6016 20.543 21.6016 19.8008V8.80078C21.6013 8.67892 21.5731 8.55874 21.5193 8.44941C21.4655 8.34008 21.3874 8.24448 21.291 8.16992L12.291 1.16992C12.1515 1.06081 11.9798 1.00104 11.8027 1V1ZM11.8008 2.81445L20 9.19141V19.8008C20 20.1193 19.8737 20.4231 19.6484 20.6484C19.4231 20.8737 19.1193 21 18.8008 21H15.6016V11.8008C15.6017 11.6956 15.581 11.5914 15.5408 11.4942C15.5006 11.397 15.4416 11.3087 15.3672 11.2343C15.2928 11.16 15.2045 11.101 15.1073 11.0608C15.0101 11.0206 14.906 10.9999 14.8008 11H8.80078C8.6956 10.9999 8.59142 11.0206 8.49423 11.0608C8.39703 11.101 8.30872 11.16 8.23434 11.2343C8.15996 11.3087 8.10098 11.397 8.06077 11.4942C8.02056 11.5914 7.99991 11.6956 8 11.8008V21H4.80078C4.4822 21 4.17837 20.8737 3.95312 20.6484C3.72783 20.4231 3.60156 20.1193 3.60156 19.8008V9.18945L11.8008 2.81445ZM9.60156 12.6016H14V21H9.60156V12.6016Z" fill="#DBDAE2"/>
</svg>
