<svg viewBox="0 0 24 24" fill="none" xmlns="http://www.w3.org/2000/svg">
<path d="M3.80078 3C2.31662 3 1.09752 4.18323 1.01562 5.64844C1.00737 5.69225 1.0028 5.73668 1.00195 5.78125C1.0019 5.78793 1 5.79409 1 5.80078V17.8008C1 19.3371 2.26442 20.5996 3.80078 20.5996H19.8008C21.3371 20.5996 22.5996 19.3371 22.5996 17.8008V5.81445C22.5997 5.80859 22.5997 5.80273 22.5996 5.79688C22.599 5.74702 22.5938 5.69732 22.584 5.64844C22.5022 4.18323 21.2849 3 19.8008 3H3.80078ZM3.80078 4.59961H19.8008C20.3345 4.59961 20.7697 4.95415 20.9258 5.43555L11.8008 11.8242L2.67383 5.43359C2.83091 4.95313 3.26768 4.59961 3.80078 4.59961ZM2.59961 7.33594L11.3418 13.4551C11.4763 13.5493 11.6366 13.5998 11.8008 13.5998C11.965 13.5998 12.1252 13.5493 12.2598 13.4551L21 7.33594V17.8008C21 18.4644 20.4644 19 19.8008 19H3.80078C3.13714 19 2.59961 18.4644 2.59961 17.8008V7.33594Z" fill="black"/>
</svg>
