<svg viewBox="0 0 24 24" fill="none" xmlns="http://www.w3.org/2000/svg">
<path d="M11.8008 6C9.71154 6 8 7.70964 8 9.79883C8 11.8881 9.71156 13.5996 11.8008 13.5996C13.89 13.5996 15.5996 11.8881 15.5996 9.79883C15.5996 7.70964 13.89 6 11.8008 6ZM11.8008 7.59961C13.0253 7.59961 14 8.57432 14 9.79883C14 11.0234 13.0254 12 11.8008 12C10.5762 12 9.59961 11.0234 9.59961 9.79883C9.59961 8.57432 10.5762 7.59961 11.8008 7.59961ZM11.8008 0C9.20197 0 6.70873 1.0315 4.87109 2.86914C3.03345 4.70678 2 7.20001 2 9.79883C2 13.6417 4.40323 17.0284 6.7207 19.4746C9.03817 21.9208 11.3574 23.4648 11.3574 23.4648C11.4888 23.5523 11.643 23.5989 11.8008 23.5989C11.9586 23.5989 12.1128 23.5523 12.2441 23.4648C12.2441 23.4648 14.5634 21.9208 16.8809 19.4746C19.1983 17.0284 21.5996 13.6417 21.5996 9.79883C21.5996 7.20002 20.5681 4.70678 18.7305 2.86914C16.8928 1.03151 14.3996 0 11.8008 0ZM11.8008 1.59961C13.9758 1.59961 16.0615 2.46197 17.5996 4C19.1376 5.53802 20 7.62374 20 9.79883C20 12.956 17.9032 16.0693 15.7207 18.373C13.7601 20.4425 12.1789 21.4897 11.8008 21.75C11.4226 21.4897 9.84143 20.4425 7.88086 18.373C5.69833 16.0693 3.59961 12.956 3.59961 9.79883C3.59961 7.62374 4.46393 5.53802 6.00195 4C7.53997 2.46198 9.6257 1.59961 11.8008 1.59961Z" fill="black"/>
</svg>
