<svg viewBox="0 0 24 24" fill="none" xmlns="http://www.w3.org/2000/svg">
<path d="M11.8008 5C11.6956 4.9999 11.5914 5.02054 11.4942 5.06075C11.397 5.10095 11.3087 5.15993 11.2343 5.23431C11.1599 5.30869 11.101 5.39701 11.0607 5.49421C11.0205 5.59142 10.9999 5.69559 11 5.80078V7H10.5508C9.87481 7 9.22412 7.27003 8.74609 7.74805C8.26809 8.22605 8 8.87479 8 9.55078C8 10.2268 8.26811 10.8755 8.74609 11.3535C9.2241 11.8315 9.87477 12.1016 10.5508 12.1016H11V14H8.80078C8.69559 13.9999 8.59142 14.0205 8.49421 14.0607C8.39701 14.101 8.30869 14.1599 8.23431 14.2343C8.15993 14.3087 8.10095 14.397 8.06075 14.4942C8.02054 14.5914 7.9999 14.6956 8 14.8008C7.9999 14.906 8.02054 15.0101 8.06075 15.1073C8.10095 15.2046 8.15993 15.2929 8.23431 15.3672C8.30869 15.4416 8.39701 15.5006 8.49421 15.5408C8.59142 15.581 8.69559 15.6017 8.80078 15.6016H11V16.8008C10.9999 16.906 11.0205 17.0101 11.0607 17.1073C11.101 17.2046 11.1599 17.2929 11.2343 17.3672C11.3087 17.4416 11.397 17.5006 11.4942 17.5408C11.5914 17.581 11.6956 17.6017 11.8008 17.6016C12.0129 17.6013 12.2162 17.5167 12.366 17.3666C12.5158 17.2164 12.5998 17.0129 12.5996 16.8008V15.6016H13.0508C13.7268 15.6016 14.3755 15.3315 14.8535 14.8535C15.3315 14.3755 15.5996 13.7268 15.5996 13.0508C15.5996 12.3748 15.3315 11.726 14.8535 11.248C14.3755 10.7701 13.7268 10.5 13.0508 10.5H12.5996V8.60156H14.3008C14.5129 8.60125 14.7162 8.51672 14.866 8.36656C15.0158 8.21639 15.0998 8.01289 15.0996 7.80078C15.0998 7.58868 15.0158 7.38517 14.866 7.235C14.7162 7.08484 14.5129 7.00031 14.3008 7H12.5996V5.80078C12.5998 5.58868 12.5158 5.38517 12.366 5.235C12.2162 5.08484 12.0129 5.00031 11.8008 5V5ZM10.5508 8.60156H11V10.5H10.5508C10.2986 10.5 10.0573 10.401 9.87891 10.2227C9.70051 10.0443 9.59961 9.80301 9.59961 9.55078C9.59961 9.29851 9.70053 9.05728 9.87891 8.87891C10.0573 8.70055 10.2986 8.60156 10.5508 8.60156ZM12.5996 12.1016H13.0508C13.303 12.1016 13.5423 12.2005 13.7207 12.3789C13.8991 12.5573 14 12.7986 14 13.0508C14 13.303 13.8991 13.5442 13.7207 13.7227C13.5423 13.9011 13.303 14 13.0508 14H12.5996V12.1016ZM11.8008 0C5.2933 0 0 5.2933 0 11.8008C0 18.3082 5.2933 23.6016 11.8008 23.6016C18.3082 23.6016 23.5996 18.3082 23.5996 11.8008C23.5996 5.2933 18.3082 0 11.8008 0ZM11.8008 1.60156C17.4435 1.60156 22 6.15801 22 11.8008C22 17.4435 17.4435 22 11.8008 22C6.15801 22 1.59961 17.4435 1.59961 11.8008C1.59961 6.158 6.158 1.60156 11.8008 1.60156Z" fill="black"/>
</svg>
