<svg viewBox="0 0 24 24" fill="none" xmlns="http://www.w3.org/2000/svg">
<path d="M10.0775 20C9.93363 19.9983 9.79194 20.0354 9.66737 20.1074C9.57641 20.1601 9.49673 20.2302 9.43287 20.3137C9.36902 20.3972 9.32224 20.4924 9.29521 20.594C9.26819 20.6956 9.26144 20.8015 9.27536 20.9057C9.28929 21.0098 9.3236 21.1103 9.37635 21.2012C9.62248 21.6255 9.97662 21.9779 10.4017 22.2227C10.8267 22.4675 11.3076 22.5977 11.7982 22.5977C12.2888 22.5977 12.7717 22.4675 13.1967 22.2227C13.622 21.9779 13.974 21.6254 14.2201 21.2012C14.2728 21.1103 14.3072 21.0098 14.3211 20.9057C14.335 20.8015 14.3283 20.6956 14.3012 20.594C14.2742 20.4924 14.2274 20.3972 14.1636 20.3137C14.0997 20.2302 14.02 20.1601 13.9291 20.1074C13.7456 20.0015 13.5277 19.9727 13.323 20.0272C13.1184 20.0818 12.9437 20.2153 12.8373 20.3984C12.7318 20.5804 12.5799 20.7311 12.3978 20.8359C12.2156 20.9409 12.0084 20.9961 11.7982 20.9961C11.588 20.9961 11.3828 20.9409 11.2006 20.8359C11.1999 20.8359 11.1992 20.8359 11.1986 20.8359C11.0165 20.7311 10.8665 20.5803 10.7611 20.3984C10.6915 20.2785 10.5918 20.1787 10.472 20.1088C10.3522 20.0389 10.2162 20.0015 10.0775 20ZM11.7982 1C9.99506 1 8.26466 1.71716 6.98963 2.99219C5.7146 4.26722 4.9994 5.99762 4.9994 7.80078C4.9994 11.1865 4.27873 13.2932 3.59705 14.543C2.91537 15.7927 2.35487 16.1348 2.35487 16.1348C2.21244 16.2302 2.10442 16.3688 2.04671 16.5302C1.989 16.6916 1.98465 16.8672 2.03431 17.0313C2.08396 17.1954 2.185 17.3391 2.32253 17.4415C2.46006 17.5438 2.62681 17.5992 2.79823 17.5996H20.7982C20.9696 17.5992 21.1364 17.5438 21.2739 17.4415C21.4115 17.3391 21.5125 17.1954 21.5621 17.0313C21.6118 16.8672 21.6075 16.6916 21.5497 16.5302C21.492 16.3688 21.384 16.2302 21.2416 16.1348C21.2416 16.1348 20.683 15.7927 20.0014 14.543C19.3197 13.2932 18.599 11.1865 18.599 7.80078C18.599 5.99763 17.882 4.26723 16.6068 2.99219C15.3318 1.71715 13.6014 1 11.7982 1ZM11.7982 2.59961C13.1777 2.59961 14.5006 3.14764 15.476 4.12305C16.4514 5.09845 16.9994 6.42133 16.9994 7.80078C16.9994 11.4151 17.7787 13.8083 18.5971 15.3086C18.8591 15.789 18.9074 15.6864 19.1596 16H4.4369C4.68926 15.6862 4.73906 15.7895 5.00135 15.3086C5.81967 13.8083 6.59901 11.4151 6.59901 7.80078C6.59901 6.42135 7.14704 5.09846 8.12244 4.12305C9.09785 3.14764 10.4188 2.59961 11.7982 2.59961Z" fill="black"/>
</svg>
