<svg viewBox="0 0 24 24" fill="none" xmlns="http://www.w3.org/2000/svg">
<path d="M11.8008 0C11.0585 0 10.3452 0.295443 9.82031 0.820312C9.29538 1.34521 9 2.05654 9 2.79883V2.96875C8.99897 3.13391 8.95059 3.29391 8.85937 3.43164C8.78029 3.55106 8.66124 3.63483 8.53516 3.70117C8.4876 3.71253 8.44118 3.72822 8.39648 3.74805C8.24104 3.81665 8.06955 3.83696 7.90234 3.80664C7.73518 3.77633 7.58045 3.69694 7.45898 3.57812L7.40625 3.52344C7.14622 3.26313 6.83796 3.05692 6.49805 2.91602C6.15813 2.77511 5.79372 2.70312 5.42578 2.70312C5.05784 2.70312 4.69343 2.77511 4.35352 2.91602C4.0141 3.05672 3.7051 3.26368 3.44531 3.52344C3.18501 3.78346 2.97685 4.09172 2.83594 4.43164C2.69503 4.77155 2.62305 5.13596 2.62305 5.50391C2.62305 5.87185 2.69503 6.23626 2.83594 6.57617C2.97685 6.91609 3.18501 7.2263 3.44531 7.48633L3.49805 7.53906C3.61686 7.66053 3.69626 7.81526 3.72656 7.98242C3.75688 8.14963 3.73657 8.32112 3.66797 8.47656C3.66096 8.49198 3.65445 8.50761 3.64844 8.52344C3.58955 8.68357 3.48451 8.82259 3.3457 8.92188C3.20686 9.02118 3.04154 9.07611 2.87109 9.08008H2.80078C2.0585 9.08008 1.34521 9.37546 0.820312 9.90039C0.295443 10.4253 1e-08 11.1366 0 11.8789C0 12.6212 0.295443 13.3345 0.820312 13.8594C1.34521 14.3843 2.0585 14.6797 2.80078 14.6797H2.9707C3.13531 14.6811 3.29451 14.7295 3.43164 14.8203C3.57 14.912 3.67882 15.0429 3.74414 15.1953C3.74543 15.1979 3.74673 15.2005 3.74805 15.2031C3.81664 15.3585 3.83696 15.5301 3.80664 15.6973C3.77634 15.8644 3.697 16.0191 3.57813 16.1406L3.52539 16.1933C3.26499 16.4534 3.05692 16.7617 2.91602 17.1015C2.7751 17.4415 2.70313 17.8059 2.70313 18.1738C2.70313 18.5417 2.7751 18.9061 2.91602 19.2461C3.05657 19.5851 3.26394 19.8946 3.52344 20.1543C3.52383 20.1547 3.52501 20.1539 3.52539 20.1543C3.52578 20.1547 3.52501 20.1559 3.52539 20.1563C3.78468 20.4154 4.0931 20.6232 4.43164 20.7637C4.77163 20.9047 5.13597 20.9766 5.50391 20.9766C5.87185 20.9766 6.23814 20.9047 6.57813 20.7637C6.91751 20.6228 7.22664 20.4144 7.48633 20.1543L7.53906 20.1016C7.66058 19.9827 7.81535 19.9034 7.98242 19.8731C8.14966 19.8428 8.3211 19.8631 8.47656 19.9317C8.49198 19.9387 8.50761 19.9452 8.52344 19.9512C8.68365 20.0101 8.82261 20.1151 8.92188 20.2539C9.02119 20.3928 9.07611 20.5581 9.08008 20.7285V20.7989C9.08008 21.5411 9.37549 22.2544 9.90039 22.7793C10.4253 23.3042 11.1366 23.5996 11.8789 23.5996C12.6212 23.5996 13.3345 23.3042 13.8594 22.7793C14.3843 22.2544 14.6797 21.5411 14.6797 20.7989V20.6328V20.6289C14.6811 20.4643 14.7295 20.3032 14.8203 20.166C14.9119 20.0277 15.0427 19.9209 15.1953 19.8555C15.1979 19.8542 15.2005 19.8529 15.2031 19.8516C15.3585 19.783 15.53 19.7627 15.6973 19.793C15.8643 19.8233 16.019 19.9026 16.1406 20.0215L16.1933 20.0743C16.4531 20.3344 16.7622 20.5428 17.1015 20.6836C17.4416 20.8247 17.8078 20.8965 18.1758 20.8965C18.5437 20.8965 18.908 20.8246 19.248 20.6836C19.5866 20.5431 19.895 20.3354 20.1543 20.0762V20.0742C20.4139 19.8147 20.623 19.5068 20.7637 19.168V19.166C20.9042 18.8264 20.9765 18.461 20.9765 18.0937C20.9765 17.7264 20.9042 17.3629 20.7637 17.0234V17.0214C20.6228 16.682 20.4144 16.3729 20.1543 16.1132L20.1015 16.0604C19.9826 15.9388 19.9033 15.7841 19.873 15.6171C19.8427 15.4498 19.863 15.2783 19.9316 15.1229C19.9329 15.1203 19.9342 15.1177 19.9355 15.1151C20.0009 14.9625 20.1097 14.8317 20.248 14.7401C20.3852 14.6493 20.5443 14.6009 20.709 14.5995H20.8008C21.543 14.5995 22.2544 14.3041 22.7793 13.7792C23.3042 13.2543 23.5996 12.541 23.5996 11.7987C23.5996 11.0565 23.3042 10.3451 22.7793 9.82022C22.2544 9.29531 21.543 8.9999 20.8008 8.9999H20.6328H20.6289C20.4644 8.9986 20.3052 8.95024 20.168 8.85938C20.0486 8.78033 19.9648 8.66135 19.8984 8.53516C19.8871 8.4876 19.8714 8.44118 19.8516 8.39648C19.783 8.24102 19.7627 8.06958 19.793 7.90234C19.8233 7.73527 19.9026 7.5805 20.0215 7.45898L20.0742 7.40625C20.3343 7.14656 20.5427 6.83743 20.6836 6.49805V6.4961C20.8241 6.15662 20.8965 5.79113 20.8965 5.42383C20.8965 5.05653 20.8241 4.69299 20.6836 4.35352V4.35157C20.5431 4.01302 20.3353 3.7046 20.0762 3.44531C19.8161 3.1849 19.5079 2.97684 19.168 2.83594C18.828 2.69501 18.4636 2.62305 18.0957 2.62305C17.7278 2.62305 17.3634 2.69501 17.0234 2.83594C16.6835 2.97684 16.3733 3.1849 16.1133 3.44531L16.0606 3.49805C15.939 3.61692 15.7844 3.69626 15.6172 3.72656C15.45 3.75688 15.2784 3.73655 15.1231 3.66797C15.1205 3.66665 15.1179 3.66535 15.1153 3.66406C14.9628 3.59874 14.8319 3.48992 14.7403 3.35156C14.6494 3.21443 14.601 3.05523 14.5996 2.89062V2.79883C14.5996 2.05654 14.3042 1.34521 13.7793 0.820312C13.2544 0.295443 12.5431 0 11.8008 0ZM11.8008 1.59961C12.1193 1.59961 12.4231 1.72588 12.6484 1.95117C12.8737 2.17642 13 2.48025 13 2.79883V2.89063C13 2.89128 13 2.89193 13 2.89258C13.0019 3.37021 13.1424 3.83794 13.4062 4.23633C13.669 4.63298 14.0435 4.94242 14.4805 5.13086C14.9273 5.32723 15.422 5.38787 15.9023 5.30078C16.384 5.21346 16.8298 4.98478 17.1797 4.64258C17.1817 4.63998 17.1836 4.63738 17.1856 4.63477L17.2461 4.57617C17.2461 4.57552 17.2461 4.57487 17.2461 4.57422C17.3575 4.46273 17.4891 4.37486 17.6348 4.31446C17.7805 4.25408 17.9381 4.22266 18.0957 4.22266C18.2534 4.22266 18.4091 4.25408 18.5547 4.31446C18.7004 4.37486 18.8321 4.46273 18.9434 4.57422C18.9441 4.57487 18.9447 4.57552 18.9454 4.57617C19.057 4.68759 19.1448 4.81923 19.2052 4.96484C19.2656 5.11046 19.297 5.26611 19.297 5.42383C19.297 5.58155 19.2656 5.73915 19.2052 5.88476C19.1448 6.03038 19.057 6.16201 18.9454 6.27344C18.9447 6.27344 18.9441 6.27344 18.9434 6.27344L18.8848 6.33398C18.8822 6.33592 18.8796 6.33787 18.877 6.33984C18.5348 6.68968 18.3061 7.13548 18.2188 7.61719C18.1315 8.09875 18.1911 8.59519 18.3887 9.04297L18.3203 8.71875V8.79883C18.3201 8.90758 18.342 9.01524 18.3848 9.11523C18.5729 9.55416 18.8848 9.92953 19.2832 10.1934C19.6815 10.4571 20.1492 10.5977 20.627 10.5996C20.6276 10.5996 20.6283 10.5996 20.629 10.5996H20.8008C21.1194 10.5996 21.4232 10.7259 21.6485 10.9512C21.8738 11.1765 22.0001 11.4803 22.0001 11.7988C22.0001 12.1174 21.8738 12.4231 21.6485 12.6484C21.4232 12.8737 21.1194 13 20.8008 13H20.709C20.7084 13 20.7077 13 20.707 13C20.2294 13.0019 19.7617 13.1424 19.3633 13.4062C18.9666 13.669 18.6572 14.0437 18.4688 14.4805C18.2724 14.9273 18.2118 15.4221 18.2988 15.9023C18.3862 16.3841 18.6149 16.8299 18.957 17.1797C18.9596 17.1817 18.9622 17.1836 18.9648 17.1856L19.0234 17.2461C19.0241 17.2461 19.0248 17.2461 19.0254 17.2461C19.1369 17.3574 19.2248 17.4892 19.2852 17.6348C19.3456 17.7804 19.377 17.9361 19.377 18.0938C19.377 18.2515 19.3456 18.4092 19.2852 18.5547C19.2249 18.7004 19.1369 18.8321 19.0254 18.9434C19.0248 18.9441 19.0241 18.9447 19.0234 18.9454C18.9121 19.0569 18.7804 19.1448 18.6348 19.2052C18.4892 19.2655 18.3334 19.297 18.1758 19.297C18.0181 19.297 17.8604 19.2655 17.7148 19.2052C17.5692 19.1447 17.4375 19.0568 17.3262 18.9453C17.3262 18.9446 17.3262 18.944 17.3262 18.9433L17.2656 18.8847C17.2637 18.8821 17.2617 18.8795 17.2597 18.8769C16.9099 18.5348 16.4641 18.306 15.9824 18.2187C15.5021 18.1317 15.0073 18.1923 14.5605 18.3886C14.1237 18.5771 13.7491 18.8864 13.4863 19.2832C13.2224 19.6816 13.082 20.1493 13.08 20.6269C13.08 20.6276 13.08 20.6283 13.08 20.6289V20.7988C13.08 21.1174 12.9538 21.4232 12.7285 21.6485C12.5032 21.8737 12.1974 22 11.8789 22C11.5603 22 11.2565 21.8737 11.0312 21.6485C10.8059 21.4232 10.6796 21.1174 10.6796 20.7988V20.709C10.6797 20.7031 10.6797 20.6973 10.6796 20.6914C10.6683 20.1999 10.5086 19.722 10.2227 19.3223C9.94197 18.9298 9.54819 18.6363 9.09766 18.4648C8.65618 18.2757 8.17022 18.2131 7.69727 18.2988C7.21556 18.3861 6.76976 18.6149 6.41992 18.957C6.41795 18.9596 6.416 18.9622 6.41406 18.9648L6.35351 19.0234C6.24209 19.135 6.11046 19.2248 5.96484 19.2851C5.81923 19.3455 5.66162 19.3769 5.50391 19.3769C5.34619 19.3769 5.19054 19.3455 5.04492 19.2851C4.8993 19.2248 4.76767 19.135 4.65625 19.0234C4.6556 19.0234 4.65495 19.0234 4.6543 19.0234C4.5428 18.9121 4.45493 18.7805 4.39453 18.6348C4.33415 18.4891 4.30273 18.3315 4.30273 18.1738C4.30273 18.0162 4.33415 17.8605 4.39453 17.7148C4.45493 17.5691 4.5428 17.4375 4.6543 17.3262C4.65495 17.3262 4.6556 17.3262 4.65625 17.3262L4.71484 17.2656C4.71746 17.2637 4.72006 17.2617 4.72265 17.2597C5.06486 16.9099 5.29354 16.4641 5.38086 15.9824C5.46795 15.5021 5.40731 15.0074 5.21094 14.5605C5.0225 14.1236 4.71306 13.7491 4.31641 13.4863C3.91802 13.2225 3.45029 13.082 2.97266 13.0801C2.97201 13.0801 2.97136 13.0801 2.97071 13.0801H2.80078C2.4822 13.0801 2.17642 12.9538 1.95117 12.7285C1.72588 12.5032 1.59961 12.1974 1.59961 11.8789C1.59961 11.5604 1.72588 11.2566 1.95117 11.0312C2.17642 10.806 2.4822 10.6797 2.80078 10.6797H2.89062C2.89648 10.6798 2.90234 10.6798 2.9082 10.6797C3.39973 10.6683 3.87759 10.5086 4.27734 10.2227C4.66975 9.94199 4.96335 9.54826 5.13477 9.09766C5.32399 8.65616 5.38654 8.17024 5.30078 7.69727C5.21347 7.21565 4.98484 6.76982 4.64258 6.41992C4.63999 6.41795 4.63738 6.416 4.63477 6.41406L4.57617 6.35352C4.46458 6.24204 4.37484 6.11053 4.31445 5.96484C4.25406 5.81916 4.22266 5.66162 4.22266 5.50391C4.22266 5.34619 4.25406 5.19061 4.31445 5.04492C4.37484 4.89924 4.46458 4.76772 4.57617 4.65625C4.57617 4.6556 4.57617 4.65495 4.57617 4.6543C4.68764 4.5427 4.81916 4.45492 4.96484 4.39453C5.11053 4.33414 5.26806 4.30273 5.42578 4.30273C5.5835 4.30273 5.73908 4.33414 5.88477 4.39453C6.03045 4.45492 6.16196 4.5427 6.27344 4.6543C6.27344 4.65495 6.27344 4.6556 6.27344 4.65625L6.33398 4.71484C6.33593 4.7168 6.33788 4.71876 6.33984 4.7207C6.68974 5.06297 7.13557 5.29355 7.61719 5.38086C8.09878 5.46818 8.59517 5.40857 9.04297 5.21094L8.7207 5.2793H8.80078C8.90888 5.27927 9.01585 5.25735 9.11523 5.21484C9.55435 5.02665 9.92958 4.71473 10.1934 4.31641C10.4572 3.91809 10.5977 3.4504 10.5996 2.97266C10.5996 2.97135 10.5996 2.97005 10.5996 2.96875V2.79883C10.5996 2.48025 10.7259 2.17642 10.9512 1.95117C11.1765 1.72588 11.4823 1.59961 11.8008 1.59961V1.59961ZM11.8008 8C9.71156 8 8 9.7096 8 11.7988C8 13.8881 9.71156 15.5996 11.8008 15.5996C13.89 15.5996 15.5996 13.8881 15.5996 11.7988C15.5996 9.7096 13.89 8 11.8008 8ZM11.8008 9.59961C13.0254 9.59961 14 10.5743 14 11.7988C14 13.0234 13.0254 14 11.8008 14C10.5762 14 9.59961 13.0234 9.59961 11.7988C9.59961 10.5743 10.5762 9.59961 11.8008 9.59961Z" fill="black"/>
</svg>
