<svg viewBox="0 0 24 24" fill="none" xmlns="http://www.w3.org/2000/svg">
<path d="M19.8008 2C19.6956 1.9999 19.5914 2.02054 19.4942 2.06075C19.397 2.10095 19.3087 2.15993 19.2343 2.23431C19.1599 2.30869 19.101 2.39701 19.0607 2.49421C19.0205 2.59142 18.9999 2.69559 19 2.80078V11.8008C18.9999 11.906 19.0205 12.0101 19.0607 12.1073C19.101 12.2046 19.1599 12.2929 19.2343 12.3672C19.3087 12.4416 19.397 12.5006 19.4942 12.5408C19.5914 12.581 19.6956 12.6017 19.8008 12.6016C20.0129 12.6013 20.2162 12.5167 20.366 12.3666C20.5158 12.2164 20.5998 12.0129 20.5996 11.8008V2.80078C20.5998 2.58868 20.5158 2.38517 20.366 2.23501C20.2162 2.08484 20.0129 2.00031 19.8008 2V2ZM16.8008 15C16.6956 14.9999 16.5914 15.0205 16.4942 15.0607C16.397 15.101 16.3087 15.1599 16.2343 15.2343C16.1599 15.3087 16.101 15.397 16.0607 15.4942C16.0205 15.5914 15.9999 15.6956 16 15.8008C15.9999 15.906 16.0205 16.0101 16.0607 16.1073C16.101 16.2046 16.1599 16.2929 16.2343 16.3672C16.3087 16.4416 16.397 16.5006 16.4942 16.5408C16.5914 16.581 16.6956 16.6017 16.8008 16.6016H19V20.8008C18.9999 20.906 19.0205 21.0101 19.0607 21.1073C19.101 21.2046 19.1599 21.2929 19.2343 21.3672C19.3087 21.4416 19.397 21.5006 19.4942 21.5408C19.5914 21.581 19.6956 21.6017 19.8008 21.6016C20.0129 21.6013 20.2162 21.5167 20.366 21.3666C20.5158 21.2164 20.5998 21.0129 20.5996 20.8008V16.6016H22.8008C23.0129 16.6013 23.2162 16.5167 23.366 16.3666C23.5158 16.2164 23.5998 16.0129 23.5996 15.8008C23.5998 15.5887 23.5158 15.3852 23.366 15.235C23.2162 15.0848 23.0129 15.0003 22.8008 15H19.8008H16.8008ZM11.8008 2C11.6956 1.9999 11.5914 2.02054 11.4942 2.06075C11.397 2.10095 11.3087 2.15993 11.2343 2.23431C11.1599 2.30869 11.101 2.39701 11.0607 2.49421C11.0205 2.59142 10.9999 2.69559 11 2.80078V7H8.80078C8.69559 6.9999 8.59142 7.02054 8.49421 7.06075C8.39701 7.10095 8.30869 7.15993 8.23431 7.23431C8.15994 7.30869 8.10095 7.39701 8.06075 7.49421C8.02054 7.59142 7.9999 7.69559 8 7.80078C7.9999 7.90597 8.02054 8.01015 8.06075 8.10735C8.10095 8.20455 8.15994 8.29287 8.23431 8.36725C8.30869 8.44163 8.39701 8.50061 8.49421 8.54082C8.59142 8.58102 8.69559 8.60167 8.80078 8.60156H11.8008H14.8008C15.0129 8.60125 15.2162 8.51672 15.366 8.36656C15.5158 8.21639 15.5998 8.01289 15.5996 7.80078C15.5998 7.58868 15.5158 7.38517 15.366 7.23501C15.2162 7.08484 15.0129 7.00031 14.8008 7H12.5996V2.80078C12.5998 2.58868 12.5158 2.38517 12.366 2.23501C12.2162 2.08484 12.0129 2.00031 11.8008 2V2ZM11.8008 11C11.6956 10.9999 11.5914 11.0205 11.4942 11.0607C11.397 11.101 11.3087 11.1599 11.2343 11.2343C11.1599 11.3087 11.101 11.397 11.0607 11.4942C11.0205 11.5914 10.9999 11.6956 11 11.8008V20.8008C10.9999 20.906 11.0205 21.0101 11.0607 21.1073C11.101 21.2046 11.1599 21.2929 11.2343 21.3672C11.3087 21.4416 11.397 21.5006 11.4942 21.5408C11.5914 21.581 11.6956 21.6017 11.8008 21.6016C12.0129 21.6013 12.2162 21.5167 12.366 21.3666C12.5158 21.2164 12.5998 21.0129 12.5996 20.8008V11.8008C12.5998 11.5887 12.5158 11.3852 12.366 11.235C12.2162 11.0848 12.0129 11.0003 11.8008 11V11ZM3.80078 2C3.69559 1.9999 3.59142 2.02054 3.49421 2.06075C3.39701 2.10095 3.30869 2.15993 3.23431 2.23431C3.15993 2.30869 3.10095 2.39701 3.06075 2.49421C3.02054 2.59142 2.9999 2.69559 3 2.80078V9.80078C2.9999 9.90597 3.02054 10.0101 3.06075 10.1073C3.10095 10.2046 3.15993 10.2929 3.23431 10.3672C3.30869 10.4416 3.39701 10.5006 3.49421 10.5408C3.59142 10.581 3.69559 10.6017 3.80078 10.6016C4.01289 10.6013 4.21619 10.5167 4.36599 10.3666C4.51578 10.2164 4.59982 10.0129 4.59961 9.80078V2.80078C4.59982 2.58868 4.51578 2.38517 4.36599 2.23501C4.21619 2.08484 4.01289 2.00031 3.80078 2V2ZM0.800782 13C0.695593 12.9999 0.591416 13.0205 0.494214 13.0607C0.397013 13.101 0.308695 13.1599 0.234315 13.2343C0.159935 13.3087 0.100954 13.397 0.060747 13.4942C0.0205403 13.5914 -0.000102358 13.6956 3.81624e-07 13.8008C-0.000102358 13.906 0.0205403 14.0101 0.060747 14.1073C0.100954 14.2046 0.159935 14.2929 0.234315 14.3672C0.308695 14.4416 0.397013 14.5006 0.494214 14.5408C0.591416 14.581 0.695593 14.6017 0.800782 14.6016H3V20.8008C2.9999 20.906 3.02054 21.0101 3.06075 21.1073C3.10095 21.2046 3.15993 21.2929 3.23431 21.3672C3.30869 21.4416 3.39701 21.5006 3.49421 21.5408C3.59142 21.581 3.69559 21.6017 3.80078 21.6016C4.01289 21.6013 4.21619 21.5167 4.36599 21.3666C4.51578 21.2164 4.59982 21.0129 4.59961 20.8008V14.6016H6.80078C7.01289 14.6013 7.21619 14.5167 7.36599 14.3666C7.51578 14.2164 7.59982 14.0129 7.59961 13.8008C7.59982 13.5887 7.51578 13.3852 7.36599 13.235C7.21619 13.0848 7.01289 13.0003 6.80078 13H3.80078H0.800782Z" fill="black"/>
</svg>
